<svg width="20" height="21" viewBox="0 0 20 21" fill="none" xmlns="http://www.w3.org/2000/svg">
<path fill-rule="evenodd" clip-rule="evenodd" d="M10 20.2793C4.48 20.2793 0 15.7893 0 10.2793C0 4.7593 4.48 0.279297 10 0.279297C15.51 0.279297 20 4.7593 20 10.2793C20 15.7893 15.51 20.2793 10 20.2793ZM14 8.2993C13.7 8.0093 13.23 8.0093 12.94 8.3093L10 11.2593L7.06 8.3093C6.77 8.0093 6.29 8.0093 6 8.2993C5.7 8.5993 5.7 9.0693 6 9.3593L9.47 12.8493C9.61 12.9893 9.8 13.0693 10 13.0693C10.2 13.0693 10.39 12.9893 10.53 12.8493L14 9.3593C14.15 9.2193 14.22 9.0293 14.22 8.8393C14.22 8.6393 14.15 8.4493 14 8.2993Z" fill="#815EFD"/>
</svg>
