<svg width="32" height="32" viewBox="0 0 32 32" fill="none" xmlns="http://www.w3.org/2000/svg">
<path d="M14.1337 22.1337L23.5337 12.7337L21.667 10.867L14.1337 18.4003L10.3337 14.6003L8.46699 16.467L14.1337 22.1337ZM16.0003 29.3337C14.1559 29.3337 12.4225 28.9837 10.8003 28.2837C9.1781 27.5837 7.76699 26.6337 6.56699 25.4337C5.36699 24.2337 4.41699 22.8226 3.71699 21.2003C3.01699 19.5781 2.66699 17.8448 2.66699 16.0003C2.66699 14.1559 3.01699 12.4225 3.71699 10.8003C4.41699 9.1781 5.36699 7.76699 6.56699 6.56699C7.76699 5.36699 9.1781 4.41699 10.8003 3.71699C12.4225 3.01699 14.1559 2.66699 16.0003 2.66699C17.8448 2.66699 19.5781 3.01699 21.2003 3.71699C22.8226 4.41699 24.2337 5.36699 25.4337 6.56699C26.6337 7.76699 27.5837 9.1781 28.2837 10.8003C28.9837 12.4225 29.3337 14.1559 29.3337 16.0003C29.3337 17.8448 28.9837 19.5781 28.2837 21.2003C27.5837 22.8226 26.6337 24.2337 25.4337 25.4337C24.2337 26.6337 22.8226 27.5837 21.2003 28.2837C19.5781 28.9837 17.8448 29.3337 16.0003 29.3337ZM16.0003 26.667C18.9781 26.667 21.5003 25.6337 23.567 23.567C25.6337 21.5003 26.667 18.9781 26.667 16.0003C26.667 13.0225 25.6337 10.5003 23.567 8.43366C21.5003 6.36699 18.9781 5.33366 16.0003 5.33366C13.0225 5.33366 10.5003 6.36699 8.43366 8.43366C6.36699 10.5003 5.33366 13.0225 5.33366 16.0003C5.33366 18.9781 6.36699 21.5003 8.43366 23.567C10.5003 25.6337 13.0225 26.667 16.0003 26.667Z" fill="#815EFD"/>
</svg>
