<svg width="24" height="25" viewBox="0 0 24 25" fill="none" xmlns="http://www.w3.org/2000/svg">
<path d="M12 12.2793C12.55 12.2793 13.0208 12.0835 13.4125 11.6918C13.8042 11.3001 14 10.8293 14 10.2793C14 9.7293 13.8042 9.25846 13.4125 8.8668C13.0208 8.47513 12.55 8.2793 12 8.2793C11.45 8.2793 10.9792 8.47513 10.5875 8.8668C10.1958 9.25846 10 9.7293 10 10.2793C10 10.8293 10.1958 11.3001 10.5875 11.6918C10.9792 12.0835 11.45 12.2793 12 12.2793ZM12 22.2793C9.31667 19.996 7.3125 17.8751 5.9875 15.9168C4.6625 13.9585 4 12.146 4 10.4793C4 7.9793 4.80417 5.98763 6.4125 4.5043C8.02083 3.02096 9.88333 2.2793 12 2.2793C14.1167 2.2793 15.9792 3.02096 17.5875 4.5043C19.1958 5.98763 20 7.9793 20 10.4793C20 12.146 19.3375 13.9585 18.0125 15.9168C16.6875 17.8751 14.6833 19.996 12 22.2793Z" fill="#815EFD"/>
</svg>
