<svg width="24" height="25" viewBox="0 0 24 25" fill="none" xmlns="http://www.w3.org/2000/svg">
<path d="M4 20.2793C3.45 20.2793 2.97917 20.0835 2.5875 19.6918C2.19583 19.3001 2 18.8293 2 18.2793V6.2793C2 5.7293 2.19583 5.25846 2.5875 4.8668C2.97917 4.47513 3.45 4.2793 4 4.2793H20C20.55 4.2793 21.0208 4.47513 21.4125 4.8668C21.8042 5.25846 22 5.7293 22 6.2793V18.2793C22 18.8293 21.8042 19.3001 21.4125 19.6918C21.0208 20.0835 20.55 20.2793 20 20.2793H4ZM12 13.1043C12.0833 13.1043 12.1708 13.0918 12.2625 13.0668C12.3542 13.0418 12.4417 13.0043 12.525 12.9543L19.6 8.5293C19.7333 8.44596 19.8333 8.3418 19.9 8.2168C19.9667 8.0918 20 7.9543 20 7.8043C20 7.47096 19.8583 7.22096 19.575 7.0543C19.2917 6.88763 19 6.89596 18.7 7.0793L12 11.2793L5.3 7.0793C5 6.89596 4.70833 6.8918 4.425 7.0668C4.14167 7.2418 4 7.48763 4 7.8043C4 7.97096 4.03333 8.1168 4.1 8.2418C4.16667 8.3668 4.26667 8.46263 4.4 8.5293L11.475 12.9543C11.5583 13.0043 11.6458 13.0418 11.7375 13.0668C11.8292 13.0918 11.9167 13.1043 12 13.1043Z" fill="#815EFD"/>
</svg>
