<svg width="24" height="25" viewBox="0 0 24 25" fill="none" xmlns="http://www.w3.org/2000/svg">
<path d="M19.875 21.2793C17.8417 21.2793 15.8208 20.7793 13.8125 19.7793C11.8042 18.7793 10 17.4793 8.4 15.8793C6.8 14.2793 5.5 12.4751 4.5 10.4668C3.5 8.45846 3 6.43763 3 4.4043C3 4.08763 3.10833 3.82096 3.325 3.6043C3.54167 3.38763 3.80833 3.2793 4.125 3.2793H7.625C7.85833 3.2793 8.0625 3.35846 8.2375 3.5168C8.4125 3.67513 8.525 3.88763 8.575 4.1543L9.25 7.3043C9.28333 7.53763 9.27917 7.75013 9.2375 7.9418C9.19583 8.13346 9.10833 8.29596 8.975 8.4293L6.475 10.9543C7.40833 12.5043 8.45417 13.8543 9.6125 15.0043C10.7708 16.1543 12.0833 17.1293 13.55 17.9293L15.925 15.4793C16.0917 15.296 16.2833 15.1668 16.5 15.0918C16.7167 15.0168 16.9333 15.0043 17.15 15.0543L20.125 15.7043C20.375 15.7543 20.5833 15.8793 20.75 16.0793C20.9167 16.2793 21 16.5126 21 16.7793V20.1543C21 20.471 20.8917 20.7376 20.675 20.9543C20.4583 21.171 20.1917 21.2793 19.875 21.2793Z" fill="#815EFD"/>
</svg>
