<svg width="20" height="20" viewBox="0 0 20 20" fill="none" xmlns="http://www.w3.org/2000/svg">
<path fill-rule="evenodd" clip-rule="evenodd" d="M5.67 0H14.34C17.73 0 20 2.38 20 5.92V14.091C20 17.62 17.73 20 14.34 20H5.67C2.28 20 0 17.62 0 14.091V5.92C0 2.38 2.28 0 5.67 0ZM9.42994 12.9901L14.1799 8.24012C14.5199 7.90012 14.5199 7.35012 14.1799 7.00012C13.8399 6.66012 13.2799 6.66012 12.9399 7.00012L8.80994 11.1301L7.05994 9.38012C6.71994 9.04012 6.15994 9.04012 5.81994 9.38012C5.47994 9.72012 5.47994 10.2701 5.81994 10.6201L8.19994 12.9901C8.36994 13.1601 8.58994 13.2401 8.80994 13.2401C9.03994 13.2401 9.25994 13.1601 9.42994 12.9901Z" fill="#815EFD"/>
</svg>
