<svg width="33" height="162" viewBox="0 0 33 162" fill="none" xmlns="http://www.w3.org/2000/svg">
<path d="M30.9224 161.142C30.8438 161.689 30.337 162.068 29.7903 161.99L20.8819 160.709C20.3353 160.63 19.9558 160.123 20.0344 159.577C20.113 159.03 20.6199 158.651 21.1666 158.729L29.0851 159.868L30.2237 151.949C30.3023 151.403 30.8092 151.023 31.3559 151.102C31.9025 151.18 32.282 151.687 32.2034 152.234L30.9224 161.142ZM30.6746 1.67038C30.0147 2.40083 29.3461 3.17053 28.6715 3.97845L27.1363 2.69655C27.827 1.86935 28.5127 1.08 29.1906 0.329623L30.6746 1.67038ZM24.9161 8.80182C23.7606 10.3887 22.6026 12.0773 21.4543 13.8627L19.7722 12.7808C20.9409 10.9636 22.1208 9.24309 23.2992 7.6246L24.9161 8.80182ZM18.2638 19.1304C17.2775 20.8602 16.3082 22.6612 15.3645 24.5298L13.5792 23.6282C14.5383 21.7293 15.5236 19.8986 16.5264 18.1398L18.2638 19.1304ZM12.728 30.088C11.9107 31.9265 11.1221 33.8195 10.3689 35.7643L8.50393 35.042C9.26905 33.0664 10.0701 31.1434 10.9004 29.2756L12.728 30.088ZM8.29173 41.5414C7.65457 43.4588 7.05432 45.4195 6.4965 47.4211L4.56991 46.8842C5.13667 44.8505 5.7465 42.8586 6.39377 40.9107L8.29173 41.5414ZM4.99183 53.3866C4.54586 55.3599 4.14295 57.368 3.7878 59.409L1.81741 59.0662C2.17837 56.9917 2.58784 54.9509 3.04103 52.9457L4.99183 53.3866ZM2.88836 65.4812C2.64248 67.4908 2.44438 69.5288 2.29818 71.5934L0.303179 71.4521C0.45182 69.353 0.65321 67.2812 0.90316 65.2383L2.88836 65.4812ZM2.02191 77.7291C1.98293 79.7541 1.99519 81.8021 2.0623 83.8716L0.0633545 83.9365C-0.00488663 81.8321 -0.0173531 79.7497 0.0222836 77.6906L2.02191 77.7291ZM2.41999 90.0042C2.59002 92.0216 2.81341 94.0574 3.09332 96.1103L1.11166 96.3805C0.827078 94.2933 0.599943 92.2235 0.427057 90.1722L2.41999 90.0042ZM4.07826 102.174C4.45323 104.162 4.88238 106.164 5.36846 108.179L3.4242 108.648C2.93024 106.6 2.49407 104.565 2.11292 102.544L4.07826 102.174ZM6.95547 114.113C7.52535 116.053 8.14908 118.003 8.82902 119.963L6.93943 120.619C6.24901 118.628 5.61552 116.647 5.03662 114.677L6.95547 114.113ZM10.9775 125.719C11.7279 127.596 12.5309 129.48 13.3885 131.373L11.5668 132.198C10.6969 130.279 9.8821 128.366 9.1205 126.462L10.9775 125.719ZM16.0493 136.918C16.964 138.724 17.9295 140.535 18.9475 142.352L17.2027 143.33C16.1712 141.489 15.1926 139.652 14.2652 137.822L16.0493 136.918ZM22.0714 147.674C23.1275 149.394 24.2317 151.118 25.3854 152.846L23.7221 153.956C22.5544 152.208 21.4366 150.462 20.367 148.72L22.0714 147.674ZM28.8883 157.89C29.4914 158.727 30.1063 159.563 30.7332 160.401L29.1321 161.599C28.4982 160.752 27.8763 159.906 27.2662 159.06L28.8883 157.89Z" fill="#815EFD"/>
</svg>
