<svg width="274" height="16" viewBox="0 0 274 16" fill="none" xmlns="http://www.w3.org/2000/svg">
<path d="M273.707 8.70711C274.098 8.31658 274.098 7.68342 273.707 7.29289L267.343 0.928932C266.953 0.538408 266.319 0.538408 265.929 0.928932C265.538 1.31946 265.538 1.95262 265.929 2.34315L271.586 8L265.929 13.6569C265.538 14.0474 265.538 14.6805 265.929 15.0711C266.319 15.4616 266.953 15.4616 267.343 15.0711L273.707 8.70711ZM0 9H2.96739V7H0V9ZM8.90217 9H14.837V7H8.90217V9ZM20.7717 9H26.7065V7H20.7717V9ZM32.6413 9H38.5761V7H32.6413V9ZM44.5109 9H50.4457V7H44.5109V9ZM56.3804 9H62.3152V7H56.3804V9ZM68.25 9H74.1848V7H68.25V9ZM80.1196 9H86.0544V7H80.1196V9ZM91.9891 9H97.9239V7H91.9891V9ZM103.859 9H109.793V7H103.859V9ZM115.728 9H121.663V7H115.728V9ZM127.598 9H133.533V7H127.598V9ZM139.467 9H145.402V7H139.467V9ZM151.337 9H157.272V7H151.337V9ZM163.207 9H169.141V7H163.207V9ZM175.076 9H181.011V7H175.076V9ZM186.946 9H192.88V7H186.946V9ZM198.815 9H204.75V7H198.815V9ZM210.685 9H216.62V7H210.685V9ZM222.554 9H228.489V7H222.554V9ZM234.424 9H240.359V7H234.424V9ZM246.294 9H252.228V7H246.294V9ZM258.163 9H264.098V7H258.163V9ZM270.033 9H273V7H270.033V9Z" fill="#815EFD"/>
</svg>
