<svg width="33" height="162" viewBox="0 0 33 162" fill="none" xmlns="http://www.w3.org/2000/svg">
<path d="M2.01018 161.142C2.08879 161.689 2.59566 162.068 3.14233 161.99L12.0507 160.709C12.5974 160.63 12.9768 160.123 12.8982 159.577C12.8196 159.03 12.3127 158.651 11.7661 158.729L3.84749 159.868L2.70888 151.949C2.63027 151.403 2.12339 151.023 1.57673 151.102C1.03007 151.18 0.650632 151.687 0.729237 152.234L2.01018 161.142ZM2.25798 1.67038C2.91791 2.40083 3.58652 3.17053 4.26115 3.97845L5.79632 2.69655C5.10558 1.86935 4.41995 1.08 3.74202 0.329623L2.25798 1.67038ZM8.01657 8.80182C9.17198 10.3887 10.3301 12.0773 11.4783 13.8627L13.1604 12.7808C11.9917 10.9636 10.8118 9.24309 9.6334 7.6246L8.01657 8.80182ZM14.6688 19.1304C15.6551 20.8602 16.6244 22.6612 17.5681 24.5298L19.3534 23.6282C18.3943 21.7293 17.4091 19.8986 16.4062 18.1398L14.6688 19.1304ZM20.2046 30.088C21.0219 31.9265 21.8105 33.8195 22.5637 35.7643L24.4287 35.042C23.6636 33.0664 22.8625 31.1434 22.0322 29.2756L20.2046 30.088ZM24.6409 41.5414C25.278 43.4588 25.8783 45.4195 26.4361 47.4211L28.3627 46.8842C27.7959 44.8505 27.1861 42.8586 26.5388 40.9107L24.6409 41.5414ZM27.9408 53.3866C28.3868 55.3599 28.7897 57.368 29.1448 59.409L31.1152 59.0662C30.7542 56.9917 30.3448 54.9509 29.8916 52.9457L27.9408 53.3866ZM30.0443 65.4812C30.2901 67.4908 30.4882 69.5288 30.6344 71.5934L32.6294 71.4521C32.4808 69.353 32.2794 67.2812 32.0295 65.2383L30.0443 65.4812ZM30.9107 77.7291C30.9497 79.7541 30.9374 81.8021 30.8703 83.8716L32.8693 83.9365C32.9375 81.8321 32.95 79.7497 32.9103 77.6906L30.9107 77.7291ZM30.5126 90.0042C30.3426 92.0216 30.1192 94.0574 29.8393 96.1103L31.821 96.3805C32.1055 94.2933 32.3327 92.2235 32.5056 90.1722L30.5126 90.0042ZM28.8544 102.174C28.4794 104.162 28.0502 106.164 27.5642 108.179L29.5084 108.648C30.0024 106.6 30.4385 104.565 30.8197 102.544L28.8544 102.174ZM25.9771 114.113C25.4073 116.053 24.7835 118.003 24.1036 119.963L25.9932 120.619C26.6836 118.628 27.3171 116.647 27.896 114.677L25.9771 114.113ZM21.9551 125.719C21.2047 127.596 20.4017 129.48 19.5441 131.373L21.3658 132.198C22.2357 130.279 23.0505 128.366 23.8121 126.462L21.9551 125.719ZM16.8833 136.918C15.9686 138.724 15.0031 140.535 13.9851 142.352L15.73 143.33C16.7614 141.489 17.74 139.652 18.6674 137.822L16.8833 136.918ZM10.8612 147.674C9.80509 149.394 8.7009 151.118 7.54723 152.846L9.21057 153.956C10.3782 152.208 11.496 150.462 12.5656 148.72L10.8612 147.674ZM4.04432 157.89C3.44124 158.727 2.82634 159.563 2.19945 160.401L3.80055 161.599C4.43447 160.752 5.05635 159.906 5.66637 159.06L4.04432 157.89Z" fill="#815EFD"/>
</svg>
