<svg width="235" height="52" viewBox="0 0 235 52" fill="none" xmlns="http://www.w3.org/2000/svg">
<g opacity="0.2">
<path fill-rule="evenodd" clip-rule="evenodd" d="M6 3.37207C6 5.02957 4.6575 6.37207 3 6.37207C1.3425 6.37207 0 5.02957 0 3.37207C0 1.71457 1.3425 0.37207 3 0.37207C4.6575 0.37207 6 1.71457 6 3.37207Z" fill="#815EFD"/>
<path fill-rule="evenodd" clip-rule="evenodd" d="M21 3.37207C21 5.02957 19.6575 6.37207 18 6.37207C16.3425 6.37207 15 5.02957 15 3.37207C15 1.71457 16.3425 0.37207 18 0.37207C19.6575 0.37207 21 1.71457 21 3.37207Z" fill="#815EFD"/>
<path fill-rule="evenodd" clip-rule="evenodd" d="M36 3.37207C36 5.02957 34.6575 6.37207 33 6.37207C31.3425 6.37207 30 5.02957 30 3.37207C30 1.71457 31.3425 0.37207 33 0.37207C34.6575 0.37207 36 1.71457 36 3.37207Z" fill="#815EFD"/>
<path fill-rule="evenodd" clip-rule="evenodd" d="M52 3.37207C52 5.02957 50.6575 6.37207 49 6.37207C47.3425 6.37207 46 5.02957 46 3.37207C46 1.71457 47.3425 0.37207 49 0.37207C50.6575 0.37207 52 1.71457 52 3.37207Z" fill="#815EFD"/>
<path fill-rule="evenodd" clip-rule="evenodd" d="M6 18.3721C6 20.0296 4.6575 21.3721 3 21.3721C1.3425 21.3721 0 20.0296 0 18.3721C0 16.7146 1.3425 15.3721 3 15.3721C4.6575 15.3721 6 16.7146 6 18.3721Z" fill="#815EFD"/>
<path fill-rule="evenodd" clip-rule="evenodd" d="M21 18.3721C21 20.0296 19.6575 21.3721 18 21.3721C16.3425 21.3721 15 20.0296 15 18.3721C15 16.7146 16.3425 15.3721 18 15.3721C19.6575 15.3721 21 16.7146 21 18.3721Z" fill="#815EFD"/>
<path fill-rule="evenodd" clip-rule="evenodd" d="M36 18.3721C36 20.0296 34.6575 21.3721 33 21.3721C31.3425 21.3721 30 20.0296 30 18.3721C30 16.7146 31.3425 15.3721 33 15.3721C34.6575 15.3721 36 16.7146 36 18.3721Z" fill="#815EFD"/>
<path fill-rule="evenodd" clip-rule="evenodd" d="M52 18.3721C52 20.0296 50.6575 21.3721 49 21.3721C47.3425 21.3721 46 20.0296 46 18.3721C46 16.7146 47.3425 15.3721 49 15.3721C50.6575 15.3721 52 16.7146 52 18.3721Z" fill="#815EFD"/>
<path fill-rule="evenodd" clip-rule="evenodd" d="M67 3.37207C67 5.02957 65.6575 6.37207 64 6.37207C62.3425 6.37207 61 5.02957 61 3.37207C61 1.71457 62.3425 0.37207 64 0.37207C65.6575 0.37207 67 1.71457 67 3.37207Z" fill="#815EFD"/>
<path fill-rule="evenodd" clip-rule="evenodd" d="M82 3.37207C82 5.02957 80.6575 6.37207 79 6.37207C77.3425 6.37207 76 5.02957 76 3.37207C76 1.71457 77.3425 0.37207 79 0.37207C80.6575 0.37207 82 1.71457 82 3.37207Z" fill="#815EFD"/>
<path fill-rule="evenodd" clip-rule="evenodd" d="M97 3.37207C97 5.02957 95.6575 6.37207 94 6.37207C92.3425 6.37207 91 5.02957 91 3.37207C91 1.71457 92.3425 0.37207 94 0.37207C95.6575 0.37207 97 1.71457 97 3.37207Z" fill="#815EFD"/>
<path fill-rule="evenodd" clip-rule="evenodd" d="M113 3.37207C113 5.02957 111.658 6.37207 110 6.37207C108.342 6.37207 107 5.02957 107 3.37207C107 1.71457 108.342 0.37207 110 0.37207C111.658 0.37207 113 1.71457 113 3.37207Z" fill="#815EFD"/>
<path fill-rule="evenodd" clip-rule="evenodd" d="M67 18.3721C67 20.0296 65.6575 21.3721 64 21.3721C62.3425 21.3721 61 20.0296 61 18.3721C61 16.7146 62.3425 15.3721 64 15.3721C65.6575 15.3721 67 16.7146 67 18.3721Z" fill="#815EFD"/>
<path fill-rule="evenodd" clip-rule="evenodd" d="M82 18.3721C82 20.0296 80.6575 21.3721 79 21.3721C77.3425 21.3721 76 20.0296 76 18.3721C76 16.7146 77.3425 15.3721 79 15.3721C80.6575 15.3721 82 16.7146 82 18.3721Z" fill="#815EFD"/>
<path fill-rule="evenodd" clip-rule="evenodd" d="M97 18.3721C97 20.0296 95.6575 21.3721 94 21.3721C92.3425 21.3721 91 20.0296 91 18.3721C91 16.7146 92.3425 15.3721 94 15.3721C95.6575 15.3721 97 16.7146 97 18.3721Z" fill="#815EFD"/>
<path fill-rule="evenodd" clip-rule="evenodd" d="M113 18.3721C113 20.0296 111.658 21.3721 110 21.3721C108.342 21.3721 107 20.0296 107 18.3721C107 16.7146 108.342 15.3721 110 15.3721C111.658 15.3721 113 16.7146 113 18.3721Z" fill="#815EFD"/>
<path fill-rule="evenodd" clip-rule="evenodd" d="M128 3.37207C128 5.02957 126.658 6.37207 125 6.37207C123.342 6.37207 122 5.02957 122 3.37207C122 1.71457 123.342 0.37207 125 0.37207C126.658 0.37207 128 1.71457 128 3.37207Z" fill="#815EFD"/>
<path fill-rule="evenodd" clip-rule="evenodd" d="M143 3.37207C143 5.02957 141.658 6.37207 140 6.37207C138.342 6.37207 137 5.02957 137 3.37207C137 1.71457 138.342 0.37207 140 0.37207C141.658 0.37207 143 1.71457 143 3.37207Z" fill="#815EFD"/>
<path fill-rule="evenodd" clip-rule="evenodd" d="M158 3.37207C158 5.02957 156.658 6.37207 155 6.37207C153.342 6.37207 152 5.02957 152 3.37207C152 1.71457 153.342 0.37207 155 0.37207C156.658 0.37207 158 1.71457 158 3.37207Z" fill="#815EFD"/>
<path fill-rule="evenodd" clip-rule="evenodd" d="M174 3.37207C174 5.02957 172.658 6.37207 171 6.37207C169.342 6.37207 168 5.02957 168 3.37207C168 1.71457 169.342 0.37207 171 0.37207C172.658 0.37207 174 1.71457 174 3.37207Z" fill="#815EFD"/>
<path fill-rule="evenodd" clip-rule="evenodd" d="M128 18.3721C128 20.0296 126.658 21.3721 125 21.3721C123.342 21.3721 122 20.0296 122 18.3721C122 16.7146 123.342 15.3721 125 15.3721C126.658 15.3721 128 16.7146 128 18.3721Z" fill="#815EFD"/>
<path fill-rule="evenodd" clip-rule="evenodd" d="M143 18.3721C143 20.0296 141.658 21.3721 140 21.3721C138.342 21.3721 137 20.0296 137 18.3721C137 16.7146 138.342 15.3721 140 15.3721C141.658 15.3721 143 16.7146 143 18.3721Z" fill="#815EFD"/>
<path fill-rule="evenodd" clip-rule="evenodd" d="M158 18.3721C158 20.0296 156.658 21.3721 155 21.3721C153.342 21.3721 152 20.0296 152 18.3721C152 16.7146 153.342 15.3721 155 15.3721C156.658 15.3721 158 16.7146 158 18.3721Z" fill="#815EFD"/>
<path fill-rule="evenodd" clip-rule="evenodd" d="M174 18.3721C174 20.0296 172.658 21.3721 171 21.3721C169.342 21.3721 168 20.0296 168 18.3721C168 16.7146 169.342 15.3721 171 15.3721C172.658 15.3721 174 16.7146 174 18.3721Z" fill="#815EFD"/>
<path fill-rule="evenodd" clip-rule="evenodd" d="M189 3.37207C189 5.02957 187.658 6.37207 186 6.37207C184.342 6.37207 183 5.02957 183 3.37207C183 1.71457 184.342 0.37207 186 0.37207C187.658 0.37207 189 1.71457 189 3.37207Z" fill="#815EFD"/>
<path fill-rule="evenodd" clip-rule="evenodd" d="M204 3.37207C204 5.02957 202.658 6.37207 201 6.37207C199.342 6.37207 198 5.02957 198 3.37207C198 1.71457 199.342 0.37207 201 0.37207C202.658 0.37207 204 1.71457 204 3.37207Z" fill="#815EFD"/>
<path fill-rule="evenodd" clip-rule="evenodd" d="M219 3.37207C219 5.02957 217.658 6.37207 216 6.37207C214.342 6.37207 213 5.02957 213 3.37207C213 1.71457 214.342 0.37207 216 0.37207C217.658 0.37207 219 1.71457 219 3.37207Z" fill="#815EFD"/>
<path fill-rule="evenodd" clip-rule="evenodd" d="M235 3.37207C235 5.02957 233.658 6.37207 232 6.37207C230.342 6.37207 229 5.02957 229 3.37207C229 1.71457 230.342 0.37207 232 0.37207C233.658 0.37207 235 1.71457 235 3.37207Z" fill="#815EFD"/>
<path fill-rule="evenodd" clip-rule="evenodd" d="M189 18.3721C189 20.0296 187.658 21.3721 186 21.3721C184.342 21.3721 183 20.0296 183 18.3721C183 16.7146 184.342 15.3721 186 15.3721C187.658 15.3721 189 16.7146 189 18.3721Z" fill="#815EFD"/>
<path fill-rule="evenodd" clip-rule="evenodd" d="M204 18.3721C204 20.0296 202.658 21.3721 201 21.3721C199.342 21.3721 198 20.0296 198 18.3721C198 16.7146 199.342 15.3721 201 15.3721C202.658 15.3721 204 16.7146 204 18.3721Z" fill="#815EFD"/>
<path fill-rule="evenodd" clip-rule="evenodd" d="M219 18.3721C219 20.0296 217.658 21.3721 216 21.3721C214.342 21.3721 213 20.0296 213 18.3721C213 16.7146 214.342 15.3721 216 15.3721C217.658 15.3721 219 16.7146 219 18.3721Z" fill="#815EFD"/>
<path fill-rule="evenodd" clip-rule="evenodd" d="M235 18.3721C235 20.0296 233.658 21.3721 232 21.3721C230.342 21.3721 229 20.0296 229 18.3721C229 16.7146 230.342 15.3721 232 15.3721C233.658 15.3721 235 16.7146 235 18.3721Z" fill="#815EFD"/>
</g>
<g opacity="0.2">
<path fill-rule="evenodd" clip-rule="evenodd" d="M6 33.3721C6 35.0296 4.6575 36.3721 3 36.3721C1.3425 36.3721 0 35.0296 0 33.3721C0 31.7146 1.3425 30.3721 3 30.3721C4.6575 30.3721 6 31.7146 6 33.3721Z" fill="#815EFD"/>
<path fill-rule="evenodd" clip-rule="evenodd" d="M21 33.3721C21 35.0296 19.6575 36.3721 18 36.3721C16.3425 36.3721 15 35.0296 15 33.3721C15 31.7146 16.3425 30.3721 18 30.3721C19.6575 30.3721 21 31.7146 21 33.3721Z" fill="#815EFD"/>
<path fill-rule="evenodd" clip-rule="evenodd" d="M36 33.3721C36 35.0296 34.6575 36.3721 33 36.3721C31.3425 36.3721 30 35.0296 30 33.3721C30 31.7146 31.3425 30.3721 33 30.3721C34.6575 30.3721 36 31.7146 36 33.3721Z" fill="#815EFD"/>
<path fill-rule="evenodd" clip-rule="evenodd" d="M52 33.3721C52 35.0296 50.6575 36.3721 49 36.3721C47.3425 36.3721 46 35.0296 46 33.3721C46 31.7146 47.3425 30.3721 49 30.3721C50.6575 30.3721 52 31.7146 52 33.3721Z" fill="#815EFD"/>
<path fill-rule="evenodd" clip-rule="evenodd" d="M6 48.3721C6 50.0296 4.6575 51.3721 3 51.3721C1.3425 51.3721 0 50.0296 0 48.3721C0 46.7146 1.3425 45.3721 3 45.3721C4.6575 45.3721 6 46.7146 6 48.3721Z" fill="#815EFD"/>
<path fill-rule="evenodd" clip-rule="evenodd" d="M21 48.3721C21 50.0296 19.6575 51.3721 18 51.3721C16.3425 51.3721 15 50.0296 15 48.3721C15 46.7146 16.3425 45.3721 18 45.3721C19.6575 45.3721 21 46.7146 21 48.3721Z" fill="#815EFD"/>
<path fill-rule="evenodd" clip-rule="evenodd" d="M36 48.3721C36 50.0296 34.6575 51.3721 33 51.3721C31.3425 51.3721 30 50.0296 30 48.3721C30 46.7146 31.3425 45.3721 33 45.3721C34.6575 45.3721 36 46.7146 36 48.3721Z" fill="#815EFD"/>
<path fill-rule="evenodd" clip-rule="evenodd" d="M52 48.3721C52 50.0296 50.6575 51.3721 49 51.3721C47.3425 51.3721 46 50.0296 46 48.3721C46 46.7146 47.3425 45.3721 49 45.3721C50.6575 45.3721 52 46.7146 52 48.3721Z" fill="#815EFD"/>
<path fill-rule="evenodd" clip-rule="evenodd" d="M67 33.3721C67 35.0296 65.6575 36.3721 64 36.3721C62.3425 36.3721 61 35.0296 61 33.3721C61 31.7146 62.3425 30.3721 64 30.3721C65.6575 30.3721 67 31.7146 67 33.3721Z" fill="#815EFD"/>
<path fill-rule="evenodd" clip-rule="evenodd" d="M82 33.3721C82 35.0296 80.6575 36.3721 79 36.3721C77.3425 36.3721 76 35.0296 76 33.3721C76 31.7146 77.3425 30.3721 79 30.3721C80.6575 30.3721 82 31.7146 82 33.3721Z" fill="#815EFD"/>
<path fill-rule="evenodd" clip-rule="evenodd" d="M97 33.3721C97 35.0296 95.6575 36.3721 94 36.3721C92.3425 36.3721 91 35.0296 91 33.3721C91 31.7146 92.3425 30.3721 94 30.3721C95.6575 30.3721 97 31.7146 97 33.3721Z" fill="#815EFD"/>
<path fill-rule="evenodd" clip-rule="evenodd" d="M113 33.3721C113 35.0296 111.658 36.3721 110 36.3721C108.342 36.3721 107 35.0296 107 33.3721C107 31.7146 108.342 30.3721 110 30.3721C111.658 30.3721 113 31.7146 113 33.3721Z" fill="#815EFD"/>
<path fill-rule="evenodd" clip-rule="evenodd" d="M67 48.3721C67 50.0296 65.6575 51.3721 64 51.3721C62.3425 51.3721 61 50.0296 61 48.3721C61 46.7146 62.3425 45.3721 64 45.3721C65.6575 45.3721 67 46.7146 67 48.3721Z" fill="#815EFD"/>
<path fill-rule="evenodd" clip-rule="evenodd" d="M82 48.3721C82 50.0296 80.6575 51.3721 79 51.3721C77.3425 51.3721 76 50.0296 76 48.3721C76 46.7146 77.3425 45.3721 79 45.3721C80.6575 45.3721 82 46.7146 82 48.3721Z" fill="#815EFD"/>
<path fill-rule="evenodd" clip-rule="evenodd" d="M97 48.3721C97 50.0296 95.6575 51.3721 94 51.3721C92.3425 51.3721 91 50.0296 91 48.3721C91 46.7146 92.3425 45.3721 94 45.3721C95.6575 45.3721 97 46.7146 97 48.3721Z" fill="#815EFD"/>
<path fill-rule="evenodd" clip-rule="evenodd" d="M113 48.3721C113 50.0296 111.658 51.3721 110 51.3721C108.342 51.3721 107 50.0296 107 48.3721C107 46.7146 108.342 45.3721 110 45.3721C111.658 45.3721 113 46.7146 113 48.3721Z" fill="#815EFD"/>
<path fill-rule="evenodd" clip-rule="evenodd" d="M128 33.3721C128 35.0296 126.658 36.3721 125 36.3721C123.342 36.3721 122 35.0296 122 33.3721C122 31.7146 123.342 30.3721 125 30.3721C126.658 30.3721 128 31.7146 128 33.3721Z" fill="#815EFD"/>
<path fill-rule="evenodd" clip-rule="evenodd" d="M143 33.3721C143 35.0296 141.658 36.3721 140 36.3721C138.342 36.3721 137 35.0296 137 33.3721C137 31.7146 138.342 30.3721 140 30.3721C141.658 30.3721 143 31.7146 143 33.3721Z" fill="#815EFD"/>
<path fill-rule="evenodd" clip-rule="evenodd" d="M158 33.3721C158 35.0296 156.658 36.3721 155 36.3721C153.342 36.3721 152 35.0296 152 33.3721C152 31.7146 153.342 30.3721 155 30.3721C156.658 30.3721 158 31.7146 158 33.3721Z" fill="#815EFD"/>
<path fill-rule="evenodd" clip-rule="evenodd" d="M174 33.3721C174 35.0296 172.658 36.3721 171 36.3721C169.342 36.3721 168 35.0296 168 33.3721C168 31.7146 169.342 30.3721 171 30.3721C172.658 30.3721 174 31.7146 174 33.3721Z" fill="#815EFD"/>
<path fill-rule="evenodd" clip-rule="evenodd" d="M128 48.3721C128 50.0296 126.658 51.3721 125 51.3721C123.342 51.3721 122 50.0296 122 48.3721C122 46.7146 123.342 45.3721 125 45.3721C126.658 45.3721 128 46.7146 128 48.3721Z" fill="#815EFD"/>
<path fill-rule="evenodd" clip-rule="evenodd" d="M143 48.3721C143 50.0296 141.658 51.3721 140 51.3721C138.342 51.3721 137 50.0296 137 48.3721C137 46.7146 138.342 45.3721 140 45.3721C141.658 45.3721 143 46.7146 143 48.3721Z" fill="#815EFD"/>
<path fill-rule="evenodd" clip-rule="evenodd" d="M158 48.3721C158 50.0296 156.658 51.3721 155 51.3721C153.342 51.3721 152 50.0296 152 48.3721C152 46.7146 153.342 45.3721 155 45.3721C156.658 45.3721 158 46.7146 158 48.3721Z" fill="#815EFD"/>
<path fill-rule="evenodd" clip-rule="evenodd" d="M174 48.3721C174 50.0296 172.658 51.3721 171 51.3721C169.342 51.3721 168 50.0296 168 48.3721C168 46.7146 169.342 45.3721 171 45.3721C172.658 45.3721 174 46.7146 174 48.3721Z" fill="#815EFD"/>
<path fill-rule="evenodd" clip-rule="evenodd" d="M189 33.3721C189 35.0296 187.658 36.3721 186 36.3721C184.342 36.3721 183 35.0296 183 33.3721C183 31.7146 184.342 30.3721 186 30.3721C187.658 30.3721 189 31.7146 189 33.3721Z" fill="#815EFD"/>
<path fill-rule="evenodd" clip-rule="evenodd" d="M204 33.3721C204 35.0296 202.658 36.3721 201 36.3721C199.342 36.3721 198 35.0296 198 33.3721C198 31.7146 199.342 30.3721 201 30.3721C202.658 30.3721 204 31.7146 204 33.3721Z" fill="#815EFD"/>
<path fill-rule="evenodd" clip-rule="evenodd" d="M219 33.3721C219 35.0296 217.658 36.3721 216 36.3721C214.342 36.3721 213 35.0296 213 33.3721C213 31.7146 214.342 30.3721 216 30.3721C217.658 30.3721 219 31.7146 219 33.3721Z" fill="#815EFD"/>
<path fill-rule="evenodd" clip-rule="evenodd" d="M235 33.3721C235 35.0296 233.658 36.3721 232 36.3721C230.342 36.3721 229 35.0296 229 33.3721C229 31.7146 230.342 30.3721 232 30.3721C233.658 30.3721 235 31.7146 235 33.3721Z" fill="#815EFD"/>
<path fill-rule="evenodd" clip-rule="evenodd" d="M189 48.3721C189 50.0296 187.658 51.3721 186 51.3721C184.342 51.3721 183 50.0296 183 48.3721C183 46.7146 184.342 45.3721 186 45.3721C187.658 45.3721 189 46.7146 189 48.3721Z" fill="#815EFD"/>
<path fill-rule="evenodd" clip-rule="evenodd" d="M204 48.3721C204 50.0296 202.658 51.3721 201 51.3721C199.342 51.3721 198 50.0296 198 48.3721C198 46.7146 199.342 45.3721 201 45.3721C202.658 45.3721 204 46.7146 204 48.3721Z" fill="#815EFD"/>
<path fill-rule="evenodd" clip-rule="evenodd" d="M219 48.3721C219 50.0296 217.658 51.3721 216 51.3721C214.342 51.3721 213 50.0296 213 48.3721C213 46.7146 214.342 45.3721 216 45.3721C217.658 45.3721 219 46.7146 219 48.3721Z" fill="#815EFD"/>
<path fill-rule="evenodd" clip-rule="evenodd" d="M235 48.3721C235 50.0296 233.658 51.3721 232 51.3721C230.342 51.3721 229 50.0296 229 48.3721C229 46.7146 230.342 45.3721 232 45.3721C233.658 45.3721 235 46.7146 235 48.3721Z" fill="#815EFD"/>
</g>
</svg>
