<svg width="235" height="191" viewBox="0 0 235 191" fill="none" xmlns="http://www.w3.org/2000/svg">
<g opacity="0.2">
<path fill-rule="evenodd" clip-rule="evenodd" d="M6 18C6 19.6575 4.6575 21 3 21C1.3425 21 0 19.6575 0 18C0 16.3425 1.3425 15 3 15C4.6575 15 6 16.3425 6 18Z" fill="#815EFD"/>
<path fill-rule="evenodd" clip-rule="evenodd" d="M21 18C21 19.6575 19.6575 21 18 21C16.3425 21 15 19.6575 15 18C15 16.3425 16.3425 15 18 15C19.6575 15 21 16.3425 21 18Z" fill="#815EFD"/>
<path fill-rule="evenodd" clip-rule="evenodd" d="M36 18C36 19.6575 34.6575 21 33 21C31.3425 21 30 19.6575 30 18C30 16.3425 31.3425 15 33 15C34.6575 15 36 16.3425 36 18Z" fill="#815EFD"/>
<path fill-rule="evenodd" clip-rule="evenodd" d="M52 18C52 19.6575 50.6575 21 49 21C47.3425 21 46 19.6575 46 18C46 16.3425 47.3425 15 49 15C50.6575 15 52 16.3425 52 18Z" fill="#815EFD"/>
<path fill-rule="evenodd" clip-rule="evenodd" d="M6 34C6 35.6575 4.6575 37 3 37C1.3425 37 0 35.6575 0 34C0 32.3425 1.3425 31 3 31C4.6575 31 6 32.3425 6 34Z" fill="#815EFD"/>
<path fill-rule="evenodd" clip-rule="evenodd" d="M21 34C21 35.6575 19.6575 37 18 37C16.3425 37 15 35.6575 15 34C15 32.3425 16.3425 31 18 31C19.6575 31 21 32.3425 21 34Z" fill="#815EFD"/>
<path fill-rule="evenodd" clip-rule="evenodd" d="M36 34C36 35.6575 34.6575 37 33 37C31.3425 37 30 35.6575 30 34C30 32.3425 31.3425 31 33 31C34.6575 31 36 32.3425 36 34Z" fill="#815EFD"/>
<path fill-rule="evenodd" clip-rule="evenodd" d="M52 34C52 35.6575 50.6575 37 49 37C47.3425 37 46 35.6575 46 34C46 32.3425 47.3425 31 49 31C50.6575 31 52 32.3425 52 34Z" fill="#815EFD"/>
<path fill-rule="evenodd" clip-rule="evenodd" d="M6 49C6 50.6575 4.6575 52 3 52C1.3425 52 0 50.6575 0 49C0 47.3425 1.3425 46 3 46C4.6575 46 6 47.3425 6 49Z" fill="#815EFD"/>
<path fill-rule="evenodd" clip-rule="evenodd" d="M21 49C21 50.6575 19.6575 52 18 52C16.3425 52 15 50.6575 15 49C15 47.3425 16.3425 46 18 46C19.6575 46 21 47.3425 21 49Z" fill="#815EFD"/>
<path fill-rule="evenodd" clip-rule="evenodd" d="M36 49C36 50.6575 34.6575 52 33 52C31.3425 52 30 50.6575 30 49C30 47.3425 31.3425 46 33 46C34.6575 46 36 47.3425 36 49Z" fill="#815EFD"/>
<path fill-rule="evenodd" clip-rule="evenodd" d="M52 49C52 50.6575 50.6575 52 49 52C47.3425 52 46 50.6575 46 49C46 47.3425 47.3425 46 49 46C50.6575 46 52 47.3425 52 49Z" fill="#815EFD"/>
<path fill-rule="evenodd" clip-rule="evenodd" d="M6 65C6 66.6575 4.6575 68 3 68C1.3425 68 0 66.6575 0 65C0 63.3425 1.3425 62 3 62C4.6575 62 6 63.3425 6 65Z" fill="#815EFD"/>
<path fill-rule="evenodd" clip-rule="evenodd" d="M21 65C21 66.6575 19.6575 68 18 68C16.3425 68 15 66.6575 15 65C15 63.3425 16.3425 62 18 62C19.6575 62 21 63.3425 21 65Z" fill="#815EFD"/>
<path fill-rule="evenodd" clip-rule="evenodd" d="M36 65C36 66.6575 34.6575 68 33 68C31.3425 68 30 66.6575 30 65C30 63.3425 31.3425 62 33 62C34.6575 62 36 63.3425 36 65Z" fill="#815EFD"/>
<path fill-rule="evenodd" clip-rule="evenodd" d="M52 65C52 66.6575 50.6575 68 49 68C47.3425 68 46 66.6575 46 65C46 63.3425 47.3425 62 49 62C50.6575 62 52 63.3425 52 65Z" fill="#815EFD"/>
<path fill-rule="evenodd" clip-rule="evenodd" d="M6 80C6 81.6575 4.6575 83 3 83C1.3425 83 0 81.6575 0 80C0 78.3425 1.3425 77 3 77C4.6575 77 6 78.3425 6 80Z" fill="#815EFD"/>
<path fill-rule="evenodd" clip-rule="evenodd" d="M21 80C21 81.6575 19.6575 83 18 83C16.3425 83 15 81.6575 15 80C15 78.3425 16.3425 77 18 77C19.6575 77 21 78.3425 21 80Z" fill="#815EFD"/>
<path fill-rule="evenodd" clip-rule="evenodd" d="M36 80C36 81.6575 34.6575 83 33 83C31.3425 83 30 81.6575 30 80C30 78.3425 31.3425 77 33 77C34.6575 77 36 78.3425 36 80Z" fill="#815EFD"/>
<path fill-rule="evenodd" clip-rule="evenodd" d="M52 80C52 81.6575 50.6575 83 49 83C47.3425 83 46 81.6575 46 80C46 78.3425 47.3425 77 49 77C50.6575 77 52 78.3425 52 80Z" fill="#815EFD"/>
<path fill-rule="evenodd" clip-rule="evenodd" d="M6 96C6 97.6575 4.6575 99 3 99C1.3425 99 0 97.6575 0 96C0 94.3425 1.3425 93 3 93C4.6575 93 6 94.3425 6 96Z" fill="#815EFD"/>
<path fill-rule="evenodd" clip-rule="evenodd" d="M21 96C21 97.6575 19.6575 99 18 99C16.3425 99 15 97.6575 15 96C15 94.3425 16.3425 93 18 93C19.6575 93 21 94.3425 21 96Z" fill="#815EFD"/>
<path fill-rule="evenodd" clip-rule="evenodd" d="M36 96C36 97.6575 34.6575 99 33 99C31.3425 99 30 97.6575 30 96C30 94.3425 31.3425 93 33 93C34.6575 93 36 94.3425 36 96Z" fill="#815EFD"/>
<path fill-rule="evenodd" clip-rule="evenodd" d="M52 96C52 97.6575 50.6575 99 49 99C47.3425 99 46 97.6575 46 96C46 94.3425 47.3425 93 49 93C50.6575 93 52 94.3425 52 96Z" fill="#815EFD"/>
<path fill-rule="evenodd" clip-rule="evenodd" d="M6 111C6 112.658 4.6575 114 3 114C1.3425 114 0 112.658 0 111C0 109.342 1.3425 108 3 108C4.6575 108 6 109.342 6 111Z" fill="#815EFD"/>
<path fill-rule="evenodd" clip-rule="evenodd" d="M21 111C21 112.658 19.6575 114 18 114C16.3425 114 15 112.658 15 111C15 109.342 16.3425 108 18 108C19.6575 108 21 109.342 21 111Z" fill="#815EFD"/>
<path fill-rule="evenodd" clip-rule="evenodd" d="M36 111C36 112.658 34.6575 114 33 114C31.3425 114 30 112.658 30 111C30 109.342 31.3425 108 33 108C34.6575 108 36 109.342 36 111Z" fill="#815EFD"/>
<path fill-rule="evenodd" clip-rule="evenodd" d="M52 111C52 112.658 50.6575 114 49 114C47.3425 114 46 112.658 46 111C46 109.342 47.3425 108 49 108C50.6575 108 52 109.342 52 111Z" fill="#815EFD"/>
<path fill-rule="evenodd" clip-rule="evenodd" d="M6 126C6 127.658 4.6575 129 3 129C1.3425 129 0 127.658 0 126C0 124.342 1.3425 123 3 123C4.6575 123 6 124.342 6 126Z" fill="#815EFD"/>
<path fill-rule="evenodd" clip-rule="evenodd" d="M21 126C21 127.658 19.6575 129 18 129C16.3425 129 15 127.658 15 126C15 124.342 16.3425 123 18 123C19.6575 123 21 124.342 21 126Z" fill="#815EFD"/>
<path fill-rule="evenodd" clip-rule="evenodd" d="M36 126C36 127.658 34.6575 129 33 129C31.3425 129 30 127.658 30 126C30 124.342 31.3425 123 33 123C34.6575 123 36 124.342 36 126Z" fill="#815EFD"/>
<path fill-rule="evenodd" clip-rule="evenodd" d="M52 126C52 127.658 50.6575 129 49 129C47.3425 129 46 127.658 46 126C46 124.342 47.3425 123 49 123C50.6575 123 52 124.342 52 126Z" fill="#815EFD"/>
<path fill-rule="evenodd" clip-rule="evenodd" d="M6 142C6 143.658 4.6575 145 3 145C1.3425 145 0 143.658 0 142C0 140.342 1.3425 139 3 139C4.6575 139 6 140.342 6 142Z" fill="#815EFD"/>
<path fill-rule="evenodd" clip-rule="evenodd" d="M21 142C21 143.658 19.6575 145 18 145C16.3425 145 15 143.658 15 142C15 140.342 16.3425 139 18 139C19.6575 139 21 140.342 21 142Z" fill="#815EFD"/>
<path fill-rule="evenodd" clip-rule="evenodd" d="M36 142C36 143.658 34.6575 145 33 145C31.3425 145 30 143.658 30 142C30 140.342 31.3425 139 33 139C34.6575 139 36 140.342 36 142Z" fill="#815EFD"/>
<path fill-rule="evenodd" clip-rule="evenodd" d="M52 142C52 143.658 50.6575 145 49 145C47.3425 145 46 143.658 46 142C46 140.342 47.3425 139 49 139C50.6575 139 52 140.342 52 142Z" fill="#815EFD"/>
<path fill-rule="evenodd" clip-rule="evenodd" d="M6 157C6 158.658 4.6575 160 3 160C1.3425 160 0 158.658 0 157C0 155.342 1.3425 154 3 154C4.6575 154 6 155.342 6 157Z" fill="#815EFD"/>
<path fill-rule="evenodd" clip-rule="evenodd" d="M21 157C21 158.658 19.6575 160 18 160C16.3425 160 15 158.658 15 157C15 155.342 16.3425 154 18 154C19.6575 154 21 155.342 21 157Z" fill="#815EFD"/>
<path fill-rule="evenodd" clip-rule="evenodd" d="M36 157C36 158.658 34.6575 160 33 160C31.3425 160 30 158.658 30 157C30 155.342 31.3425 154 33 154C34.6575 154 36 155.342 36 157Z" fill="#815EFD"/>
<path fill-rule="evenodd" clip-rule="evenodd" d="M52 157C52 158.658 50.6575 160 49 160C47.3425 160 46 158.658 46 157C46 155.342 47.3425 154 49 154C50.6575 154 52 155.342 52 157Z" fill="#815EFD"/>
<path fill-rule="evenodd" clip-rule="evenodd" d="M6 173C6 174.658 4.6575 176 3 176C1.3425 176 0 174.658 0 173C0 171.342 1.3425 170 3 170C4.6575 170 6 171.342 6 173Z" fill="#815EFD"/>
<path fill-rule="evenodd" clip-rule="evenodd" d="M21 173C21 174.658 19.6575 176 18 176C16.3425 176 15 174.658 15 173C15 171.342 16.3425 170 18 170C19.6575 170 21 171.342 21 173Z" fill="#815EFD"/>
<path fill-rule="evenodd" clip-rule="evenodd" d="M36 173C36 174.658 34.6575 176 33 176C31.3425 176 30 174.658 30 173C30 171.342 31.3425 170 33 170C34.6575 170 36 171.342 36 173Z" fill="#815EFD"/>
<path fill-rule="evenodd" clip-rule="evenodd" d="M52 173C52 174.658 50.6575 176 49 176C47.3425 176 46 174.658 46 173C46 171.342 47.3425 170 49 170C50.6575 170 52 171.342 52 173Z" fill="#815EFD"/>
<path fill-rule="evenodd" clip-rule="evenodd" d="M6 188C6 189.658 4.6575 191 3 191C1.3425 191 0 189.658 0 188C0 186.342 1.3425 185 3 185C4.6575 185 6 186.342 6 188Z" fill="#815EFD"/>
<path fill-rule="evenodd" clip-rule="evenodd" d="M21 188C21 189.658 19.6575 191 18 191C16.3425 191 15 189.658 15 188C15 186.342 16.3425 185 18 185C19.6575 185 21 186.342 21 188Z" fill="#815EFD"/>
<path fill-rule="evenodd" clip-rule="evenodd" d="M36 188C36 189.658 34.6575 191 33 191C31.3425 191 30 189.658 30 188C30 186.342 31.3425 185 33 185C34.6575 185 36 186.342 36 188Z" fill="#815EFD"/>
<path fill-rule="evenodd" clip-rule="evenodd" d="M52 188C52 189.658 50.6575 191 49 191C47.3425 191 46 189.658 46 188C46 186.342 47.3425 185 49 185C50.6575 185 52 186.342 52 188Z" fill="#815EFD"/>
<path fill-rule="evenodd" clip-rule="evenodd" d="M6 3C6 4.6575 4.6575 6 3 6C1.3425 6 0 4.6575 0 3C0 1.3425 1.3425 0 3 0C4.6575 0 6 1.3425 6 3Z" fill="#815EFD"/>
<path fill-rule="evenodd" clip-rule="evenodd" d="M21 3C21 4.6575 19.6575 6 18 6C16.3425 6 15 4.6575 15 3C15 1.3425 16.3425 0 18 0C19.6575 0 21 1.3425 21 3Z" fill="#815EFD"/>
<path fill-rule="evenodd" clip-rule="evenodd" d="M36 3C36 4.6575 34.6575 6 33 6C31.3425 6 30 4.6575 30 3C30 1.3425 31.3425 0 33 0C34.6575 0 36 1.3425 36 3Z" fill="#815EFD"/>
<path fill-rule="evenodd" clip-rule="evenodd" d="M52 3C52 4.6575 50.6575 6 49 6C47.3425 6 46 4.6575 46 3C46 1.3425 47.3425 0 49 0C50.6575 0 52 1.3425 52 3Z" fill="#815EFD"/>
<path fill-rule="evenodd" clip-rule="evenodd" d="M67 18C67 19.6575 65.6575 21 64 21C62.3425 21 61 19.6575 61 18C61 16.3425 62.3425 15 64 15C65.6575 15 67 16.3425 67 18Z" fill="#815EFD"/>
<path fill-rule="evenodd" clip-rule="evenodd" d="M82 18C82 19.6575 80.6575 21 79 21C77.3425 21 76 19.6575 76 18C76 16.3425 77.3425 15 79 15C80.6575 15 82 16.3425 82 18Z" fill="#815EFD"/>
<path fill-rule="evenodd" clip-rule="evenodd" d="M97 18C97 19.6575 95.6575 21 94 21C92.3425 21 91 19.6575 91 18C91 16.3425 92.3425 15 94 15C95.6575 15 97 16.3425 97 18Z" fill="#815EFD"/>
<path fill-rule="evenodd" clip-rule="evenodd" d="M113 18C113 19.6575 111.658 21 110 21C108.342 21 107 19.6575 107 18C107 16.3425 108.342 15 110 15C111.658 15 113 16.3425 113 18Z" fill="#815EFD"/>
<path fill-rule="evenodd" clip-rule="evenodd" d="M67 34C67 35.6575 65.6575 37 64 37C62.3425 37 61 35.6575 61 34C61 32.3425 62.3425 31 64 31C65.6575 31 67 32.3425 67 34Z" fill="#815EFD"/>
<path fill-rule="evenodd" clip-rule="evenodd" d="M82 34C82 35.6575 80.6575 37 79 37C77.3425 37 76 35.6575 76 34C76 32.3425 77.3425 31 79 31C80.6575 31 82 32.3425 82 34Z" fill="#815EFD"/>
<path fill-rule="evenodd" clip-rule="evenodd" d="M97 34C97 35.6575 95.6575 37 94 37C92.3425 37 91 35.6575 91 34C91 32.3425 92.3425 31 94 31C95.6575 31 97 32.3425 97 34Z" fill="#815EFD"/>
<path fill-rule="evenodd" clip-rule="evenodd" d="M113 34C113 35.6575 111.658 37 110 37C108.342 37 107 35.6575 107 34C107 32.3425 108.342 31 110 31C111.658 31 113 32.3425 113 34Z" fill="#815EFD"/>
<path fill-rule="evenodd" clip-rule="evenodd" d="M67 49C67 50.6575 65.6575 52 64 52C62.3425 52 61 50.6575 61 49C61 47.3425 62.3425 46 64 46C65.6575 46 67 47.3425 67 49Z" fill="#815EFD"/>
<path fill-rule="evenodd" clip-rule="evenodd" d="M82 49C82 50.6575 80.6575 52 79 52C77.3425 52 76 50.6575 76 49C76 47.3425 77.3425 46 79 46C80.6575 46 82 47.3425 82 49Z" fill="#815EFD"/>
<path fill-rule="evenodd" clip-rule="evenodd" d="M97 49C97 50.6575 95.6575 52 94 52C92.3425 52 91 50.6575 91 49C91 47.3425 92.3425 46 94 46C95.6575 46 97 47.3425 97 49Z" fill="#815EFD"/>
<path fill-rule="evenodd" clip-rule="evenodd" d="M113 49C113 50.6575 111.658 52 110 52C108.342 52 107 50.6575 107 49C107 47.3425 108.342 46 110 46C111.658 46 113 47.3425 113 49Z" fill="#815EFD"/>
<path fill-rule="evenodd" clip-rule="evenodd" d="M67 65C67 66.6575 65.6575 68 64 68C62.3425 68 61 66.6575 61 65C61 63.3425 62.3425 62 64 62C65.6575 62 67 63.3425 67 65Z" fill="#815EFD"/>
<path fill-rule="evenodd" clip-rule="evenodd" d="M82 65C82 66.6575 80.6575 68 79 68C77.3425 68 76 66.6575 76 65C76 63.3425 77.3425 62 79 62C80.6575 62 82 63.3425 82 65Z" fill="#815EFD"/>
<path fill-rule="evenodd" clip-rule="evenodd" d="M97 65C97 66.6575 95.6575 68 94 68C92.3425 68 91 66.6575 91 65C91 63.3425 92.3425 62 94 62C95.6575 62 97 63.3425 97 65Z" fill="#815EFD"/>
<path fill-rule="evenodd" clip-rule="evenodd" d="M113 65C113 66.6575 111.658 68 110 68C108.342 68 107 66.6575 107 65C107 63.3425 108.342 62 110 62C111.658 62 113 63.3425 113 65Z" fill="#815EFD"/>
<path fill-rule="evenodd" clip-rule="evenodd" d="M67 80C67 81.6575 65.6575 83 64 83C62.3425 83 61 81.6575 61 80C61 78.3425 62.3425 77 64 77C65.6575 77 67 78.3425 67 80Z" fill="#815EFD"/>
<path fill-rule="evenodd" clip-rule="evenodd" d="M82 80C82 81.6575 80.6575 83 79 83C77.3425 83 76 81.6575 76 80C76 78.3425 77.3425 77 79 77C80.6575 77 82 78.3425 82 80Z" fill="#815EFD"/>
<path fill-rule="evenodd" clip-rule="evenodd" d="M97 80C97 81.6575 95.6575 83 94 83C92.3425 83 91 81.6575 91 80C91 78.3425 92.3425 77 94 77C95.6575 77 97 78.3425 97 80Z" fill="#815EFD"/>
<path fill-rule="evenodd" clip-rule="evenodd" d="M113 80C113 81.6575 111.658 83 110 83C108.342 83 107 81.6575 107 80C107 78.3425 108.342 77 110 77C111.658 77 113 78.3425 113 80Z" fill="#815EFD"/>
<path fill-rule="evenodd" clip-rule="evenodd" d="M67 96C67 97.6575 65.6575 99 64 99C62.3425 99 61 97.6575 61 96C61 94.3425 62.3425 93 64 93C65.6575 93 67 94.3425 67 96Z" fill="#815EFD"/>
<path fill-rule="evenodd" clip-rule="evenodd" d="M82 96C82 97.6575 80.6575 99 79 99C77.3425 99 76 97.6575 76 96C76 94.3425 77.3425 93 79 93C80.6575 93 82 94.3425 82 96Z" fill="#815EFD"/>
<path fill-rule="evenodd" clip-rule="evenodd" d="M97 96C97 97.6575 95.6575 99 94 99C92.3425 99 91 97.6575 91 96C91 94.3425 92.3425 93 94 93C95.6575 93 97 94.3425 97 96Z" fill="#815EFD"/>
<path fill-rule="evenodd" clip-rule="evenodd" d="M113 96C113 97.6575 111.658 99 110 99C108.342 99 107 97.6575 107 96C107 94.3425 108.342 93 110 93C111.658 93 113 94.3425 113 96Z" fill="#815EFD"/>
<path fill-rule="evenodd" clip-rule="evenodd" d="M67 111C67 112.658 65.6575 114 64 114C62.3425 114 61 112.658 61 111C61 109.342 62.3425 108 64 108C65.6575 108 67 109.342 67 111Z" fill="#815EFD"/>
<path fill-rule="evenodd" clip-rule="evenodd" d="M82 111C82 112.658 80.6575 114 79 114C77.3425 114 76 112.658 76 111C76 109.342 77.3425 108 79 108C80.6575 108 82 109.342 82 111Z" fill="#815EFD"/>
<path fill-rule="evenodd" clip-rule="evenodd" d="M97 111C97 112.658 95.6575 114 94 114C92.3425 114 91 112.658 91 111C91 109.342 92.3425 108 94 108C95.6575 108 97 109.342 97 111Z" fill="#815EFD"/>
<path fill-rule="evenodd" clip-rule="evenodd" d="M113 111C113 112.658 111.658 114 110 114C108.342 114 107 112.658 107 111C107 109.342 108.342 108 110 108C111.658 108 113 109.342 113 111Z" fill="#815EFD"/>
<path fill-rule="evenodd" clip-rule="evenodd" d="M67 126C67 127.658 65.6575 129 64 129C62.3425 129 61 127.658 61 126C61 124.342 62.3425 123 64 123C65.6575 123 67 124.342 67 126Z" fill="#815EFD"/>
<path fill-rule="evenodd" clip-rule="evenodd" d="M82 126C82 127.658 80.6575 129 79 129C77.3425 129 76 127.658 76 126C76 124.342 77.3425 123 79 123C80.6575 123 82 124.342 82 126Z" fill="#815EFD"/>
<path fill-rule="evenodd" clip-rule="evenodd" d="M97 126C97 127.658 95.6575 129 94 129C92.3425 129 91 127.658 91 126C91 124.342 92.3425 123 94 123C95.6575 123 97 124.342 97 126Z" fill="#815EFD"/>
<path fill-rule="evenodd" clip-rule="evenodd" d="M113 126C113 127.658 111.658 129 110 129C108.342 129 107 127.658 107 126C107 124.342 108.342 123 110 123C111.658 123 113 124.342 113 126Z" fill="#815EFD"/>
<path fill-rule="evenodd" clip-rule="evenodd" d="M67 142C67 143.658 65.6575 145 64 145C62.3425 145 61 143.658 61 142C61 140.342 62.3425 139 64 139C65.6575 139 67 140.342 67 142Z" fill="#815EFD"/>
<path fill-rule="evenodd" clip-rule="evenodd" d="M82 142C82 143.658 80.6575 145 79 145C77.3425 145 76 143.658 76 142C76 140.342 77.3425 139 79 139C80.6575 139 82 140.342 82 142Z" fill="#815EFD"/>
<path fill-rule="evenodd" clip-rule="evenodd" d="M97 142C97 143.658 95.6575 145 94 145C92.3425 145 91 143.658 91 142C91 140.342 92.3425 139 94 139C95.6575 139 97 140.342 97 142Z" fill="#815EFD"/>
<path fill-rule="evenodd" clip-rule="evenodd" d="M113 142C113 143.658 111.658 145 110 145C108.342 145 107 143.658 107 142C107 140.342 108.342 139 110 139C111.658 139 113 140.342 113 142Z" fill="#815EFD"/>
<path fill-rule="evenodd" clip-rule="evenodd" d="M67 157C67 158.658 65.6575 160 64 160C62.3425 160 61 158.658 61 157C61 155.342 62.3425 154 64 154C65.6575 154 67 155.342 67 157Z" fill="#815EFD"/>
<path fill-rule="evenodd" clip-rule="evenodd" d="M82 157C82 158.658 80.6575 160 79 160C77.3425 160 76 158.658 76 157C76 155.342 77.3425 154 79 154C80.6575 154 82 155.342 82 157Z" fill="#815EFD"/>
<path fill-rule="evenodd" clip-rule="evenodd" d="M97 157C97 158.658 95.6575 160 94 160C92.3425 160 91 158.658 91 157C91 155.342 92.3425 154 94 154C95.6575 154 97 155.342 97 157Z" fill="#815EFD"/>
<path fill-rule="evenodd" clip-rule="evenodd" d="M113 157C113 158.658 111.658 160 110 160C108.342 160 107 158.658 107 157C107 155.342 108.342 154 110 154C111.658 154 113 155.342 113 157Z" fill="#815EFD"/>
<path fill-rule="evenodd" clip-rule="evenodd" d="M67 173C67 174.658 65.6575 176 64 176C62.3425 176 61 174.658 61 173C61 171.342 62.3425 170 64 170C65.6575 170 67 171.342 67 173Z" fill="#815EFD"/>
<path fill-rule="evenodd" clip-rule="evenodd" d="M82 173C82 174.658 80.6575 176 79 176C77.3425 176 76 174.658 76 173C76 171.342 77.3425 170 79 170C80.6575 170 82 171.342 82 173Z" fill="#815EFD"/>
<path fill-rule="evenodd" clip-rule="evenodd" d="M97 173C97 174.658 95.6575 176 94 176C92.3425 176 91 174.658 91 173C91 171.342 92.3425 170 94 170C95.6575 170 97 171.342 97 173Z" fill="#815EFD"/>
<path fill-rule="evenodd" clip-rule="evenodd" d="M113 173C113 174.658 111.658 176 110 176C108.342 176 107 174.658 107 173C107 171.342 108.342 170 110 170C111.658 170 113 171.342 113 173Z" fill="#815EFD"/>
<path fill-rule="evenodd" clip-rule="evenodd" d="M67 188C67 189.658 65.6575 191 64 191C62.3425 191 61 189.658 61 188C61 186.342 62.3425 185 64 185C65.6575 185 67 186.342 67 188Z" fill="#815EFD"/>
<path fill-rule="evenodd" clip-rule="evenodd" d="M82 188C82 189.658 80.6575 191 79 191C77.3425 191 76 189.658 76 188C76 186.342 77.3425 185 79 185C80.6575 185 82 186.342 82 188Z" fill="#815EFD"/>
<path fill-rule="evenodd" clip-rule="evenodd" d="M97 188C97 189.658 95.6575 191 94 191C92.3425 191 91 189.658 91 188C91 186.342 92.3425 185 94 185C95.6575 185 97 186.342 97 188Z" fill="#815EFD"/>
<path fill-rule="evenodd" clip-rule="evenodd" d="M113 188C113 189.658 111.658 191 110 191C108.342 191 107 189.658 107 188C107 186.342 108.342 185 110 185C111.658 185 113 186.342 113 188Z" fill="#815EFD"/>
<path fill-rule="evenodd" clip-rule="evenodd" d="M67 3C67 4.6575 65.6575 6 64 6C62.3425 6 61 4.6575 61 3C61 1.3425 62.3425 0 64 0C65.6575 0 67 1.3425 67 3Z" fill="#815EFD"/>
<path fill-rule="evenodd" clip-rule="evenodd" d="M82 3C82 4.6575 80.6575 6 79 6C77.3425 6 76 4.6575 76 3C76 1.3425 77.3425 0 79 0C80.6575 0 82 1.3425 82 3Z" fill="#815EFD"/>
<path fill-rule="evenodd" clip-rule="evenodd" d="M97 3C97 4.6575 95.6575 6 94 6C92.3425 6 91 4.6575 91 3C91 1.3425 92.3425 0 94 0C95.6575 0 97 1.3425 97 3Z" fill="#815EFD"/>
<path fill-rule="evenodd" clip-rule="evenodd" d="M113 3C113 4.6575 111.658 6 110 6C108.342 6 107 4.6575 107 3C107 1.3425 108.342 0 110 0C111.658 0 113 1.3425 113 3Z" fill="#815EFD"/>
<path fill-rule="evenodd" clip-rule="evenodd" d="M128 18C128 19.6575 126.658 21 125 21C123.342 21 122 19.6575 122 18C122 16.3425 123.342 15 125 15C126.658 15 128 16.3425 128 18Z" fill="#815EFD"/>
<path fill-rule="evenodd" clip-rule="evenodd" d="M143 18C143 19.6575 141.658 21 140 21C138.342 21 137 19.6575 137 18C137 16.3425 138.342 15 140 15C141.658 15 143 16.3425 143 18Z" fill="#815EFD"/>
<path fill-rule="evenodd" clip-rule="evenodd" d="M158 18C158 19.6575 156.658 21 155 21C153.342 21 152 19.6575 152 18C152 16.3425 153.342 15 155 15C156.658 15 158 16.3425 158 18Z" fill="#815EFD"/>
<path fill-rule="evenodd" clip-rule="evenodd" d="M174 18C174 19.6575 172.658 21 171 21C169.342 21 168 19.6575 168 18C168 16.3425 169.342 15 171 15C172.658 15 174 16.3425 174 18Z" fill="#815EFD"/>
<path fill-rule="evenodd" clip-rule="evenodd" d="M128 34C128 35.6575 126.658 37 125 37C123.342 37 122 35.6575 122 34C122 32.3425 123.342 31 125 31C126.658 31 128 32.3425 128 34Z" fill="#815EFD"/>
<path fill-rule="evenodd" clip-rule="evenodd" d="M143 34C143 35.6575 141.658 37 140 37C138.342 37 137 35.6575 137 34C137 32.3425 138.342 31 140 31C141.658 31 143 32.3425 143 34Z" fill="#815EFD"/>
<path fill-rule="evenodd" clip-rule="evenodd" d="M158 34C158 35.6575 156.658 37 155 37C153.342 37 152 35.6575 152 34C152 32.3425 153.342 31 155 31C156.658 31 158 32.3425 158 34Z" fill="#815EFD"/>
<path fill-rule="evenodd" clip-rule="evenodd" d="M174 34C174 35.6575 172.658 37 171 37C169.342 37 168 35.6575 168 34C168 32.3425 169.342 31 171 31C172.658 31 174 32.3425 174 34Z" fill="#815EFD"/>
<path fill-rule="evenodd" clip-rule="evenodd" d="M128 49C128 50.6575 126.658 52 125 52C123.342 52 122 50.6575 122 49C122 47.3425 123.342 46 125 46C126.658 46 128 47.3425 128 49Z" fill="#815EFD"/>
<path fill-rule="evenodd" clip-rule="evenodd" d="M143 49C143 50.6575 141.658 52 140 52C138.342 52 137 50.6575 137 49C137 47.3425 138.342 46 140 46C141.658 46 143 47.3425 143 49Z" fill="#815EFD"/>
<path fill-rule="evenodd" clip-rule="evenodd" d="M158 49C158 50.6575 156.658 52 155 52C153.342 52 152 50.6575 152 49C152 47.3425 153.342 46 155 46C156.658 46 158 47.3425 158 49Z" fill="#815EFD"/>
<path fill-rule="evenodd" clip-rule="evenodd" d="M174 49C174 50.6575 172.658 52 171 52C169.342 52 168 50.6575 168 49C168 47.3425 169.342 46 171 46C172.658 46 174 47.3425 174 49Z" fill="#815EFD"/>
<path fill-rule="evenodd" clip-rule="evenodd" d="M128 65C128 66.6575 126.658 68 125 68C123.342 68 122 66.6575 122 65C122 63.3425 123.342 62 125 62C126.658 62 128 63.3425 128 65Z" fill="#815EFD"/>
<path fill-rule="evenodd" clip-rule="evenodd" d="M143 65C143 66.6575 141.658 68 140 68C138.342 68 137 66.6575 137 65C137 63.3425 138.342 62 140 62C141.658 62 143 63.3425 143 65Z" fill="#815EFD"/>
<path fill-rule="evenodd" clip-rule="evenodd" d="M158 65C158 66.6575 156.658 68 155 68C153.342 68 152 66.6575 152 65C152 63.3425 153.342 62 155 62C156.658 62 158 63.3425 158 65Z" fill="#815EFD"/>
<path fill-rule="evenodd" clip-rule="evenodd" d="M174 65C174 66.6575 172.658 68 171 68C169.342 68 168 66.6575 168 65C168 63.3425 169.342 62 171 62C172.658 62 174 63.3425 174 65Z" fill="#815EFD"/>
<path fill-rule="evenodd" clip-rule="evenodd" d="M128 80C128 81.6575 126.658 83 125 83C123.342 83 122 81.6575 122 80C122 78.3425 123.342 77 125 77C126.658 77 128 78.3425 128 80Z" fill="#815EFD"/>
<path fill-rule="evenodd" clip-rule="evenodd" d="M143 80C143 81.6575 141.658 83 140 83C138.342 83 137 81.6575 137 80C137 78.3425 138.342 77 140 77C141.658 77 143 78.3425 143 80Z" fill="#815EFD"/>
<path fill-rule="evenodd" clip-rule="evenodd" d="M158 80C158 81.6575 156.658 83 155 83C153.342 83 152 81.6575 152 80C152 78.3425 153.342 77 155 77C156.658 77 158 78.3425 158 80Z" fill="#815EFD"/>
<path fill-rule="evenodd" clip-rule="evenodd" d="M174 80C174 81.6575 172.658 83 171 83C169.342 83 168 81.6575 168 80C168 78.3425 169.342 77 171 77C172.658 77 174 78.3425 174 80Z" fill="#815EFD"/>
<path fill-rule="evenodd" clip-rule="evenodd" d="M128 96C128 97.6575 126.658 99 125 99C123.342 99 122 97.6575 122 96C122 94.3425 123.342 93 125 93C126.658 93 128 94.3425 128 96Z" fill="#815EFD"/>
<path fill-rule="evenodd" clip-rule="evenodd" d="M143 96C143 97.6575 141.658 99 140 99C138.342 99 137 97.6575 137 96C137 94.3425 138.342 93 140 93C141.658 93 143 94.3425 143 96Z" fill="#815EFD"/>
<path fill-rule="evenodd" clip-rule="evenodd" d="M158 96C158 97.6575 156.658 99 155 99C153.342 99 152 97.6575 152 96C152 94.3425 153.342 93 155 93C156.658 93 158 94.3425 158 96Z" fill="#815EFD"/>
<path fill-rule="evenodd" clip-rule="evenodd" d="M174 96C174 97.6575 172.658 99 171 99C169.342 99 168 97.6575 168 96C168 94.3425 169.342 93 171 93C172.658 93 174 94.3425 174 96Z" fill="#815EFD"/>
<path fill-rule="evenodd" clip-rule="evenodd" d="M128 111C128 112.658 126.658 114 125 114C123.342 114 122 112.658 122 111C122 109.342 123.342 108 125 108C126.658 108 128 109.342 128 111Z" fill="#815EFD"/>
<path fill-rule="evenodd" clip-rule="evenodd" d="M143 111C143 112.658 141.658 114 140 114C138.342 114 137 112.658 137 111C137 109.342 138.342 108 140 108C141.658 108 143 109.342 143 111Z" fill="#815EFD"/>
<path fill-rule="evenodd" clip-rule="evenodd" d="M158 111C158 112.658 156.658 114 155 114C153.342 114 152 112.658 152 111C152 109.342 153.342 108 155 108C156.658 108 158 109.342 158 111Z" fill="#815EFD"/>
<path fill-rule="evenodd" clip-rule="evenodd" d="M174 111C174 112.658 172.658 114 171 114C169.342 114 168 112.658 168 111C168 109.342 169.342 108 171 108C172.658 108 174 109.342 174 111Z" fill="#815EFD"/>
<path fill-rule="evenodd" clip-rule="evenodd" d="M128 126C128 127.658 126.658 129 125 129C123.342 129 122 127.658 122 126C122 124.342 123.342 123 125 123C126.658 123 128 124.342 128 126Z" fill="#815EFD"/>
<path fill-rule="evenodd" clip-rule="evenodd" d="M143 126C143 127.658 141.658 129 140 129C138.342 129 137 127.658 137 126C137 124.342 138.342 123 140 123C141.658 123 143 124.342 143 126Z" fill="#815EFD"/>
<path fill-rule="evenodd" clip-rule="evenodd" d="M158 126C158 127.658 156.658 129 155 129C153.342 129 152 127.658 152 126C152 124.342 153.342 123 155 123C156.658 123 158 124.342 158 126Z" fill="#815EFD"/>
<path fill-rule="evenodd" clip-rule="evenodd" d="M174 126C174 127.658 172.658 129 171 129C169.342 129 168 127.658 168 126C168 124.342 169.342 123 171 123C172.658 123 174 124.342 174 126Z" fill="#815EFD"/>
<path fill-rule="evenodd" clip-rule="evenodd" d="M128 142C128 143.658 126.658 145 125 145C123.342 145 122 143.658 122 142C122 140.342 123.342 139 125 139C126.658 139 128 140.342 128 142Z" fill="#815EFD"/>
<path fill-rule="evenodd" clip-rule="evenodd" d="M143 142C143 143.658 141.658 145 140 145C138.342 145 137 143.658 137 142C137 140.342 138.342 139 140 139C141.658 139 143 140.342 143 142Z" fill="#815EFD"/>
<path fill-rule="evenodd" clip-rule="evenodd" d="M158 142C158 143.658 156.658 145 155 145C153.342 145 152 143.658 152 142C152 140.342 153.342 139 155 139C156.658 139 158 140.342 158 142Z" fill="#815EFD"/>
<path fill-rule="evenodd" clip-rule="evenodd" d="M174 142C174 143.658 172.658 145 171 145C169.342 145 168 143.658 168 142C168 140.342 169.342 139 171 139C172.658 139 174 140.342 174 142Z" fill="#815EFD"/>
<path fill-rule="evenodd" clip-rule="evenodd" d="M128 157C128 158.658 126.658 160 125 160C123.342 160 122 158.658 122 157C122 155.342 123.342 154 125 154C126.658 154 128 155.342 128 157Z" fill="#815EFD"/>
<path fill-rule="evenodd" clip-rule="evenodd" d="M143 157C143 158.658 141.658 160 140 160C138.342 160 137 158.658 137 157C137 155.342 138.342 154 140 154C141.658 154 143 155.342 143 157Z" fill="#815EFD"/>
<path fill-rule="evenodd" clip-rule="evenodd" d="M158 157C158 158.658 156.658 160 155 160C153.342 160 152 158.658 152 157C152 155.342 153.342 154 155 154C156.658 154 158 155.342 158 157Z" fill="#815EFD"/>
<path fill-rule="evenodd" clip-rule="evenodd" d="M174 157C174 158.658 172.658 160 171 160C169.342 160 168 158.658 168 157C168 155.342 169.342 154 171 154C172.658 154 174 155.342 174 157Z" fill="#815EFD"/>
<path fill-rule="evenodd" clip-rule="evenodd" d="M128 173C128 174.658 126.658 176 125 176C123.342 176 122 174.658 122 173C122 171.342 123.342 170 125 170C126.658 170 128 171.342 128 173Z" fill="#815EFD"/>
<path fill-rule="evenodd" clip-rule="evenodd" d="M143 173C143 174.658 141.658 176 140 176C138.342 176 137 174.658 137 173C137 171.342 138.342 170 140 170C141.658 170 143 171.342 143 173Z" fill="#815EFD"/>
<path fill-rule="evenodd" clip-rule="evenodd" d="M158 173C158 174.658 156.658 176 155 176C153.342 176 152 174.658 152 173C152 171.342 153.342 170 155 170C156.658 170 158 171.342 158 173Z" fill="#815EFD"/>
<path fill-rule="evenodd" clip-rule="evenodd" d="M174 173C174 174.658 172.658 176 171 176C169.342 176 168 174.658 168 173C168 171.342 169.342 170 171 170C172.658 170 174 171.342 174 173Z" fill="#815EFD"/>
<path fill-rule="evenodd" clip-rule="evenodd" d="M128 188C128 189.658 126.658 191 125 191C123.342 191 122 189.658 122 188C122 186.342 123.342 185 125 185C126.658 185 128 186.342 128 188Z" fill="#815EFD"/>
<path fill-rule="evenodd" clip-rule="evenodd" d="M143 188C143 189.658 141.658 191 140 191C138.342 191 137 189.658 137 188C137 186.342 138.342 185 140 185C141.658 185 143 186.342 143 188Z" fill="#815EFD"/>
<path fill-rule="evenodd" clip-rule="evenodd" d="M158 188C158 189.658 156.658 191 155 191C153.342 191 152 189.658 152 188C152 186.342 153.342 185 155 185C156.658 185 158 186.342 158 188Z" fill="#815EFD"/>
<path fill-rule="evenodd" clip-rule="evenodd" d="M174 188C174 189.658 172.658 191 171 191C169.342 191 168 189.658 168 188C168 186.342 169.342 185 171 185C172.658 185 174 186.342 174 188Z" fill="#815EFD"/>
<path fill-rule="evenodd" clip-rule="evenodd" d="M128 3C128 4.6575 126.658 6 125 6C123.342 6 122 4.6575 122 3C122 1.3425 123.342 0 125 0C126.658 0 128 1.3425 128 3Z" fill="#815EFD"/>
<path fill-rule="evenodd" clip-rule="evenodd" d="M143 3C143 4.6575 141.658 6 140 6C138.342 6 137 4.6575 137 3C137 1.3425 138.342 0 140 0C141.658 0 143 1.3425 143 3Z" fill="#815EFD"/>
<path fill-rule="evenodd" clip-rule="evenodd" d="M158 3C158 4.6575 156.658 6 155 6C153.342 6 152 4.6575 152 3C152 1.3425 153.342 0 155 0C156.658 0 158 1.3425 158 3Z" fill="#815EFD"/>
<path fill-rule="evenodd" clip-rule="evenodd" d="M174 3C174 4.6575 172.658 6 171 6C169.342 6 168 4.6575 168 3C168 1.3425 169.342 0 171 0C172.658 0 174 1.3425 174 3Z" fill="#815EFD"/>
<path fill-rule="evenodd" clip-rule="evenodd" d="M189 18C189 19.6575 187.658 21 186 21C184.342 21 183 19.6575 183 18C183 16.3425 184.342 15 186 15C187.658 15 189 16.3425 189 18Z" fill="#815EFD"/>
<path fill-rule="evenodd" clip-rule="evenodd" d="M204 18C204 19.6575 202.658 21 201 21C199.342 21 198 19.6575 198 18C198 16.3425 199.342 15 201 15C202.658 15 204 16.3425 204 18Z" fill="#815EFD"/>
<path fill-rule="evenodd" clip-rule="evenodd" d="M219 18C219 19.6575 217.658 21 216 21C214.342 21 213 19.6575 213 18C213 16.3425 214.342 15 216 15C217.658 15 219 16.3425 219 18Z" fill="#815EFD"/>
<path fill-rule="evenodd" clip-rule="evenodd" d="M235 18C235 19.6575 233.658 21 232 21C230.342 21 229 19.6575 229 18C229 16.3425 230.342 15 232 15C233.658 15 235 16.3425 235 18Z" fill="#815EFD"/>
<path fill-rule="evenodd" clip-rule="evenodd" d="M189 34C189 35.6575 187.658 37 186 37C184.342 37 183 35.6575 183 34C183 32.3425 184.342 31 186 31C187.658 31 189 32.3425 189 34Z" fill="#815EFD"/>
<path fill-rule="evenodd" clip-rule="evenodd" d="M204 34C204 35.6575 202.658 37 201 37C199.342 37 198 35.6575 198 34C198 32.3425 199.342 31 201 31C202.658 31 204 32.3425 204 34Z" fill="#815EFD"/>
<path fill-rule="evenodd" clip-rule="evenodd" d="M219 34C219 35.6575 217.658 37 216 37C214.342 37 213 35.6575 213 34C213 32.3425 214.342 31 216 31C217.658 31 219 32.3425 219 34Z" fill="#815EFD"/>
<path fill-rule="evenodd" clip-rule="evenodd" d="M235 34C235 35.6575 233.658 37 232 37C230.342 37 229 35.6575 229 34C229 32.3425 230.342 31 232 31C233.658 31 235 32.3425 235 34Z" fill="#815EFD"/>
<path fill-rule="evenodd" clip-rule="evenodd" d="M189 49C189 50.6575 187.658 52 186 52C184.342 52 183 50.6575 183 49C183 47.3425 184.342 46 186 46C187.658 46 189 47.3425 189 49Z" fill="#815EFD"/>
<path fill-rule="evenodd" clip-rule="evenodd" d="M204 49C204 50.6575 202.658 52 201 52C199.342 52 198 50.6575 198 49C198 47.3425 199.342 46 201 46C202.658 46 204 47.3425 204 49Z" fill="#815EFD"/>
<path fill-rule="evenodd" clip-rule="evenodd" d="M219 49C219 50.6575 217.658 52 216 52C214.342 52 213 50.6575 213 49C213 47.3425 214.342 46 216 46C217.658 46 219 47.3425 219 49Z" fill="#815EFD"/>
<path fill-rule="evenodd" clip-rule="evenodd" d="M235 49C235 50.6575 233.658 52 232 52C230.342 52 229 50.6575 229 49C229 47.3425 230.342 46 232 46C233.658 46 235 47.3425 235 49Z" fill="#815EFD"/>
<path fill-rule="evenodd" clip-rule="evenodd" d="M189 65C189 66.6575 187.658 68 186 68C184.342 68 183 66.6575 183 65C183 63.3425 184.342 62 186 62C187.658 62 189 63.3425 189 65Z" fill="#815EFD"/>
<path fill-rule="evenodd" clip-rule="evenodd" d="M204 65C204 66.6575 202.658 68 201 68C199.342 68 198 66.6575 198 65C198 63.3425 199.342 62 201 62C202.658 62 204 63.3425 204 65Z" fill="#815EFD"/>
<path fill-rule="evenodd" clip-rule="evenodd" d="M219 65C219 66.6575 217.658 68 216 68C214.342 68 213 66.6575 213 65C213 63.3425 214.342 62 216 62C217.658 62 219 63.3425 219 65Z" fill="#815EFD"/>
<path fill-rule="evenodd" clip-rule="evenodd" d="M235 65C235 66.6575 233.658 68 232 68C230.342 68 229 66.6575 229 65C229 63.3425 230.342 62 232 62C233.658 62 235 63.3425 235 65Z" fill="#815EFD"/>
<path fill-rule="evenodd" clip-rule="evenodd" d="M189 80C189 81.6575 187.658 83 186 83C184.342 83 183 81.6575 183 80C183 78.3425 184.342 77 186 77C187.658 77 189 78.3425 189 80Z" fill="#815EFD"/>
<path fill-rule="evenodd" clip-rule="evenodd" d="M204 80C204 81.6575 202.658 83 201 83C199.342 83 198 81.6575 198 80C198 78.3425 199.342 77 201 77C202.658 77 204 78.3425 204 80Z" fill="#815EFD"/>
<path fill-rule="evenodd" clip-rule="evenodd" d="M219 80C219 81.6575 217.658 83 216 83C214.342 83 213 81.6575 213 80C213 78.3425 214.342 77 216 77C217.658 77 219 78.3425 219 80Z" fill="#815EFD"/>
<path fill-rule="evenodd" clip-rule="evenodd" d="M235 80C235 81.6575 233.658 83 232 83C230.342 83 229 81.6575 229 80C229 78.3425 230.342 77 232 77C233.658 77 235 78.3425 235 80Z" fill="#815EFD"/>
<path fill-rule="evenodd" clip-rule="evenodd" d="M189 96C189 97.6575 187.658 99 186 99C184.342 99 183 97.6575 183 96C183 94.3425 184.342 93 186 93C187.658 93 189 94.3425 189 96Z" fill="#815EFD"/>
<path fill-rule="evenodd" clip-rule="evenodd" d="M204 96C204 97.6575 202.658 99 201 99C199.342 99 198 97.6575 198 96C198 94.3425 199.342 93 201 93C202.658 93 204 94.3425 204 96Z" fill="#815EFD"/>
<path fill-rule="evenodd" clip-rule="evenodd" d="M219 96C219 97.6575 217.658 99 216 99C214.342 99 213 97.6575 213 96C213 94.3425 214.342 93 216 93C217.658 93 219 94.3425 219 96Z" fill="#815EFD"/>
<path fill-rule="evenodd" clip-rule="evenodd" d="M235 96C235 97.6575 233.658 99 232 99C230.342 99 229 97.6575 229 96C229 94.3425 230.342 93 232 93C233.658 93 235 94.3425 235 96Z" fill="#815EFD"/>
<path fill-rule="evenodd" clip-rule="evenodd" d="M189 111C189 112.658 187.658 114 186 114C184.342 114 183 112.658 183 111C183 109.342 184.342 108 186 108C187.658 108 189 109.342 189 111Z" fill="#815EFD"/>
<path fill-rule="evenodd" clip-rule="evenodd" d="M204 111C204 112.658 202.658 114 201 114C199.342 114 198 112.658 198 111C198 109.342 199.342 108 201 108C202.658 108 204 109.342 204 111Z" fill="#815EFD"/>
<path fill-rule="evenodd" clip-rule="evenodd" d="M219 111C219 112.658 217.658 114 216 114C214.342 114 213 112.658 213 111C213 109.342 214.342 108 216 108C217.658 108 219 109.342 219 111Z" fill="#815EFD"/>
<path fill-rule="evenodd" clip-rule="evenodd" d="M235 111C235 112.658 233.658 114 232 114C230.342 114 229 112.658 229 111C229 109.342 230.342 108 232 108C233.658 108 235 109.342 235 111Z" fill="#815EFD"/>
<path fill-rule="evenodd" clip-rule="evenodd" d="M189 126C189 127.658 187.658 129 186 129C184.342 129 183 127.658 183 126C183 124.342 184.342 123 186 123C187.658 123 189 124.342 189 126Z" fill="#815EFD"/>
<path fill-rule="evenodd" clip-rule="evenodd" d="M204 126C204 127.658 202.658 129 201 129C199.342 129 198 127.658 198 126C198 124.342 199.342 123 201 123C202.658 123 204 124.342 204 126Z" fill="#815EFD"/>
<path fill-rule="evenodd" clip-rule="evenodd" d="M219 126C219 127.658 217.658 129 216 129C214.342 129 213 127.658 213 126C213 124.342 214.342 123 216 123C217.658 123 219 124.342 219 126Z" fill="#815EFD"/>
<path fill-rule="evenodd" clip-rule="evenodd" d="M235 126C235 127.658 233.658 129 232 129C230.342 129 229 127.658 229 126C229 124.342 230.342 123 232 123C233.658 123 235 124.342 235 126Z" fill="#815EFD"/>
<path fill-rule="evenodd" clip-rule="evenodd" d="M189 142C189 143.658 187.658 145 186 145C184.342 145 183 143.658 183 142C183 140.342 184.342 139 186 139C187.658 139 189 140.342 189 142Z" fill="#815EFD"/>
<path fill-rule="evenodd" clip-rule="evenodd" d="M204 142C204 143.658 202.658 145 201 145C199.342 145 198 143.658 198 142C198 140.342 199.342 139 201 139C202.658 139 204 140.342 204 142Z" fill="#815EFD"/>
<path fill-rule="evenodd" clip-rule="evenodd" d="M219 142C219 143.658 217.658 145 216 145C214.342 145 213 143.658 213 142C213 140.342 214.342 139 216 139C217.658 139 219 140.342 219 142Z" fill="#815EFD"/>
<path fill-rule="evenodd" clip-rule="evenodd" d="M235 142C235 143.658 233.658 145 232 145C230.342 145 229 143.658 229 142C229 140.342 230.342 139 232 139C233.658 139 235 140.342 235 142Z" fill="#815EFD"/>
<path fill-rule="evenodd" clip-rule="evenodd" d="M189 157C189 158.658 187.658 160 186 160C184.342 160 183 158.658 183 157C183 155.342 184.342 154 186 154C187.658 154 189 155.342 189 157Z" fill="#815EFD"/>
<path fill-rule="evenodd" clip-rule="evenodd" d="M204 157C204 158.658 202.658 160 201 160C199.342 160 198 158.658 198 157C198 155.342 199.342 154 201 154C202.658 154 204 155.342 204 157Z" fill="#815EFD"/>
<path fill-rule="evenodd" clip-rule="evenodd" d="M219 157C219 158.658 217.658 160 216 160C214.342 160 213 158.658 213 157C213 155.342 214.342 154 216 154C217.658 154 219 155.342 219 157Z" fill="#815EFD"/>
<path fill-rule="evenodd" clip-rule="evenodd" d="M235 157C235 158.658 233.658 160 232 160C230.342 160 229 158.658 229 157C229 155.342 230.342 154 232 154C233.658 154 235 155.342 235 157Z" fill="#815EFD"/>
<path fill-rule="evenodd" clip-rule="evenodd" d="M189 173C189 174.658 187.658 176 186 176C184.342 176 183 174.658 183 173C183 171.342 184.342 170 186 170C187.658 170 189 171.342 189 173Z" fill="#815EFD"/>
<path fill-rule="evenodd" clip-rule="evenodd" d="M204 173C204 174.658 202.658 176 201 176C199.342 176 198 174.658 198 173C198 171.342 199.342 170 201 170C202.658 170 204 171.342 204 173Z" fill="#815EFD"/>
<path fill-rule="evenodd" clip-rule="evenodd" d="M219 173C219 174.658 217.658 176 216 176C214.342 176 213 174.658 213 173C213 171.342 214.342 170 216 170C217.658 170 219 171.342 219 173Z" fill="#815EFD"/>
<path fill-rule="evenodd" clip-rule="evenodd" d="M235 173C235 174.658 233.658 176 232 176C230.342 176 229 174.658 229 173C229 171.342 230.342 170 232 170C233.658 170 235 171.342 235 173Z" fill="#815EFD"/>
<path fill-rule="evenodd" clip-rule="evenodd" d="M189 188C189 189.658 187.658 191 186 191C184.342 191 183 189.658 183 188C183 186.342 184.342 185 186 185C187.658 185 189 186.342 189 188Z" fill="#815EFD"/>
<path fill-rule="evenodd" clip-rule="evenodd" d="M204 188C204 189.658 202.658 191 201 191C199.342 191 198 189.658 198 188C198 186.342 199.342 185 201 185C202.658 185 204 186.342 204 188Z" fill="#815EFD"/>
<path fill-rule="evenodd" clip-rule="evenodd" d="M219 188C219 189.658 217.658 191 216 191C214.342 191 213 189.658 213 188C213 186.342 214.342 185 216 185C217.658 185 219 186.342 219 188Z" fill="#815EFD"/>
<path fill-rule="evenodd" clip-rule="evenodd" d="M235 188C235 189.658 233.658 191 232 191C230.342 191 229 189.658 229 188C229 186.342 230.342 185 232 185C233.658 185 235 186.342 235 188Z" fill="#815EFD"/>
<path fill-rule="evenodd" clip-rule="evenodd" d="M189 3C189 4.6575 187.658 6 186 6C184.342 6 183 4.6575 183 3C183 1.3425 184.342 0 186 0C187.658 0 189 1.3425 189 3Z" fill="#815EFD"/>
<path fill-rule="evenodd" clip-rule="evenodd" d="M204 3C204 4.6575 202.658 6 201 6C199.342 6 198 4.6575 198 3C198 1.3425 199.342 0 201 0C202.658 0 204 1.3425 204 3Z" fill="#815EFD"/>
<path fill-rule="evenodd" clip-rule="evenodd" d="M219 3C219 4.6575 217.658 6 216 6C214.342 6 213 4.6575 213 3C213 1.3425 214.342 0 216 0C217.658 0 219 1.3425 219 3Z" fill="#815EFD"/>
<path fill-rule="evenodd" clip-rule="evenodd" d="M235 3C235 4.6575 233.658 6 232 6C230.342 6 229 4.6575 229 3C229 1.3425 230.342 0 232 0C233.658 0 235 1.3425 235 3Z" fill="#815EFD"/>
</g>
</svg>
