<svg width="430" height="191" viewBox="0 0 430 191" fill="none" xmlns="http://www.w3.org/2000/svg">
<g opacity="0.2">
<path fill-rule="evenodd" clip-rule="evenodd" d="M201 18C201 19.6575 199.658 21 198 21C196.342 21 195 19.6575 195 18C195 16.3425 196.342 15 198 15C199.658 15 201 16.3425 201 18Z" fill="#815EFD"/>
<path fill-rule="evenodd" clip-rule="evenodd" d="M216 18C216 19.6575 214.658 21 213 21C211.342 21 210 19.6575 210 18C210 16.3425 211.342 15 213 15C214.658 15 216 16.3425 216 18Z" fill="#815EFD"/>
<path fill-rule="evenodd" clip-rule="evenodd" d="M231 18C231 19.6575 229.658 21 228 21C226.342 21 225 19.6575 225 18C225 16.3425 226.342 15 228 15C229.658 15 231 16.3425 231 18Z" fill="#815EFD"/>
<path fill-rule="evenodd" clip-rule="evenodd" d="M247 18C247 19.6575 245.658 21 244 21C242.342 21 241 19.6575 241 18C241 16.3425 242.342 15 244 15C245.658 15 247 16.3425 247 18Z" fill="#815EFD"/>
<path fill-rule="evenodd" clip-rule="evenodd" d="M201 34C201 35.6575 199.658 37 198 37C196.342 37 195 35.6575 195 34C195 32.3425 196.342 31 198 31C199.658 31 201 32.3425 201 34Z" fill="#815EFD"/>
<path fill-rule="evenodd" clip-rule="evenodd" d="M216 34C216 35.6575 214.658 37 213 37C211.342 37 210 35.6575 210 34C210 32.3425 211.342 31 213 31C214.658 31 216 32.3425 216 34Z" fill="#815EFD"/>
<path fill-rule="evenodd" clip-rule="evenodd" d="M231 34C231 35.6575 229.658 37 228 37C226.342 37 225 35.6575 225 34C225 32.3425 226.342 31 228 31C229.658 31 231 32.3425 231 34Z" fill="#815EFD"/>
<path fill-rule="evenodd" clip-rule="evenodd" d="M247 34C247 35.6575 245.658 37 244 37C242.342 37 241 35.6575 241 34C241 32.3425 242.342 31 244 31C245.658 31 247 32.3425 247 34Z" fill="#815EFD"/>
<path fill-rule="evenodd" clip-rule="evenodd" d="M201 49C201 50.6575 199.658 52 198 52C196.342 52 195 50.6575 195 49C195 47.3425 196.342 46 198 46C199.658 46 201 47.3425 201 49Z" fill="#815EFD"/>
<path fill-rule="evenodd" clip-rule="evenodd" d="M216 49C216 50.6575 214.658 52 213 52C211.342 52 210 50.6575 210 49C210 47.3425 211.342 46 213 46C214.658 46 216 47.3425 216 49Z" fill="#815EFD"/>
<path fill-rule="evenodd" clip-rule="evenodd" d="M231 49C231 50.6575 229.658 52 228 52C226.342 52 225 50.6575 225 49C225 47.3425 226.342 46 228 46C229.658 46 231 47.3425 231 49Z" fill="#815EFD"/>
<path fill-rule="evenodd" clip-rule="evenodd" d="M247 49C247 50.6575 245.658 52 244 52C242.342 52 241 50.6575 241 49C241 47.3425 242.342 46 244 46C245.658 46 247 47.3425 247 49Z" fill="#815EFD"/>
<path fill-rule="evenodd" clip-rule="evenodd" d="M201 65C201 66.6575 199.658 68 198 68C196.342 68 195 66.6575 195 65C195 63.3425 196.342 62 198 62C199.658 62 201 63.3425 201 65Z" fill="#815EFD"/>
<path fill-rule="evenodd" clip-rule="evenodd" d="M216 65C216 66.6575 214.658 68 213 68C211.342 68 210 66.6575 210 65C210 63.3425 211.342 62 213 62C214.658 62 216 63.3425 216 65Z" fill="#815EFD"/>
<path fill-rule="evenodd" clip-rule="evenodd" d="M231 65C231 66.6575 229.658 68 228 68C226.342 68 225 66.6575 225 65C225 63.3425 226.342 62 228 62C229.658 62 231 63.3425 231 65Z" fill="#815EFD"/>
<path fill-rule="evenodd" clip-rule="evenodd" d="M247 65C247 66.6575 245.658 68 244 68C242.342 68 241 66.6575 241 65C241 63.3425 242.342 62 244 62C245.658 62 247 63.3425 247 65Z" fill="#815EFD"/>
<path fill-rule="evenodd" clip-rule="evenodd" d="M201 80C201 81.6575 199.658 83 198 83C196.342 83 195 81.6575 195 80C195 78.3425 196.342 77 198 77C199.658 77 201 78.3425 201 80Z" fill="#815EFD"/>
<path fill-rule="evenodd" clip-rule="evenodd" d="M216 80C216 81.6575 214.658 83 213 83C211.342 83 210 81.6575 210 80C210 78.3425 211.342 77 213 77C214.658 77 216 78.3425 216 80Z" fill="#815EFD"/>
<path fill-rule="evenodd" clip-rule="evenodd" d="M231 80C231 81.6575 229.658 83 228 83C226.342 83 225 81.6575 225 80C225 78.3425 226.342 77 228 77C229.658 77 231 78.3425 231 80Z" fill="#815EFD"/>
<path fill-rule="evenodd" clip-rule="evenodd" d="M247 80C247 81.6575 245.658 83 244 83C242.342 83 241 81.6575 241 80C241 78.3425 242.342 77 244 77C245.658 77 247 78.3425 247 80Z" fill="#815EFD"/>
<path fill-rule="evenodd" clip-rule="evenodd" d="M201 96C201 97.6575 199.658 99 198 99C196.342 99 195 97.6575 195 96C195 94.3425 196.342 93 198 93C199.658 93 201 94.3425 201 96Z" fill="#815EFD"/>
<path fill-rule="evenodd" clip-rule="evenodd" d="M216 96C216 97.6575 214.658 99 213 99C211.342 99 210 97.6575 210 96C210 94.3425 211.342 93 213 93C214.658 93 216 94.3425 216 96Z" fill="#815EFD"/>
<path fill-rule="evenodd" clip-rule="evenodd" d="M231 96C231 97.6575 229.658 99 228 99C226.342 99 225 97.6575 225 96C225 94.3425 226.342 93 228 93C229.658 93 231 94.3425 231 96Z" fill="#815EFD"/>
<path fill-rule="evenodd" clip-rule="evenodd" d="M247 96C247 97.6575 245.658 99 244 99C242.342 99 241 97.6575 241 96C241 94.3425 242.342 93 244 93C245.658 93 247 94.3425 247 96Z" fill="#815EFD"/>
<path fill-rule="evenodd" clip-rule="evenodd" d="M201 111C201 112.658 199.658 114 198 114C196.342 114 195 112.658 195 111C195 109.342 196.342 108 198 108C199.658 108 201 109.342 201 111Z" fill="#815EFD"/>
<path fill-rule="evenodd" clip-rule="evenodd" d="M216 111C216 112.658 214.658 114 213 114C211.342 114 210 112.658 210 111C210 109.342 211.342 108 213 108C214.658 108 216 109.342 216 111Z" fill="#815EFD"/>
<path fill-rule="evenodd" clip-rule="evenodd" d="M231 111C231 112.658 229.658 114 228 114C226.342 114 225 112.658 225 111C225 109.342 226.342 108 228 108C229.658 108 231 109.342 231 111Z" fill="#815EFD"/>
<path fill-rule="evenodd" clip-rule="evenodd" d="M247 111C247 112.658 245.658 114 244 114C242.342 114 241 112.658 241 111C241 109.342 242.342 108 244 108C245.658 108 247 109.342 247 111Z" fill="#815EFD"/>
<path fill-rule="evenodd" clip-rule="evenodd" d="M201 126C201 127.658 199.658 129 198 129C196.342 129 195 127.658 195 126C195 124.342 196.342 123 198 123C199.658 123 201 124.342 201 126Z" fill="#815EFD"/>
<path fill-rule="evenodd" clip-rule="evenodd" d="M216 126C216 127.658 214.658 129 213 129C211.342 129 210 127.658 210 126C210 124.342 211.342 123 213 123C214.658 123 216 124.342 216 126Z" fill="#815EFD"/>
<path fill-rule="evenodd" clip-rule="evenodd" d="M231 126C231 127.658 229.658 129 228 129C226.342 129 225 127.658 225 126C225 124.342 226.342 123 228 123C229.658 123 231 124.342 231 126Z" fill="#815EFD"/>
<path fill-rule="evenodd" clip-rule="evenodd" d="M247 126C247 127.658 245.658 129 244 129C242.342 129 241 127.658 241 126C241 124.342 242.342 123 244 123C245.658 123 247 124.342 247 126Z" fill="#815EFD"/>
<path fill-rule="evenodd" clip-rule="evenodd" d="M201 142C201 143.658 199.658 145 198 145C196.342 145 195 143.658 195 142C195 140.342 196.342 139 198 139C199.658 139 201 140.342 201 142Z" fill="#815EFD"/>
<path fill-rule="evenodd" clip-rule="evenodd" d="M216 142C216 143.658 214.658 145 213 145C211.342 145 210 143.658 210 142C210 140.342 211.342 139 213 139C214.658 139 216 140.342 216 142Z" fill="#815EFD"/>
<path fill-rule="evenodd" clip-rule="evenodd" d="M231 142C231 143.658 229.658 145 228 145C226.342 145 225 143.658 225 142C225 140.342 226.342 139 228 139C229.658 139 231 140.342 231 142Z" fill="#815EFD"/>
<path fill-rule="evenodd" clip-rule="evenodd" d="M247 142C247 143.658 245.658 145 244 145C242.342 145 241 143.658 241 142C241 140.342 242.342 139 244 139C245.658 139 247 140.342 247 142Z" fill="#815EFD"/>
<path fill-rule="evenodd" clip-rule="evenodd" d="M201 157C201 158.658 199.658 160 198 160C196.342 160 195 158.658 195 157C195 155.342 196.342 154 198 154C199.658 154 201 155.342 201 157Z" fill="#815EFD"/>
<path fill-rule="evenodd" clip-rule="evenodd" d="M216 157C216 158.658 214.658 160 213 160C211.342 160 210 158.658 210 157C210 155.342 211.342 154 213 154C214.658 154 216 155.342 216 157Z" fill="#815EFD"/>
<path fill-rule="evenodd" clip-rule="evenodd" d="M231 157C231 158.658 229.658 160 228 160C226.342 160 225 158.658 225 157C225 155.342 226.342 154 228 154C229.658 154 231 155.342 231 157Z" fill="#815EFD"/>
<path fill-rule="evenodd" clip-rule="evenodd" d="M247 157C247 158.658 245.658 160 244 160C242.342 160 241 158.658 241 157C241 155.342 242.342 154 244 154C245.658 154 247 155.342 247 157Z" fill="#815EFD"/>
<path fill-rule="evenodd" clip-rule="evenodd" d="M201 173C201 174.658 199.658 176 198 176C196.342 176 195 174.658 195 173C195 171.342 196.342 170 198 170C199.658 170 201 171.342 201 173Z" fill="#815EFD"/>
<path fill-rule="evenodd" clip-rule="evenodd" d="M216 173C216 174.658 214.658 176 213 176C211.342 176 210 174.658 210 173C210 171.342 211.342 170 213 170C214.658 170 216 171.342 216 173Z" fill="#815EFD"/>
<path fill-rule="evenodd" clip-rule="evenodd" d="M231 173C231 174.658 229.658 176 228 176C226.342 176 225 174.658 225 173C225 171.342 226.342 170 228 170C229.658 170 231 171.342 231 173Z" fill="#815EFD"/>
<path fill-rule="evenodd" clip-rule="evenodd" d="M247 173C247 174.658 245.658 176 244 176C242.342 176 241 174.658 241 173C241 171.342 242.342 170 244 170C245.658 170 247 171.342 247 173Z" fill="#815EFD"/>
<path fill-rule="evenodd" clip-rule="evenodd" d="M201 188C201 189.658 199.658 191 198 191C196.342 191 195 189.658 195 188C195 186.342 196.342 185 198 185C199.658 185 201 186.342 201 188Z" fill="#815EFD"/>
<path fill-rule="evenodd" clip-rule="evenodd" d="M216 188C216 189.658 214.658 191 213 191C211.342 191 210 189.658 210 188C210 186.342 211.342 185 213 185C214.658 185 216 186.342 216 188Z" fill="#815EFD"/>
<path fill-rule="evenodd" clip-rule="evenodd" d="M231 188C231 189.658 229.658 191 228 191C226.342 191 225 189.658 225 188C225 186.342 226.342 185 228 185C229.658 185 231 186.342 231 188Z" fill="#815EFD"/>
<path fill-rule="evenodd" clip-rule="evenodd" d="M247 188C247 189.658 245.658 191 244 191C242.342 191 241 189.658 241 188C241 186.342 242.342 185 244 185C245.658 185 247 186.342 247 188Z" fill="#815EFD"/>
<path fill-rule="evenodd" clip-rule="evenodd" d="M201 3C201 4.6575 199.658 6 198 6C196.342 6 195 4.6575 195 3C195 1.3425 196.342 0 198 0C199.658 0 201 1.3425 201 3Z" fill="#815EFD"/>
<path fill-rule="evenodd" clip-rule="evenodd" d="M216 3C216 4.6575 214.658 6 213 6C211.342 6 210 4.6575 210 3C210 1.3425 211.342 0 213 0C214.658 0 216 1.3425 216 3Z" fill="#815EFD"/>
<path fill-rule="evenodd" clip-rule="evenodd" d="M231 3C231 4.6575 229.658 6 228 6C226.342 6 225 4.6575 225 3C225 1.3425 226.342 0 228 0C229.658 0 231 1.3425 231 3Z" fill="#815EFD"/>
<path fill-rule="evenodd" clip-rule="evenodd" d="M247 3C247 4.6575 245.658 6 244 6C242.342 6 241 4.6575 241 3C241 1.3425 242.342 0 244 0C245.658 0 247 1.3425 247 3Z" fill="#815EFD"/>
<path fill-rule="evenodd" clip-rule="evenodd" d="M262 18C262 19.6575 260.658 21 259 21C257.342 21 256 19.6575 256 18C256 16.3425 257.342 15 259 15C260.658 15 262 16.3425 262 18Z" fill="#815EFD"/>
<path fill-rule="evenodd" clip-rule="evenodd" d="M277 18C277 19.6575 275.658 21 274 21C272.342 21 271 19.6575 271 18C271 16.3425 272.342 15 274 15C275.658 15 277 16.3425 277 18Z" fill="#815EFD"/>
<path fill-rule="evenodd" clip-rule="evenodd" d="M292 18C292 19.6575 290.658 21 289 21C287.342 21 286 19.6575 286 18C286 16.3425 287.342 15 289 15C290.658 15 292 16.3425 292 18Z" fill="#815EFD"/>
<path fill-rule="evenodd" clip-rule="evenodd" d="M308 18C308 19.6575 306.658 21 305 21C303.342 21 302 19.6575 302 18C302 16.3425 303.342 15 305 15C306.658 15 308 16.3425 308 18Z" fill="#815EFD"/>
<path fill-rule="evenodd" clip-rule="evenodd" d="M262 34C262 35.6575 260.658 37 259 37C257.342 37 256 35.6575 256 34C256 32.3425 257.342 31 259 31C260.658 31 262 32.3425 262 34Z" fill="#815EFD"/>
<path fill-rule="evenodd" clip-rule="evenodd" d="M277 34C277 35.6575 275.658 37 274 37C272.342 37 271 35.6575 271 34C271 32.3425 272.342 31 274 31C275.658 31 277 32.3425 277 34Z" fill="#815EFD"/>
<path fill-rule="evenodd" clip-rule="evenodd" d="M292 34C292 35.6575 290.658 37 289 37C287.342 37 286 35.6575 286 34C286 32.3425 287.342 31 289 31C290.658 31 292 32.3425 292 34Z" fill="#815EFD"/>
<path fill-rule="evenodd" clip-rule="evenodd" d="M308 34C308 35.6575 306.658 37 305 37C303.342 37 302 35.6575 302 34C302 32.3425 303.342 31 305 31C306.658 31 308 32.3425 308 34Z" fill="#815EFD"/>
<path fill-rule="evenodd" clip-rule="evenodd" d="M262 49C262 50.6575 260.658 52 259 52C257.342 52 256 50.6575 256 49C256 47.3425 257.342 46 259 46C260.658 46 262 47.3425 262 49Z" fill="#815EFD"/>
<path fill-rule="evenodd" clip-rule="evenodd" d="M277 49C277 50.6575 275.658 52 274 52C272.342 52 271 50.6575 271 49C271 47.3425 272.342 46 274 46C275.658 46 277 47.3425 277 49Z" fill="#815EFD"/>
<path fill-rule="evenodd" clip-rule="evenodd" d="M292 49C292 50.6575 290.658 52 289 52C287.342 52 286 50.6575 286 49C286 47.3425 287.342 46 289 46C290.658 46 292 47.3425 292 49Z" fill="#815EFD"/>
<path fill-rule="evenodd" clip-rule="evenodd" d="M308 49C308 50.6575 306.658 52 305 52C303.342 52 302 50.6575 302 49C302 47.3425 303.342 46 305 46C306.658 46 308 47.3425 308 49Z" fill="#815EFD"/>
<path fill-rule="evenodd" clip-rule="evenodd" d="M262 65C262 66.6575 260.658 68 259 68C257.342 68 256 66.6575 256 65C256 63.3425 257.342 62 259 62C260.658 62 262 63.3425 262 65Z" fill="#815EFD"/>
<path fill-rule="evenodd" clip-rule="evenodd" d="M277 65C277 66.6575 275.658 68 274 68C272.342 68 271 66.6575 271 65C271 63.3425 272.342 62 274 62C275.658 62 277 63.3425 277 65Z" fill="#815EFD"/>
<path fill-rule="evenodd" clip-rule="evenodd" d="M292 65C292 66.6575 290.658 68 289 68C287.342 68 286 66.6575 286 65C286 63.3425 287.342 62 289 62C290.658 62 292 63.3425 292 65Z" fill="#815EFD"/>
<path fill-rule="evenodd" clip-rule="evenodd" d="M308 65C308 66.6575 306.658 68 305 68C303.342 68 302 66.6575 302 65C302 63.3425 303.342 62 305 62C306.658 62 308 63.3425 308 65Z" fill="#815EFD"/>
<path fill-rule="evenodd" clip-rule="evenodd" d="M262 80C262 81.6575 260.658 83 259 83C257.342 83 256 81.6575 256 80C256 78.3425 257.342 77 259 77C260.658 77 262 78.3425 262 80Z" fill="#815EFD"/>
<path fill-rule="evenodd" clip-rule="evenodd" d="M277 80C277 81.6575 275.658 83 274 83C272.342 83 271 81.6575 271 80C271 78.3425 272.342 77 274 77C275.658 77 277 78.3425 277 80Z" fill="#815EFD"/>
<path fill-rule="evenodd" clip-rule="evenodd" d="M292 80C292 81.6575 290.658 83 289 83C287.342 83 286 81.6575 286 80C286 78.3425 287.342 77 289 77C290.658 77 292 78.3425 292 80Z" fill="#815EFD"/>
<path fill-rule="evenodd" clip-rule="evenodd" d="M308 80C308 81.6575 306.658 83 305 83C303.342 83 302 81.6575 302 80C302 78.3425 303.342 77 305 77C306.658 77 308 78.3425 308 80Z" fill="#815EFD"/>
<path fill-rule="evenodd" clip-rule="evenodd" d="M262 96C262 97.6575 260.658 99 259 99C257.342 99 256 97.6575 256 96C256 94.3425 257.342 93 259 93C260.658 93 262 94.3425 262 96Z" fill="#815EFD"/>
<path fill-rule="evenodd" clip-rule="evenodd" d="M277 96C277 97.6575 275.658 99 274 99C272.342 99 271 97.6575 271 96C271 94.3425 272.342 93 274 93C275.658 93 277 94.3425 277 96Z" fill="#815EFD"/>
<path fill-rule="evenodd" clip-rule="evenodd" d="M292 96C292 97.6575 290.658 99 289 99C287.342 99 286 97.6575 286 96C286 94.3425 287.342 93 289 93C290.658 93 292 94.3425 292 96Z" fill="#815EFD"/>
<path fill-rule="evenodd" clip-rule="evenodd" d="M308 96C308 97.6575 306.658 99 305 99C303.342 99 302 97.6575 302 96C302 94.3425 303.342 93 305 93C306.658 93 308 94.3425 308 96Z" fill="#815EFD"/>
<path fill-rule="evenodd" clip-rule="evenodd" d="M262 111C262 112.658 260.658 114 259 114C257.342 114 256 112.658 256 111C256 109.342 257.342 108 259 108C260.658 108 262 109.342 262 111Z" fill="#815EFD"/>
<path fill-rule="evenodd" clip-rule="evenodd" d="M277 111C277 112.658 275.658 114 274 114C272.342 114 271 112.658 271 111C271 109.342 272.342 108 274 108C275.658 108 277 109.342 277 111Z" fill="#815EFD"/>
<path fill-rule="evenodd" clip-rule="evenodd" d="M292 111C292 112.658 290.658 114 289 114C287.342 114 286 112.658 286 111C286 109.342 287.342 108 289 108C290.658 108 292 109.342 292 111Z" fill="#815EFD"/>
<path fill-rule="evenodd" clip-rule="evenodd" d="M308 111C308 112.658 306.658 114 305 114C303.342 114 302 112.658 302 111C302 109.342 303.342 108 305 108C306.658 108 308 109.342 308 111Z" fill="#815EFD"/>
<path fill-rule="evenodd" clip-rule="evenodd" d="M262 126C262 127.658 260.658 129 259 129C257.342 129 256 127.658 256 126C256 124.342 257.342 123 259 123C260.658 123 262 124.342 262 126Z" fill="#815EFD"/>
<path fill-rule="evenodd" clip-rule="evenodd" d="M277 126C277 127.658 275.658 129 274 129C272.342 129 271 127.658 271 126C271 124.342 272.342 123 274 123C275.658 123 277 124.342 277 126Z" fill="#815EFD"/>
<path fill-rule="evenodd" clip-rule="evenodd" d="M292 126C292 127.658 290.658 129 289 129C287.342 129 286 127.658 286 126C286 124.342 287.342 123 289 123C290.658 123 292 124.342 292 126Z" fill="#815EFD"/>
<path fill-rule="evenodd" clip-rule="evenodd" d="M308 126C308 127.658 306.658 129 305 129C303.342 129 302 127.658 302 126C302 124.342 303.342 123 305 123C306.658 123 308 124.342 308 126Z" fill="#815EFD"/>
<path fill-rule="evenodd" clip-rule="evenodd" d="M262 142C262 143.658 260.658 145 259 145C257.342 145 256 143.658 256 142C256 140.342 257.342 139 259 139C260.658 139 262 140.342 262 142Z" fill="#815EFD"/>
<path fill-rule="evenodd" clip-rule="evenodd" d="M277 142C277 143.658 275.658 145 274 145C272.342 145 271 143.658 271 142C271 140.342 272.342 139 274 139C275.658 139 277 140.342 277 142Z" fill="#815EFD"/>
<path fill-rule="evenodd" clip-rule="evenodd" d="M292 142C292 143.658 290.658 145 289 145C287.342 145 286 143.658 286 142C286 140.342 287.342 139 289 139C290.658 139 292 140.342 292 142Z" fill="#815EFD"/>
<path fill-rule="evenodd" clip-rule="evenodd" d="M308 142C308 143.658 306.658 145 305 145C303.342 145 302 143.658 302 142C302 140.342 303.342 139 305 139C306.658 139 308 140.342 308 142Z" fill="#815EFD"/>
<path fill-rule="evenodd" clip-rule="evenodd" d="M262 157C262 158.658 260.658 160 259 160C257.342 160 256 158.658 256 157C256 155.342 257.342 154 259 154C260.658 154 262 155.342 262 157Z" fill="#815EFD"/>
<path fill-rule="evenodd" clip-rule="evenodd" d="M277 157C277 158.658 275.658 160 274 160C272.342 160 271 158.658 271 157C271 155.342 272.342 154 274 154C275.658 154 277 155.342 277 157Z" fill="#815EFD"/>
<path fill-rule="evenodd" clip-rule="evenodd" d="M292 157C292 158.658 290.658 160 289 160C287.342 160 286 158.658 286 157C286 155.342 287.342 154 289 154C290.658 154 292 155.342 292 157Z" fill="#815EFD"/>
<path fill-rule="evenodd" clip-rule="evenodd" d="M308 157C308 158.658 306.658 160 305 160C303.342 160 302 158.658 302 157C302 155.342 303.342 154 305 154C306.658 154 308 155.342 308 157Z" fill="#815EFD"/>
<path fill-rule="evenodd" clip-rule="evenodd" d="M262 173C262 174.658 260.658 176 259 176C257.342 176 256 174.658 256 173C256 171.342 257.342 170 259 170C260.658 170 262 171.342 262 173Z" fill="#815EFD"/>
<path fill-rule="evenodd" clip-rule="evenodd" d="M277 173C277 174.658 275.658 176 274 176C272.342 176 271 174.658 271 173C271 171.342 272.342 170 274 170C275.658 170 277 171.342 277 173Z" fill="#815EFD"/>
<path fill-rule="evenodd" clip-rule="evenodd" d="M292 173C292 174.658 290.658 176 289 176C287.342 176 286 174.658 286 173C286 171.342 287.342 170 289 170C290.658 170 292 171.342 292 173Z" fill="#815EFD"/>
<path fill-rule="evenodd" clip-rule="evenodd" d="M308 173C308 174.658 306.658 176 305 176C303.342 176 302 174.658 302 173C302 171.342 303.342 170 305 170C306.658 170 308 171.342 308 173Z" fill="#815EFD"/>
<path fill-rule="evenodd" clip-rule="evenodd" d="M262 188C262 189.658 260.658 191 259 191C257.342 191 256 189.658 256 188C256 186.342 257.342 185 259 185C260.658 185 262 186.342 262 188Z" fill="#815EFD"/>
<path fill-rule="evenodd" clip-rule="evenodd" d="M277 188C277 189.658 275.658 191 274 191C272.342 191 271 189.658 271 188C271 186.342 272.342 185 274 185C275.658 185 277 186.342 277 188Z" fill="#815EFD"/>
<path fill-rule="evenodd" clip-rule="evenodd" d="M292 188C292 189.658 290.658 191 289 191C287.342 191 286 189.658 286 188C286 186.342 287.342 185 289 185C290.658 185 292 186.342 292 188Z" fill="#815EFD"/>
<path fill-rule="evenodd" clip-rule="evenodd" d="M308 188C308 189.658 306.658 191 305 191C303.342 191 302 189.658 302 188C302 186.342 303.342 185 305 185C306.658 185 308 186.342 308 188Z" fill="#815EFD"/>
<path fill-rule="evenodd" clip-rule="evenodd" d="M262 3C262 4.6575 260.658 6 259 6C257.342 6 256 4.6575 256 3C256 1.3425 257.342 0 259 0C260.658 0 262 1.3425 262 3Z" fill="#815EFD"/>
<path fill-rule="evenodd" clip-rule="evenodd" d="M277 3C277 4.6575 275.658 6 274 6C272.342 6 271 4.6575 271 3C271 1.3425 272.342 0 274 0C275.658 0 277 1.3425 277 3Z" fill="#815EFD"/>
<path fill-rule="evenodd" clip-rule="evenodd" d="M292 3C292 4.6575 290.658 6 289 6C287.342 6 286 4.6575 286 3C286 1.3425 287.342 0 289 0C290.658 0 292 1.3425 292 3Z" fill="#815EFD"/>
<path fill-rule="evenodd" clip-rule="evenodd" d="M308 3C308 4.6575 306.658 6 305 6C303.342 6 302 4.6575 302 3C302 1.3425 303.342 0 305 0C306.658 0 308 1.3425 308 3Z" fill="#815EFD"/>
<path fill-rule="evenodd" clip-rule="evenodd" d="M323 18C323 19.6575 321.658 21 320 21C318.342 21 317 19.6575 317 18C317 16.3425 318.342 15 320 15C321.658 15 323 16.3425 323 18Z" fill="#815EFD"/>
<path fill-rule="evenodd" clip-rule="evenodd" d="M338 18C338 19.6575 336.658 21 335 21C333.342 21 332 19.6575 332 18C332 16.3425 333.342 15 335 15C336.658 15 338 16.3425 338 18Z" fill="#815EFD"/>
<path fill-rule="evenodd" clip-rule="evenodd" d="M353 18C353 19.6575 351.658 21 350 21C348.342 21 347 19.6575 347 18C347 16.3425 348.342 15 350 15C351.658 15 353 16.3425 353 18Z" fill="#815EFD"/>
<path fill-rule="evenodd" clip-rule="evenodd" d="M369 18C369 19.6575 367.658 21 366 21C364.342 21 363 19.6575 363 18C363 16.3425 364.342 15 366 15C367.658 15 369 16.3425 369 18Z" fill="#815EFD"/>
<path fill-rule="evenodd" clip-rule="evenodd" d="M323 34C323 35.6575 321.658 37 320 37C318.342 37 317 35.6575 317 34C317 32.3425 318.342 31 320 31C321.658 31 323 32.3425 323 34Z" fill="#815EFD"/>
<path fill-rule="evenodd" clip-rule="evenodd" d="M338 34C338 35.6575 336.658 37 335 37C333.342 37 332 35.6575 332 34C332 32.3425 333.342 31 335 31C336.658 31 338 32.3425 338 34Z" fill="#815EFD"/>
<path fill-rule="evenodd" clip-rule="evenodd" d="M353 34C353 35.6575 351.658 37 350 37C348.342 37 347 35.6575 347 34C347 32.3425 348.342 31 350 31C351.658 31 353 32.3425 353 34Z" fill="#815EFD"/>
<path fill-rule="evenodd" clip-rule="evenodd" d="M369 34C369 35.6575 367.658 37 366 37C364.342 37 363 35.6575 363 34C363 32.3425 364.342 31 366 31C367.658 31 369 32.3425 369 34Z" fill="#815EFD"/>
<path fill-rule="evenodd" clip-rule="evenodd" d="M323 49C323 50.6575 321.658 52 320 52C318.342 52 317 50.6575 317 49C317 47.3425 318.342 46 320 46C321.658 46 323 47.3425 323 49Z" fill="#815EFD"/>
<path fill-rule="evenodd" clip-rule="evenodd" d="M338 49C338 50.6575 336.658 52 335 52C333.342 52 332 50.6575 332 49C332 47.3425 333.342 46 335 46C336.658 46 338 47.3425 338 49Z" fill="#815EFD"/>
<path fill-rule="evenodd" clip-rule="evenodd" d="M353 49C353 50.6575 351.658 52 350 52C348.342 52 347 50.6575 347 49C347 47.3425 348.342 46 350 46C351.658 46 353 47.3425 353 49Z" fill="#815EFD"/>
<path fill-rule="evenodd" clip-rule="evenodd" d="M369 49C369 50.6575 367.658 52 366 52C364.342 52 363 50.6575 363 49C363 47.3425 364.342 46 366 46C367.658 46 369 47.3425 369 49Z" fill="#815EFD"/>
<path fill-rule="evenodd" clip-rule="evenodd" d="M323 65C323 66.6575 321.658 68 320 68C318.342 68 317 66.6575 317 65C317 63.3425 318.342 62 320 62C321.658 62 323 63.3425 323 65Z" fill="#815EFD"/>
<path fill-rule="evenodd" clip-rule="evenodd" d="M338 65C338 66.6575 336.658 68 335 68C333.342 68 332 66.6575 332 65C332 63.3425 333.342 62 335 62C336.658 62 338 63.3425 338 65Z" fill="#815EFD"/>
<path fill-rule="evenodd" clip-rule="evenodd" d="M353 65C353 66.6575 351.658 68 350 68C348.342 68 347 66.6575 347 65C347 63.3425 348.342 62 350 62C351.658 62 353 63.3425 353 65Z" fill="#815EFD"/>
<path fill-rule="evenodd" clip-rule="evenodd" d="M369 65C369 66.6575 367.658 68 366 68C364.342 68 363 66.6575 363 65C363 63.3425 364.342 62 366 62C367.658 62 369 63.3425 369 65Z" fill="#815EFD"/>
<path fill-rule="evenodd" clip-rule="evenodd" d="M323 80C323 81.6575 321.658 83 320 83C318.342 83 317 81.6575 317 80C317 78.3425 318.342 77 320 77C321.658 77 323 78.3425 323 80Z" fill="#815EFD"/>
<path fill-rule="evenodd" clip-rule="evenodd" d="M338 80C338 81.6575 336.658 83 335 83C333.342 83 332 81.6575 332 80C332 78.3425 333.342 77 335 77C336.658 77 338 78.3425 338 80Z" fill="#815EFD"/>
<path fill-rule="evenodd" clip-rule="evenodd" d="M353 80C353 81.6575 351.658 83 350 83C348.342 83 347 81.6575 347 80C347 78.3425 348.342 77 350 77C351.658 77 353 78.3425 353 80Z" fill="#815EFD"/>
<path fill-rule="evenodd" clip-rule="evenodd" d="M369 80C369 81.6575 367.658 83 366 83C364.342 83 363 81.6575 363 80C363 78.3425 364.342 77 366 77C367.658 77 369 78.3425 369 80Z" fill="#815EFD"/>
<path fill-rule="evenodd" clip-rule="evenodd" d="M323 96C323 97.6575 321.658 99 320 99C318.342 99 317 97.6575 317 96C317 94.3425 318.342 93 320 93C321.658 93 323 94.3425 323 96Z" fill="#815EFD"/>
<path fill-rule="evenodd" clip-rule="evenodd" d="M338 96C338 97.6575 336.658 99 335 99C333.342 99 332 97.6575 332 96C332 94.3425 333.342 93 335 93C336.658 93 338 94.3425 338 96Z" fill="#815EFD"/>
<path fill-rule="evenodd" clip-rule="evenodd" d="M353 96C353 97.6575 351.658 99 350 99C348.342 99 347 97.6575 347 96C347 94.3425 348.342 93 350 93C351.658 93 353 94.3425 353 96Z" fill="#815EFD"/>
<path fill-rule="evenodd" clip-rule="evenodd" d="M369 96C369 97.6575 367.658 99 366 99C364.342 99 363 97.6575 363 96C363 94.3425 364.342 93 366 93C367.658 93 369 94.3425 369 96Z" fill="#815EFD"/>
<path fill-rule="evenodd" clip-rule="evenodd" d="M323 111C323 112.658 321.658 114 320 114C318.342 114 317 112.658 317 111C317 109.342 318.342 108 320 108C321.658 108 323 109.342 323 111Z" fill="#815EFD"/>
<path fill-rule="evenodd" clip-rule="evenodd" d="M338 111C338 112.658 336.658 114 335 114C333.342 114 332 112.658 332 111C332 109.342 333.342 108 335 108C336.658 108 338 109.342 338 111Z" fill="#815EFD"/>
<path fill-rule="evenodd" clip-rule="evenodd" d="M353 111C353 112.658 351.658 114 350 114C348.342 114 347 112.658 347 111C347 109.342 348.342 108 350 108C351.658 108 353 109.342 353 111Z" fill="#815EFD"/>
<path fill-rule="evenodd" clip-rule="evenodd" d="M369 111C369 112.658 367.658 114 366 114C364.342 114 363 112.658 363 111C363 109.342 364.342 108 366 108C367.658 108 369 109.342 369 111Z" fill="#815EFD"/>
<path fill-rule="evenodd" clip-rule="evenodd" d="M323 126C323 127.658 321.658 129 320 129C318.342 129 317 127.658 317 126C317 124.342 318.342 123 320 123C321.658 123 323 124.342 323 126Z" fill="#815EFD"/>
<path fill-rule="evenodd" clip-rule="evenodd" d="M338 126C338 127.658 336.658 129 335 129C333.342 129 332 127.658 332 126C332 124.342 333.342 123 335 123C336.658 123 338 124.342 338 126Z" fill="#815EFD"/>
<path fill-rule="evenodd" clip-rule="evenodd" d="M353 126C353 127.658 351.658 129 350 129C348.342 129 347 127.658 347 126C347 124.342 348.342 123 350 123C351.658 123 353 124.342 353 126Z" fill="#815EFD"/>
<path fill-rule="evenodd" clip-rule="evenodd" d="M369 126C369 127.658 367.658 129 366 129C364.342 129 363 127.658 363 126C363 124.342 364.342 123 366 123C367.658 123 369 124.342 369 126Z" fill="#815EFD"/>
<path fill-rule="evenodd" clip-rule="evenodd" d="M323 142C323 143.658 321.658 145 320 145C318.342 145 317 143.658 317 142C317 140.342 318.342 139 320 139C321.658 139 323 140.342 323 142Z" fill="#815EFD"/>
<path fill-rule="evenodd" clip-rule="evenodd" d="M338 142C338 143.658 336.658 145 335 145C333.342 145 332 143.658 332 142C332 140.342 333.342 139 335 139C336.658 139 338 140.342 338 142Z" fill="#815EFD"/>
<path fill-rule="evenodd" clip-rule="evenodd" d="M353 142C353 143.658 351.658 145 350 145C348.342 145 347 143.658 347 142C347 140.342 348.342 139 350 139C351.658 139 353 140.342 353 142Z" fill="#815EFD"/>
<path fill-rule="evenodd" clip-rule="evenodd" d="M369 142C369 143.658 367.658 145 366 145C364.342 145 363 143.658 363 142C363 140.342 364.342 139 366 139C367.658 139 369 140.342 369 142Z" fill="#815EFD"/>
<path fill-rule="evenodd" clip-rule="evenodd" d="M323 157C323 158.658 321.658 160 320 160C318.342 160 317 158.658 317 157C317 155.342 318.342 154 320 154C321.658 154 323 155.342 323 157Z" fill="#815EFD"/>
<path fill-rule="evenodd" clip-rule="evenodd" d="M338 157C338 158.658 336.658 160 335 160C333.342 160 332 158.658 332 157C332 155.342 333.342 154 335 154C336.658 154 338 155.342 338 157Z" fill="#815EFD"/>
<path fill-rule="evenodd" clip-rule="evenodd" d="M353 157C353 158.658 351.658 160 350 160C348.342 160 347 158.658 347 157C347 155.342 348.342 154 350 154C351.658 154 353 155.342 353 157Z" fill="#815EFD"/>
<path fill-rule="evenodd" clip-rule="evenodd" d="M369 157C369 158.658 367.658 160 366 160C364.342 160 363 158.658 363 157C363 155.342 364.342 154 366 154C367.658 154 369 155.342 369 157Z" fill="#815EFD"/>
<path fill-rule="evenodd" clip-rule="evenodd" d="M323 173C323 174.658 321.658 176 320 176C318.342 176 317 174.658 317 173C317 171.342 318.342 170 320 170C321.658 170 323 171.342 323 173Z" fill="#815EFD"/>
<path fill-rule="evenodd" clip-rule="evenodd" d="M338 173C338 174.658 336.658 176 335 176C333.342 176 332 174.658 332 173C332 171.342 333.342 170 335 170C336.658 170 338 171.342 338 173Z" fill="#815EFD"/>
<path fill-rule="evenodd" clip-rule="evenodd" d="M353 173C353 174.658 351.658 176 350 176C348.342 176 347 174.658 347 173C347 171.342 348.342 170 350 170C351.658 170 353 171.342 353 173Z" fill="#815EFD"/>
<path fill-rule="evenodd" clip-rule="evenodd" d="M369 173C369 174.658 367.658 176 366 176C364.342 176 363 174.658 363 173C363 171.342 364.342 170 366 170C367.658 170 369 171.342 369 173Z" fill="#815EFD"/>
<path fill-rule="evenodd" clip-rule="evenodd" d="M323 188C323 189.658 321.658 191 320 191C318.342 191 317 189.658 317 188C317 186.342 318.342 185 320 185C321.658 185 323 186.342 323 188Z" fill="#815EFD"/>
<path fill-rule="evenodd" clip-rule="evenodd" d="M338 188C338 189.658 336.658 191 335 191C333.342 191 332 189.658 332 188C332 186.342 333.342 185 335 185C336.658 185 338 186.342 338 188Z" fill="#815EFD"/>
<path fill-rule="evenodd" clip-rule="evenodd" d="M353 188C353 189.658 351.658 191 350 191C348.342 191 347 189.658 347 188C347 186.342 348.342 185 350 185C351.658 185 353 186.342 353 188Z" fill="#815EFD"/>
<path fill-rule="evenodd" clip-rule="evenodd" d="M369 188C369 189.658 367.658 191 366 191C364.342 191 363 189.658 363 188C363 186.342 364.342 185 366 185C367.658 185 369 186.342 369 188Z" fill="#815EFD"/>
<path fill-rule="evenodd" clip-rule="evenodd" d="M323 3C323 4.6575 321.658 6 320 6C318.342 6 317 4.6575 317 3C317 1.3425 318.342 0 320 0C321.658 0 323 1.3425 323 3Z" fill="#815EFD"/>
<path fill-rule="evenodd" clip-rule="evenodd" d="M338 3C338 4.6575 336.658 6 335 6C333.342 6 332 4.6575 332 3C332 1.3425 333.342 0 335 0C336.658 0 338 1.3425 338 3Z" fill="#815EFD"/>
<path fill-rule="evenodd" clip-rule="evenodd" d="M353 3C353 4.6575 351.658 6 350 6C348.342 6 347 4.6575 347 3C347 1.3425 348.342 0 350 0C351.658 0 353 1.3425 353 3Z" fill="#815EFD"/>
<path fill-rule="evenodd" clip-rule="evenodd" d="M369 3C369 4.6575 367.658 6 366 6C364.342 6 363 4.6575 363 3C363 1.3425 364.342 0 366 0C367.658 0 369 1.3425 369 3Z" fill="#815EFD"/>
<path fill-rule="evenodd" clip-rule="evenodd" d="M384 18C384 19.6575 382.658 21 381 21C379.342 21 378 19.6575 378 18C378 16.3425 379.342 15 381 15C382.658 15 384 16.3425 384 18Z" fill="#815EFD"/>
<path fill-rule="evenodd" clip-rule="evenodd" d="M399 18C399 19.6575 397.658 21 396 21C394.342 21 393 19.6575 393 18C393 16.3425 394.342 15 396 15C397.658 15 399 16.3425 399 18Z" fill="#815EFD"/>
<path fill-rule="evenodd" clip-rule="evenodd" d="M414 18C414 19.6575 412.658 21 411 21C409.342 21 408 19.6575 408 18C408 16.3425 409.342 15 411 15C412.658 15 414 16.3425 414 18Z" fill="#815EFD"/>
<path fill-rule="evenodd" clip-rule="evenodd" d="M430 18C430 19.6575 428.658 21 427 21C425.342 21 424 19.6575 424 18C424 16.3425 425.342 15 427 15C428.658 15 430 16.3425 430 18Z" fill="#815EFD"/>
<path fill-rule="evenodd" clip-rule="evenodd" d="M384 34C384 35.6575 382.658 37 381 37C379.342 37 378 35.6575 378 34C378 32.3425 379.342 31 381 31C382.658 31 384 32.3425 384 34Z" fill="#815EFD"/>
<path fill-rule="evenodd" clip-rule="evenodd" d="M399 34C399 35.6575 397.658 37 396 37C394.342 37 393 35.6575 393 34C393 32.3425 394.342 31 396 31C397.658 31 399 32.3425 399 34Z" fill="#815EFD"/>
<path fill-rule="evenodd" clip-rule="evenodd" d="M414 34C414 35.6575 412.658 37 411 37C409.342 37 408 35.6575 408 34C408 32.3425 409.342 31 411 31C412.658 31 414 32.3425 414 34Z" fill="#815EFD"/>
<path fill-rule="evenodd" clip-rule="evenodd" d="M430 34C430 35.6575 428.658 37 427 37C425.342 37 424 35.6575 424 34C424 32.3425 425.342 31 427 31C428.658 31 430 32.3425 430 34Z" fill="#815EFD"/>
<path fill-rule="evenodd" clip-rule="evenodd" d="M384 49C384 50.6575 382.658 52 381 52C379.342 52 378 50.6575 378 49C378 47.3425 379.342 46 381 46C382.658 46 384 47.3425 384 49Z" fill="#815EFD"/>
<path fill-rule="evenodd" clip-rule="evenodd" d="M399 49C399 50.6575 397.658 52 396 52C394.342 52 393 50.6575 393 49C393 47.3425 394.342 46 396 46C397.658 46 399 47.3425 399 49Z" fill="#815EFD"/>
<path fill-rule="evenodd" clip-rule="evenodd" d="M414 49C414 50.6575 412.658 52 411 52C409.342 52 408 50.6575 408 49C408 47.3425 409.342 46 411 46C412.658 46 414 47.3425 414 49Z" fill="#815EFD"/>
<path fill-rule="evenodd" clip-rule="evenodd" d="M430 49C430 50.6575 428.658 52 427 52C425.342 52 424 50.6575 424 49C424 47.3425 425.342 46 427 46C428.658 46 430 47.3425 430 49Z" fill="#815EFD"/>
<path fill-rule="evenodd" clip-rule="evenodd" d="M384 65C384 66.6575 382.658 68 381 68C379.342 68 378 66.6575 378 65C378 63.3425 379.342 62 381 62C382.658 62 384 63.3425 384 65Z" fill="#815EFD"/>
<path fill-rule="evenodd" clip-rule="evenodd" d="M399 65C399 66.6575 397.658 68 396 68C394.342 68 393 66.6575 393 65C393 63.3425 394.342 62 396 62C397.658 62 399 63.3425 399 65Z" fill="#815EFD"/>
<path fill-rule="evenodd" clip-rule="evenodd" d="M414 65C414 66.6575 412.658 68 411 68C409.342 68 408 66.6575 408 65C408 63.3425 409.342 62 411 62C412.658 62 414 63.3425 414 65Z" fill="#815EFD"/>
<path fill-rule="evenodd" clip-rule="evenodd" d="M430 65C430 66.6575 428.658 68 427 68C425.342 68 424 66.6575 424 65C424 63.3425 425.342 62 427 62C428.658 62 430 63.3425 430 65Z" fill="#815EFD"/>
<path fill-rule="evenodd" clip-rule="evenodd" d="M384 80C384 81.6575 382.658 83 381 83C379.342 83 378 81.6575 378 80C378 78.3425 379.342 77 381 77C382.658 77 384 78.3425 384 80Z" fill="#815EFD"/>
<path fill-rule="evenodd" clip-rule="evenodd" d="M399 80C399 81.6575 397.658 83 396 83C394.342 83 393 81.6575 393 80C393 78.3425 394.342 77 396 77C397.658 77 399 78.3425 399 80Z" fill="#815EFD"/>
<path fill-rule="evenodd" clip-rule="evenodd" d="M414 80C414 81.6575 412.658 83 411 83C409.342 83 408 81.6575 408 80C408 78.3425 409.342 77 411 77C412.658 77 414 78.3425 414 80Z" fill="#815EFD"/>
<path fill-rule="evenodd" clip-rule="evenodd" d="M430 80C430 81.6575 428.658 83 427 83C425.342 83 424 81.6575 424 80C424 78.3425 425.342 77 427 77C428.658 77 430 78.3425 430 80Z" fill="#815EFD"/>
<path fill-rule="evenodd" clip-rule="evenodd" d="M384 96C384 97.6575 382.658 99 381 99C379.342 99 378 97.6575 378 96C378 94.3425 379.342 93 381 93C382.658 93 384 94.3425 384 96Z" fill="#815EFD"/>
<path fill-rule="evenodd" clip-rule="evenodd" d="M399 96C399 97.6575 397.658 99 396 99C394.342 99 393 97.6575 393 96C393 94.3425 394.342 93 396 93C397.658 93 399 94.3425 399 96Z" fill="#815EFD"/>
<path fill-rule="evenodd" clip-rule="evenodd" d="M414 96C414 97.6575 412.658 99 411 99C409.342 99 408 97.6575 408 96C408 94.3425 409.342 93 411 93C412.658 93 414 94.3425 414 96Z" fill="#815EFD"/>
<path fill-rule="evenodd" clip-rule="evenodd" d="M430 96C430 97.6575 428.658 99 427 99C425.342 99 424 97.6575 424 96C424 94.3425 425.342 93 427 93C428.658 93 430 94.3425 430 96Z" fill="#815EFD"/>
<path fill-rule="evenodd" clip-rule="evenodd" d="M384 111C384 112.658 382.658 114 381 114C379.342 114 378 112.658 378 111C378 109.342 379.342 108 381 108C382.658 108 384 109.342 384 111Z" fill="#815EFD"/>
<path fill-rule="evenodd" clip-rule="evenodd" d="M399 111C399 112.658 397.658 114 396 114C394.342 114 393 112.658 393 111C393 109.342 394.342 108 396 108C397.658 108 399 109.342 399 111Z" fill="#815EFD"/>
<path fill-rule="evenodd" clip-rule="evenodd" d="M414 111C414 112.658 412.658 114 411 114C409.342 114 408 112.658 408 111C408 109.342 409.342 108 411 108C412.658 108 414 109.342 414 111Z" fill="#815EFD"/>
<path fill-rule="evenodd" clip-rule="evenodd" d="M430 111C430 112.658 428.658 114 427 114C425.342 114 424 112.658 424 111C424 109.342 425.342 108 427 108C428.658 108 430 109.342 430 111Z" fill="#815EFD"/>
<path fill-rule="evenodd" clip-rule="evenodd" d="M384 126C384 127.658 382.658 129 381 129C379.342 129 378 127.658 378 126C378 124.342 379.342 123 381 123C382.658 123 384 124.342 384 126Z" fill="#815EFD"/>
<path fill-rule="evenodd" clip-rule="evenodd" d="M399 126C399 127.658 397.658 129 396 129C394.342 129 393 127.658 393 126C393 124.342 394.342 123 396 123C397.658 123 399 124.342 399 126Z" fill="#815EFD"/>
<path fill-rule="evenodd" clip-rule="evenodd" d="M414 126C414 127.658 412.658 129 411 129C409.342 129 408 127.658 408 126C408 124.342 409.342 123 411 123C412.658 123 414 124.342 414 126Z" fill="#815EFD"/>
<path fill-rule="evenodd" clip-rule="evenodd" d="M430 126C430 127.658 428.658 129 427 129C425.342 129 424 127.658 424 126C424 124.342 425.342 123 427 123C428.658 123 430 124.342 430 126Z" fill="#815EFD"/>
<path fill-rule="evenodd" clip-rule="evenodd" d="M384 142C384 143.658 382.658 145 381 145C379.342 145 378 143.658 378 142C378 140.342 379.342 139 381 139C382.658 139 384 140.342 384 142Z" fill="#815EFD"/>
<path fill-rule="evenodd" clip-rule="evenodd" d="M399 142C399 143.658 397.658 145 396 145C394.342 145 393 143.658 393 142C393 140.342 394.342 139 396 139C397.658 139 399 140.342 399 142Z" fill="#815EFD"/>
<path fill-rule="evenodd" clip-rule="evenodd" d="M414 142C414 143.658 412.658 145 411 145C409.342 145 408 143.658 408 142C408 140.342 409.342 139 411 139C412.658 139 414 140.342 414 142Z" fill="#815EFD"/>
<path fill-rule="evenodd" clip-rule="evenodd" d="M430 142C430 143.658 428.658 145 427 145C425.342 145 424 143.658 424 142C424 140.342 425.342 139 427 139C428.658 139 430 140.342 430 142Z" fill="#815EFD"/>
<path fill-rule="evenodd" clip-rule="evenodd" d="M384 157C384 158.658 382.658 160 381 160C379.342 160 378 158.658 378 157C378 155.342 379.342 154 381 154C382.658 154 384 155.342 384 157Z" fill="#815EFD"/>
<path fill-rule="evenodd" clip-rule="evenodd" d="M399 157C399 158.658 397.658 160 396 160C394.342 160 393 158.658 393 157C393 155.342 394.342 154 396 154C397.658 154 399 155.342 399 157Z" fill="#815EFD"/>
<path fill-rule="evenodd" clip-rule="evenodd" d="M414 157C414 158.658 412.658 160 411 160C409.342 160 408 158.658 408 157C408 155.342 409.342 154 411 154C412.658 154 414 155.342 414 157Z" fill="#815EFD"/>
<path fill-rule="evenodd" clip-rule="evenodd" d="M430 157C430 158.658 428.658 160 427 160C425.342 160 424 158.658 424 157C424 155.342 425.342 154 427 154C428.658 154 430 155.342 430 157Z" fill="#815EFD"/>
<path fill-rule="evenodd" clip-rule="evenodd" d="M384 173C384 174.658 382.658 176 381 176C379.342 176 378 174.658 378 173C378 171.342 379.342 170 381 170C382.658 170 384 171.342 384 173Z" fill="#815EFD"/>
<path fill-rule="evenodd" clip-rule="evenodd" d="M399 173C399 174.658 397.658 176 396 176C394.342 176 393 174.658 393 173C393 171.342 394.342 170 396 170C397.658 170 399 171.342 399 173Z" fill="#815EFD"/>
<path fill-rule="evenodd" clip-rule="evenodd" d="M414 173C414 174.658 412.658 176 411 176C409.342 176 408 174.658 408 173C408 171.342 409.342 170 411 170C412.658 170 414 171.342 414 173Z" fill="#815EFD"/>
<path fill-rule="evenodd" clip-rule="evenodd" d="M430 173C430 174.658 428.658 176 427 176C425.342 176 424 174.658 424 173C424 171.342 425.342 170 427 170C428.658 170 430 171.342 430 173Z" fill="#815EFD"/>
<path fill-rule="evenodd" clip-rule="evenodd" d="M384 188C384 189.658 382.658 191 381 191C379.342 191 378 189.658 378 188C378 186.342 379.342 185 381 185C382.658 185 384 186.342 384 188Z" fill="#815EFD"/>
<path fill-rule="evenodd" clip-rule="evenodd" d="M399 188C399 189.658 397.658 191 396 191C394.342 191 393 189.658 393 188C393 186.342 394.342 185 396 185C397.658 185 399 186.342 399 188Z" fill="#815EFD"/>
<path fill-rule="evenodd" clip-rule="evenodd" d="M414 188C414 189.658 412.658 191 411 191C409.342 191 408 189.658 408 188C408 186.342 409.342 185 411 185C412.658 185 414 186.342 414 188Z" fill="#815EFD"/>
<path fill-rule="evenodd" clip-rule="evenodd" d="M430 188C430 189.658 428.658 191 427 191C425.342 191 424 189.658 424 188C424 186.342 425.342 185 427 185C428.658 185 430 186.342 430 188Z" fill="#815EFD"/>
<path fill-rule="evenodd" clip-rule="evenodd" d="M384 3C384 4.6575 382.658 6 381 6C379.342 6 378 4.6575 378 3C378 1.3425 379.342 0 381 0C382.658 0 384 1.3425 384 3Z" fill="#815EFD"/>
<path fill-rule="evenodd" clip-rule="evenodd" d="M399 3C399 4.6575 397.658 6 396 6C394.342 6 393 4.6575 393 3C393 1.3425 394.342 0 396 0C397.658 0 399 1.3425 399 3Z" fill="#815EFD"/>
<path fill-rule="evenodd" clip-rule="evenodd" d="M414 3C414 4.6575 412.658 6 411 6C409.342 6 408 4.6575 408 3C408 1.3425 409.342 0 411 0C412.658 0 414 1.3425 414 3Z" fill="#815EFD"/>
<path fill-rule="evenodd" clip-rule="evenodd" d="M430 3C430 4.6575 428.658 6 427 6C425.342 6 424 4.6575 424 3C424 1.3425 425.342 0 427 0C428.658 0 430 1.3425 430 3Z" fill="#815EFD"/>
</g>
<g opacity="0.2">
<path fill-rule="evenodd" clip-rule="evenodd" d="M3 18C3 19.6575 1.6575 21 0 21C-1.6575 21 -3 19.6575 -3 18C-3 16.3425 -1.6575 15 0 15C1.6575 15 3 16.3425 3 18Z" fill="#815EFD"/>
<path fill-rule="evenodd" clip-rule="evenodd" d="M3 34C3 35.6575 1.6575 37 0 37C-1.6575 37 -3 35.6575 -3 34C-3 32.3425 -1.6575 31 0 31C1.6575 31 3 32.3425 3 34Z" fill="#815EFD"/>
<path fill-rule="evenodd" clip-rule="evenodd" d="M3 49C3 50.6575 1.6575 52 0 52C-1.6575 52 -3 50.6575 -3 49C-3 47.3425 -1.6575 46 0 46C1.6575 46 3 47.3425 3 49Z" fill="#815EFD"/>
<path fill-rule="evenodd" clip-rule="evenodd" d="M3 65C3 66.6575 1.6575 68 0 68C-1.6575 68 -3 66.6575 -3 65C-3 63.3425 -1.6575 62 0 62C1.6575 62 3 63.3425 3 65Z" fill="#815EFD"/>
<path fill-rule="evenodd" clip-rule="evenodd" d="M3 80C3 81.6575 1.6575 83 0 83C-1.6575 83 -3 81.6575 -3 80C-3 78.3425 -1.6575 77 0 77C1.6575 77 3 78.3425 3 80Z" fill="#815EFD"/>
<path fill-rule="evenodd" clip-rule="evenodd" d="M3 96C3 97.6575 1.6575 99 0 99C-1.6575 99 -3 97.6575 -3 96C-3 94.3425 -1.6575 93 0 93C1.6575 93 3 94.3425 3 96Z" fill="#815EFD"/>
<path fill-rule="evenodd" clip-rule="evenodd" d="M3 111C3 112.658 1.6575 114 0 114C-1.6575 114 -3 112.658 -3 111C-3 109.342 -1.6575 108 0 108C1.6575 108 3 109.342 3 111Z" fill="#815EFD"/>
<path fill-rule="evenodd" clip-rule="evenodd" d="M3 126C3 127.658 1.6575 129 0 129C-1.6575 129 -3 127.658 -3 126C-3 124.342 -1.6575 123 0 123C1.6575 123 3 124.342 3 126Z" fill="#815EFD"/>
<path fill-rule="evenodd" clip-rule="evenodd" d="M3 142C3 143.658 1.6575 145 0 145C-1.6575 145 -3 143.658 -3 142C-3 140.342 -1.6575 139 0 139C1.6575 139 3 140.342 3 142Z" fill="#815EFD"/>
<path fill-rule="evenodd" clip-rule="evenodd" d="M3 157C3 158.658 1.6575 160 0 160C-1.6575 160 -3 158.658 -3 157C-3 155.342 -1.6575 154 0 154C1.6575 154 3 155.342 3 157Z" fill="#815EFD"/>
<path fill-rule="evenodd" clip-rule="evenodd" d="M3 173C3 174.658 1.6575 176 0 176C-1.6575 176 -3 174.658 -3 173C-3 171.342 -1.6575 170 0 170C1.6575 170 3 171.342 3 173Z" fill="#815EFD"/>
<path fill-rule="evenodd" clip-rule="evenodd" d="M3 188C3 189.658 1.6575 191 0 191C-1.6575 191 -3 189.658 -3 188C-3 186.342 -1.6575 185 0 185C1.6575 185 3 186.342 3 188Z" fill="#815EFD"/>
<path fill-rule="evenodd" clip-rule="evenodd" d="M3 3C3 4.6575 1.6575 6 0 6C-1.6575 6 -3 4.6575 -3 3C-3 1.3425 -1.6575 0 0 0C1.6575 0 3 1.3425 3 3Z" fill="#815EFD"/>
<path fill-rule="evenodd" clip-rule="evenodd" d="M18 18C18 19.6575 16.6575 21 15 21C13.3425 21 12 19.6575 12 18C12 16.3425 13.3425 15 15 15C16.6575 15 18 16.3425 18 18Z" fill="#815EFD"/>
<path fill-rule="evenodd" clip-rule="evenodd" d="M33 18C33 19.6575 31.6575 21 30 21C28.3425 21 27 19.6575 27 18C27 16.3425 28.3425 15 30 15C31.6575 15 33 16.3425 33 18Z" fill="#815EFD"/>
<path fill-rule="evenodd" clip-rule="evenodd" d="M48 18C48 19.6575 46.6575 21 45 21C43.3425 21 42 19.6575 42 18C42 16.3425 43.3425 15 45 15C46.6575 15 48 16.3425 48 18Z" fill="#815EFD"/>
<path fill-rule="evenodd" clip-rule="evenodd" d="M64 18C64 19.6575 62.6575 21 61 21C59.3425 21 58 19.6575 58 18C58 16.3425 59.3425 15 61 15C62.6575 15 64 16.3425 64 18Z" fill="#815EFD"/>
<path fill-rule="evenodd" clip-rule="evenodd" d="M18 34C18 35.6575 16.6575 37 15 37C13.3425 37 12 35.6575 12 34C12 32.3425 13.3425 31 15 31C16.6575 31 18 32.3425 18 34Z" fill="#815EFD"/>
<path fill-rule="evenodd" clip-rule="evenodd" d="M33 34C33 35.6575 31.6575 37 30 37C28.3425 37 27 35.6575 27 34C27 32.3425 28.3425 31 30 31C31.6575 31 33 32.3425 33 34Z" fill="#815EFD"/>
<path fill-rule="evenodd" clip-rule="evenodd" d="M48 34C48 35.6575 46.6575 37 45 37C43.3425 37 42 35.6575 42 34C42 32.3425 43.3425 31 45 31C46.6575 31 48 32.3425 48 34Z" fill="#815EFD"/>
<path fill-rule="evenodd" clip-rule="evenodd" d="M64 34C64 35.6575 62.6575 37 61 37C59.3425 37 58 35.6575 58 34C58 32.3425 59.3425 31 61 31C62.6575 31 64 32.3425 64 34Z" fill="#815EFD"/>
<path fill-rule="evenodd" clip-rule="evenodd" d="M18 49C18 50.6575 16.6575 52 15 52C13.3425 52 12 50.6575 12 49C12 47.3425 13.3425 46 15 46C16.6575 46 18 47.3425 18 49Z" fill="#815EFD"/>
<path fill-rule="evenodd" clip-rule="evenodd" d="M33 49C33 50.6575 31.6575 52 30 52C28.3425 52 27 50.6575 27 49C27 47.3425 28.3425 46 30 46C31.6575 46 33 47.3425 33 49Z" fill="#815EFD"/>
<path fill-rule="evenodd" clip-rule="evenodd" d="M48 49C48 50.6575 46.6575 52 45 52C43.3425 52 42 50.6575 42 49C42 47.3425 43.3425 46 45 46C46.6575 46 48 47.3425 48 49Z" fill="#815EFD"/>
<path fill-rule="evenodd" clip-rule="evenodd" d="M64 49C64 50.6575 62.6575 52 61 52C59.3425 52 58 50.6575 58 49C58 47.3425 59.3425 46 61 46C62.6575 46 64 47.3425 64 49Z" fill="#815EFD"/>
<path fill-rule="evenodd" clip-rule="evenodd" d="M18 65C18 66.6575 16.6575 68 15 68C13.3425 68 12 66.6575 12 65C12 63.3425 13.3425 62 15 62C16.6575 62 18 63.3425 18 65Z" fill="#815EFD"/>
<path fill-rule="evenodd" clip-rule="evenodd" d="M33 65C33 66.6575 31.6575 68 30 68C28.3425 68 27 66.6575 27 65C27 63.3425 28.3425 62 30 62C31.6575 62 33 63.3425 33 65Z" fill="#815EFD"/>
<path fill-rule="evenodd" clip-rule="evenodd" d="M48 65C48 66.6575 46.6575 68 45 68C43.3425 68 42 66.6575 42 65C42 63.3425 43.3425 62 45 62C46.6575 62 48 63.3425 48 65Z" fill="#815EFD"/>
<path fill-rule="evenodd" clip-rule="evenodd" d="M64 65C64 66.6575 62.6575 68 61 68C59.3425 68 58 66.6575 58 65C58 63.3425 59.3425 62 61 62C62.6575 62 64 63.3425 64 65Z" fill="#815EFD"/>
<path fill-rule="evenodd" clip-rule="evenodd" d="M18 80C18 81.6575 16.6575 83 15 83C13.3425 83 12 81.6575 12 80C12 78.3425 13.3425 77 15 77C16.6575 77 18 78.3425 18 80Z" fill="#815EFD"/>
<path fill-rule="evenodd" clip-rule="evenodd" d="M33 80C33 81.6575 31.6575 83 30 83C28.3425 83 27 81.6575 27 80C27 78.3425 28.3425 77 30 77C31.6575 77 33 78.3425 33 80Z" fill="#815EFD"/>
<path fill-rule="evenodd" clip-rule="evenodd" d="M48 80C48 81.6575 46.6575 83 45 83C43.3425 83 42 81.6575 42 80C42 78.3425 43.3425 77 45 77C46.6575 77 48 78.3425 48 80Z" fill="#815EFD"/>
<path fill-rule="evenodd" clip-rule="evenodd" d="M64 80C64 81.6575 62.6575 83 61 83C59.3425 83 58 81.6575 58 80C58 78.3425 59.3425 77 61 77C62.6575 77 64 78.3425 64 80Z" fill="#815EFD"/>
<path fill-rule="evenodd" clip-rule="evenodd" d="M18 96C18 97.6575 16.6575 99 15 99C13.3425 99 12 97.6575 12 96C12 94.3425 13.3425 93 15 93C16.6575 93 18 94.3425 18 96Z" fill="#815EFD"/>
<path fill-rule="evenodd" clip-rule="evenodd" d="M33 96C33 97.6575 31.6575 99 30 99C28.3425 99 27 97.6575 27 96C27 94.3425 28.3425 93 30 93C31.6575 93 33 94.3425 33 96Z" fill="#815EFD"/>
<path fill-rule="evenodd" clip-rule="evenodd" d="M48 96C48 97.6575 46.6575 99 45 99C43.3425 99 42 97.6575 42 96C42 94.3425 43.3425 93 45 93C46.6575 93 48 94.3425 48 96Z" fill="#815EFD"/>
<path fill-rule="evenodd" clip-rule="evenodd" d="M64 96C64 97.6575 62.6575 99 61 99C59.3425 99 58 97.6575 58 96C58 94.3425 59.3425 93 61 93C62.6575 93 64 94.3425 64 96Z" fill="#815EFD"/>
<path fill-rule="evenodd" clip-rule="evenodd" d="M18 111C18 112.658 16.6575 114 15 114C13.3425 114 12 112.658 12 111C12 109.342 13.3425 108 15 108C16.6575 108 18 109.342 18 111Z" fill="#815EFD"/>
<path fill-rule="evenodd" clip-rule="evenodd" d="M33 111C33 112.658 31.6575 114 30 114C28.3425 114 27 112.658 27 111C27 109.342 28.3425 108 30 108C31.6575 108 33 109.342 33 111Z" fill="#815EFD"/>
<path fill-rule="evenodd" clip-rule="evenodd" d="M48 111C48 112.658 46.6575 114 45 114C43.3425 114 42 112.658 42 111C42 109.342 43.3425 108 45 108C46.6575 108 48 109.342 48 111Z" fill="#815EFD"/>
<path fill-rule="evenodd" clip-rule="evenodd" d="M64 111C64 112.658 62.6575 114 61 114C59.3425 114 58 112.658 58 111C58 109.342 59.3425 108 61 108C62.6575 108 64 109.342 64 111Z" fill="#815EFD"/>
<path fill-rule="evenodd" clip-rule="evenodd" d="M18 126C18 127.658 16.6575 129 15 129C13.3425 129 12 127.658 12 126C12 124.342 13.3425 123 15 123C16.6575 123 18 124.342 18 126Z" fill="#815EFD"/>
<path fill-rule="evenodd" clip-rule="evenodd" d="M33 126C33 127.658 31.6575 129 30 129C28.3425 129 27 127.658 27 126C27 124.342 28.3425 123 30 123C31.6575 123 33 124.342 33 126Z" fill="#815EFD"/>
<path fill-rule="evenodd" clip-rule="evenodd" d="M48 126C48 127.658 46.6575 129 45 129C43.3425 129 42 127.658 42 126C42 124.342 43.3425 123 45 123C46.6575 123 48 124.342 48 126Z" fill="#815EFD"/>
<path fill-rule="evenodd" clip-rule="evenodd" d="M64 126C64 127.658 62.6575 129 61 129C59.3425 129 58 127.658 58 126C58 124.342 59.3425 123 61 123C62.6575 123 64 124.342 64 126Z" fill="#815EFD"/>
<path fill-rule="evenodd" clip-rule="evenodd" d="M18 142C18 143.658 16.6575 145 15 145C13.3425 145 12 143.658 12 142C12 140.342 13.3425 139 15 139C16.6575 139 18 140.342 18 142Z" fill="#815EFD"/>
<path fill-rule="evenodd" clip-rule="evenodd" d="M33 142C33 143.658 31.6575 145 30 145C28.3425 145 27 143.658 27 142C27 140.342 28.3425 139 30 139C31.6575 139 33 140.342 33 142Z" fill="#815EFD"/>
<path fill-rule="evenodd" clip-rule="evenodd" d="M48 142C48 143.658 46.6575 145 45 145C43.3425 145 42 143.658 42 142C42 140.342 43.3425 139 45 139C46.6575 139 48 140.342 48 142Z" fill="#815EFD"/>
<path fill-rule="evenodd" clip-rule="evenodd" d="M64 142C64 143.658 62.6575 145 61 145C59.3425 145 58 143.658 58 142C58 140.342 59.3425 139 61 139C62.6575 139 64 140.342 64 142Z" fill="#815EFD"/>
<path fill-rule="evenodd" clip-rule="evenodd" d="M18 157C18 158.658 16.6575 160 15 160C13.3425 160 12 158.658 12 157C12 155.342 13.3425 154 15 154C16.6575 154 18 155.342 18 157Z" fill="#815EFD"/>
<path fill-rule="evenodd" clip-rule="evenodd" d="M33 157C33 158.658 31.6575 160 30 160C28.3425 160 27 158.658 27 157C27 155.342 28.3425 154 30 154C31.6575 154 33 155.342 33 157Z" fill="#815EFD"/>
<path fill-rule="evenodd" clip-rule="evenodd" d="M48 157C48 158.658 46.6575 160 45 160C43.3425 160 42 158.658 42 157C42 155.342 43.3425 154 45 154C46.6575 154 48 155.342 48 157Z" fill="#815EFD"/>
<path fill-rule="evenodd" clip-rule="evenodd" d="M64 157C64 158.658 62.6575 160 61 160C59.3425 160 58 158.658 58 157C58 155.342 59.3425 154 61 154C62.6575 154 64 155.342 64 157Z" fill="#815EFD"/>
<path fill-rule="evenodd" clip-rule="evenodd" d="M18 173C18 174.658 16.6575 176 15 176C13.3425 176 12 174.658 12 173C12 171.342 13.3425 170 15 170C16.6575 170 18 171.342 18 173Z" fill="#815EFD"/>
<path fill-rule="evenodd" clip-rule="evenodd" d="M33 173C33 174.658 31.6575 176 30 176C28.3425 176 27 174.658 27 173C27 171.342 28.3425 170 30 170C31.6575 170 33 171.342 33 173Z" fill="#815EFD"/>
<path fill-rule="evenodd" clip-rule="evenodd" d="M48 173C48 174.658 46.6575 176 45 176C43.3425 176 42 174.658 42 173C42 171.342 43.3425 170 45 170C46.6575 170 48 171.342 48 173Z" fill="#815EFD"/>
<path fill-rule="evenodd" clip-rule="evenodd" d="M64 173C64 174.658 62.6575 176 61 176C59.3425 176 58 174.658 58 173C58 171.342 59.3425 170 61 170C62.6575 170 64 171.342 64 173Z" fill="#815EFD"/>
<path fill-rule="evenodd" clip-rule="evenodd" d="M18 188C18 189.658 16.6575 191 15 191C13.3425 191 12 189.658 12 188C12 186.342 13.3425 185 15 185C16.6575 185 18 186.342 18 188Z" fill="#815EFD"/>
<path fill-rule="evenodd" clip-rule="evenodd" d="M33 188C33 189.658 31.6575 191 30 191C28.3425 191 27 189.658 27 188C27 186.342 28.3425 185 30 185C31.6575 185 33 186.342 33 188Z" fill="#815EFD"/>
<path fill-rule="evenodd" clip-rule="evenodd" d="M48 188C48 189.658 46.6575 191 45 191C43.3425 191 42 189.658 42 188C42 186.342 43.3425 185 45 185C46.6575 185 48 186.342 48 188Z" fill="#815EFD"/>
<path fill-rule="evenodd" clip-rule="evenodd" d="M64 188C64 189.658 62.6575 191 61 191C59.3425 191 58 189.658 58 188C58 186.342 59.3425 185 61 185C62.6575 185 64 186.342 64 188Z" fill="#815EFD"/>
<path fill-rule="evenodd" clip-rule="evenodd" d="M18 3C18 4.6575 16.6575 6 15 6C13.3425 6 12 4.6575 12 3C12 1.3425 13.3425 0 15 0C16.6575 0 18 1.3425 18 3Z" fill="#815EFD"/>
<path fill-rule="evenodd" clip-rule="evenodd" d="M33 3C33 4.6575 31.6575 6 30 6C28.3425 6 27 4.6575 27 3C27 1.3425 28.3425 0 30 0C31.6575 0 33 1.3425 33 3Z" fill="#815EFD"/>
<path fill-rule="evenodd" clip-rule="evenodd" d="M48 3C48 4.6575 46.6575 6 45 6C43.3425 6 42 4.6575 42 3C42 1.3425 43.3425 0 45 0C46.6575 0 48 1.3425 48 3Z" fill="#815EFD"/>
<path fill-rule="evenodd" clip-rule="evenodd" d="M64 3C64 4.6575 62.6575 6 61 6C59.3425 6 58 4.6575 58 3C58 1.3425 59.3425 0 61 0C62.6575 0 64 1.3425 64 3Z" fill="#815EFD"/>
<path fill-rule="evenodd" clip-rule="evenodd" d="M79 18C79 19.6575 77.6575 21 76 21C74.3425 21 73 19.6575 73 18C73 16.3425 74.3425 15 76 15C77.6575 15 79 16.3425 79 18Z" fill="#815EFD"/>
<path fill-rule="evenodd" clip-rule="evenodd" d="M94 18C94 19.6575 92.6575 21 91 21C89.3425 21 88 19.6575 88 18C88 16.3425 89.3425 15 91 15C92.6575 15 94 16.3425 94 18Z" fill="#815EFD"/>
<path fill-rule="evenodd" clip-rule="evenodd" d="M109 18C109 19.6575 107.658 21 106 21C104.342 21 103 19.6575 103 18C103 16.3425 104.342 15 106 15C107.658 15 109 16.3425 109 18Z" fill="#815EFD"/>
<path fill-rule="evenodd" clip-rule="evenodd" d="M125 18C125 19.6575 123.658 21 122 21C120.342 21 119 19.6575 119 18C119 16.3425 120.342 15 122 15C123.658 15 125 16.3425 125 18Z" fill="#815EFD"/>
<path fill-rule="evenodd" clip-rule="evenodd" d="M79 34C79 35.6575 77.6575 37 76 37C74.3425 37 73 35.6575 73 34C73 32.3425 74.3425 31 76 31C77.6575 31 79 32.3425 79 34Z" fill="#815EFD"/>
<path fill-rule="evenodd" clip-rule="evenodd" d="M94 34C94 35.6575 92.6575 37 91 37C89.3425 37 88 35.6575 88 34C88 32.3425 89.3425 31 91 31C92.6575 31 94 32.3425 94 34Z" fill="#815EFD"/>
<path fill-rule="evenodd" clip-rule="evenodd" d="M109 34C109 35.6575 107.658 37 106 37C104.342 37 103 35.6575 103 34C103 32.3425 104.342 31 106 31C107.658 31 109 32.3425 109 34Z" fill="#815EFD"/>
<path fill-rule="evenodd" clip-rule="evenodd" d="M125 34C125 35.6575 123.658 37 122 37C120.342 37 119 35.6575 119 34C119 32.3425 120.342 31 122 31C123.658 31 125 32.3425 125 34Z" fill="#815EFD"/>
<path fill-rule="evenodd" clip-rule="evenodd" d="M79 49C79 50.6575 77.6575 52 76 52C74.3425 52 73 50.6575 73 49C73 47.3425 74.3425 46 76 46C77.6575 46 79 47.3425 79 49Z" fill="#815EFD"/>
<path fill-rule="evenodd" clip-rule="evenodd" d="M94 49C94 50.6575 92.6575 52 91 52C89.3425 52 88 50.6575 88 49C88 47.3425 89.3425 46 91 46C92.6575 46 94 47.3425 94 49Z" fill="#815EFD"/>
<path fill-rule="evenodd" clip-rule="evenodd" d="M109 49C109 50.6575 107.658 52 106 52C104.342 52 103 50.6575 103 49C103 47.3425 104.342 46 106 46C107.658 46 109 47.3425 109 49Z" fill="#815EFD"/>
<path fill-rule="evenodd" clip-rule="evenodd" d="M125 49C125 50.6575 123.658 52 122 52C120.342 52 119 50.6575 119 49C119 47.3425 120.342 46 122 46C123.658 46 125 47.3425 125 49Z" fill="#815EFD"/>
<path fill-rule="evenodd" clip-rule="evenodd" d="M79 65C79 66.6575 77.6575 68 76 68C74.3425 68 73 66.6575 73 65C73 63.3425 74.3425 62 76 62C77.6575 62 79 63.3425 79 65Z" fill="#815EFD"/>
<path fill-rule="evenodd" clip-rule="evenodd" d="M94 65C94 66.6575 92.6575 68 91 68C89.3425 68 88 66.6575 88 65C88 63.3425 89.3425 62 91 62C92.6575 62 94 63.3425 94 65Z" fill="#815EFD"/>
<path fill-rule="evenodd" clip-rule="evenodd" d="M109 65C109 66.6575 107.658 68 106 68C104.342 68 103 66.6575 103 65C103 63.3425 104.342 62 106 62C107.658 62 109 63.3425 109 65Z" fill="#815EFD"/>
<path fill-rule="evenodd" clip-rule="evenodd" d="M125 65C125 66.6575 123.658 68 122 68C120.342 68 119 66.6575 119 65C119 63.3425 120.342 62 122 62C123.658 62 125 63.3425 125 65Z" fill="#815EFD"/>
<path fill-rule="evenodd" clip-rule="evenodd" d="M79 80C79 81.6575 77.6575 83 76 83C74.3425 83 73 81.6575 73 80C73 78.3425 74.3425 77 76 77C77.6575 77 79 78.3425 79 80Z" fill="#815EFD"/>
<path fill-rule="evenodd" clip-rule="evenodd" d="M94 80C94 81.6575 92.6575 83 91 83C89.3425 83 88 81.6575 88 80C88 78.3425 89.3425 77 91 77C92.6575 77 94 78.3425 94 80Z" fill="#815EFD"/>
<path fill-rule="evenodd" clip-rule="evenodd" d="M109 80C109 81.6575 107.658 83 106 83C104.342 83 103 81.6575 103 80C103 78.3425 104.342 77 106 77C107.658 77 109 78.3425 109 80Z" fill="#815EFD"/>
<path fill-rule="evenodd" clip-rule="evenodd" d="M125 80C125 81.6575 123.658 83 122 83C120.342 83 119 81.6575 119 80C119 78.3425 120.342 77 122 77C123.658 77 125 78.3425 125 80Z" fill="#815EFD"/>
<path fill-rule="evenodd" clip-rule="evenodd" d="M79 96C79 97.6575 77.6575 99 76 99C74.3425 99 73 97.6575 73 96C73 94.3425 74.3425 93 76 93C77.6575 93 79 94.3425 79 96Z" fill="#815EFD"/>
<path fill-rule="evenodd" clip-rule="evenodd" d="M94 96C94 97.6575 92.6575 99 91 99C89.3425 99 88 97.6575 88 96C88 94.3425 89.3425 93 91 93C92.6575 93 94 94.3425 94 96Z" fill="#815EFD"/>
<path fill-rule="evenodd" clip-rule="evenodd" d="M109 96C109 97.6575 107.658 99 106 99C104.342 99 103 97.6575 103 96C103 94.3425 104.342 93 106 93C107.658 93 109 94.3425 109 96Z" fill="#815EFD"/>
<path fill-rule="evenodd" clip-rule="evenodd" d="M125 96C125 97.6575 123.658 99 122 99C120.342 99 119 97.6575 119 96C119 94.3425 120.342 93 122 93C123.658 93 125 94.3425 125 96Z" fill="#815EFD"/>
<path fill-rule="evenodd" clip-rule="evenodd" d="M79 111C79 112.658 77.6575 114 76 114C74.3425 114 73 112.658 73 111C73 109.342 74.3425 108 76 108C77.6575 108 79 109.342 79 111Z" fill="#815EFD"/>
<path fill-rule="evenodd" clip-rule="evenodd" d="M94 111C94 112.658 92.6575 114 91 114C89.3425 114 88 112.658 88 111C88 109.342 89.3425 108 91 108C92.6575 108 94 109.342 94 111Z" fill="#815EFD"/>
<path fill-rule="evenodd" clip-rule="evenodd" d="M109 111C109 112.658 107.658 114 106 114C104.342 114 103 112.658 103 111C103 109.342 104.342 108 106 108C107.658 108 109 109.342 109 111Z" fill="#815EFD"/>
<path fill-rule="evenodd" clip-rule="evenodd" d="M125 111C125 112.658 123.658 114 122 114C120.342 114 119 112.658 119 111C119 109.342 120.342 108 122 108C123.658 108 125 109.342 125 111Z" fill="#815EFD"/>
<path fill-rule="evenodd" clip-rule="evenodd" d="M79 126C79 127.658 77.6575 129 76 129C74.3425 129 73 127.658 73 126C73 124.342 74.3425 123 76 123C77.6575 123 79 124.342 79 126Z" fill="#815EFD"/>
<path fill-rule="evenodd" clip-rule="evenodd" d="M94 126C94 127.658 92.6575 129 91 129C89.3425 129 88 127.658 88 126C88 124.342 89.3425 123 91 123C92.6575 123 94 124.342 94 126Z" fill="#815EFD"/>
<path fill-rule="evenodd" clip-rule="evenodd" d="M109 126C109 127.658 107.658 129 106 129C104.342 129 103 127.658 103 126C103 124.342 104.342 123 106 123C107.658 123 109 124.342 109 126Z" fill="#815EFD"/>
<path fill-rule="evenodd" clip-rule="evenodd" d="M125 126C125 127.658 123.658 129 122 129C120.342 129 119 127.658 119 126C119 124.342 120.342 123 122 123C123.658 123 125 124.342 125 126Z" fill="#815EFD"/>
<path fill-rule="evenodd" clip-rule="evenodd" d="M79 142C79 143.658 77.6575 145 76 145C74.3425 145 73 143.658 73 142C73 140.342 74.3425 139 76 139C77.6575 139 79 140.342 79 142Z" fill="#815EFD"/>
<path fill-rule="evenodd" clip-rule="evenodd" d="M94 142C94 143.658 92.6575 145 91 145C89.3425 145 88 143.658 88 142C88 140.342 89.3425 139 91 139C92.6575 139 94 140.342 94 142Z" fill="#815EFD"/>
<path fill-rule="evenodd" clip-rule="evenodd" d="M109 142C109 143.658 107.658 145 106 145C104.342 145 103 143.658 103 142C103 140.342 104.342 139 106 139C107.658 139 109 140.342 109 142Z" fill="#815EFD"/>
<path fill-rule="evenodd" clip-rule="evenodd" d="M125 142C125 143.658 123.658 145 122 145C120.342 145 119 143.658 119 142C119 140.342 120.342 139 122 139C123.658 139 125 140.342 125 142Z" fill="#815EFD"/>
<path fill-rule="evenodd" clip-rule="evenodd" d="M79 157C79 158.658 77.6575 160 76 160C74.3425 160 73 158.658 73 157C73 155.342 74.3425 154 76 154C77.6575 154 79 155.342 79 157Z" fill="#815EFD"/>
<path fill-rule="evenodd" clip-rule="evenodd" d="M94 157C94 158.658 92.6575 160 91 160C89.3425 160 88 158.658 88 157C88 155.342 89.3425 154 91 154C92.6575 154 94 155.342 94 157Z" fill="#815EFD"/>
<path fill-rule="evenodd" clip-rule="evenodd" d="M109 157C109 158.658 107.658 160 106 160C104.342 160 103 158.658 103 157C103 155.342 104.342 154 106 154C107.658 154 109 155.342 109 157Z" fill="#815EFD"/>
<path fill-rule="evenodd" clip-rule="evenodd" d="M125 157C125 158.658 123.658 160 122 160C120.342 160 119 158.658 119 157C119 155.342 120.342 154 122 154C123.658 154 125 155.342 125 157Z" fill="#815EFD"/>
<path fill-rule="evenodd" clip-rule="evenodd" d="M79 173C79 174.658 77.6575 176 76 176C74.3425 176 73 174.658 73 173C73 171.342 74.3425 170 76 170C77.6575 170 79 171.342 79 173Z" fill="#815EFD"/>
<path fill-rule="evenodd" clip-rule="evenodd" d="M94 173C94 174.658 92.6575 176 91 176C89.3425 176 88 174.658 88 173C88 171.342 89.3425 170 91 170C92.6575 170 94 171.342 94 173Z" fill="#815EFD"/>
<path fill-rule="evenodd" clip-rule="evenodd" d="M109 173C109 174.658 107.658 176 106 176C104.342 176 103 174.658 103 173C103 171.342 104.342 170 106 170C107.658 170 109 171.342 109 173Z" fill="#815EFD"/>
<path fill-rule="evenodd" clip-rule="evenodd" d="M125 173C125 174.658 123.658 176 122 176C120.342 176 119 174.658 119 173C119 171.342 120.342 170 122 170C123.658 170 125 171.342 125 173Z" fill="#815EFD"/>
<path fill-rule="evenodd" clip-rule="evenodd" d="M79 188C79 189.658 77.6575 191 76 191C74.3425 191 73 189.658 73 188C73 186.342 74.3425 185 76 185C77.6575 185 79 186.342 79 188Z" fill="#815EFD"/>
<path fill-rule="evenodd" clip-rule="evenodd" d="M94 188C94 189.658 92.6575 191 91 191C89.3425 191 88 189.658 88 188C88 186.342 89.3425 185 91 185C92.6575 185 94 186.342 94 188Z" fill="#815EFD"/>
<path fill-rule="evenodd" clip-rule="evenodd" d="M109 188C109 189.658 107.658 191 106 191C104.342 191 103 189.658 103 188C103 186.342 104.342 185 106 185C107.658 185 109 186.342 109 188Z" fill="#815EFD"/>
<path fill-rule="evenodd" clip-rule="evenodd" d="M125 188C125 189.658 123.658 191 122 191C120.342 191 119 189.658 119 188C119 186.342 120.342 185 122 185C123.658 185 125 186.342 125 188Z" fill="#815EFD"/>
<path fill-rule="evenodd" clip-rule="evenodd" d="M79 3C79 4.6575 77.6575 6 76 6C74.3425 6 73 4.6575 73 3C73 1.3425 74.3425 0 76 0C77.6575 0 79 1.3425 79 3Z" fill="#815EFD"/>
<path fill-rule="evenodd" clip-rule="evenodd" d="M94 3C94 4.6575 92.6575 6 91 6C89.3425 6 88 4.6575 88 3C88 1.3425 89.3425 0 91 0C92.6575 0 94 1.3425 94 3Z" fill="#815EFD"/>
<path fill-rule="evenodd" clip-rule="evenodd" d="M109 3C109 4.6575 107.658 6 106 6C104.342 6 103 4.6575 103 3C103 1.3425 104.342 0 106 0C107.658 0 109 1.3425 109 3Z" fill="#815EFD"/>
<path fill-rule="evenodd" clip-rule="evenodd" d="M125 3C125 4.6575 123.658 6 122 6C120.342 6 119 4.6575 119 3C119 1.3425 120.342 0 122 0C123.658 0 125 1.3425 125 3Z" fill="#815EFD"/>
<path fill-rule="evenodd" clip-rule="evenodd" d="M140 18C140 19.6575 138.658 21 137 21C135.342 21 134 19.6575 134 18C134 16.3425 135.342 15 137 15C138.658 15 140 16.3425 140 18Z" fill="#815EFD"/>
<path fill-rule="evenodd" clip-rule="evenodd" d="M155 18C155 19.6575 153.658 21 152 21C150.342 21 149 19.6575 149 18C149 16.3425 150.342 15 152 15C153.658 15 155 16.3425 155 18Z" fill="#815EFD"/>
<path fill-rule="evenodd" clip-rule="evenodd" d="M170 18C170 19.6575 168.658 21 167 21C165.342 21 164 19.6575 164 18C164 16.3425 165.342 15 167 15C168.658 15 170 16.3425 170 18Z" fill="#815EFD"/>
<path fill-rule="evenodd" clip-rule="evenodd" d="M186 18C186 19.6575 184.658 21 183 21C181.342 21 180 19.6575 180 18C180 16.3425 181.342 15 183 15C184.658 15 186 16.3425 186 18Z" fill="#815EFD"/>
<path fill-rule="evenodd" clip-rule="evenodd" d="M140 34C140 35.6575 138.658 37 137 37C135.342 37 134 35.6575 134 34C134 32.3425 135.342 31 137 31C138.658 31 140 32.3425 140 34Z" fill="#815EFD"/>
<path fill-rule="evenodd" clip-rule="evenodd" d="M155 34C155 35.6575 153.658 37 152 37C150.342 37 149 35.6575 149 34C149 32.3425 150.342 31 152 31C153.658 31 155 32.3425 155 34Z" fill="#815EFD"/>
<path fill-rule="evenodd" clip-rule="evenodd" d="M170 34C170 35.6575 168.658 37 167 37C165.342 37 164 35.6575 164 34C164 32.3425 165.342 31 167 31C168.658 31 170 32.3425 170 34Z" fill="#815EFD"/>
<path fill-rule="evenodd" clip-rule="evenodd" d="M186 34C186 35.6575 184.658 37 183 37C181.342 37 180 35.6575 180 34C180 32.3425 181.342 31 183 31C184.658 31 186 32.3425 186 34Z" fill="#815EFD"/>
<path fill-rule="evenodd" clip-rule="evenodd" d="M140 49C140 50.6575 138.658 52 137 52C135.342 52 134 50.6575 134 49C134 47.3425 135.342 46 137 46C138.658 46 140 47.3425 140 49Z" fill="#815EFD"/>
<path fill-rule="evenodd" clip-rule="evenodd" d="M155 49C155 50.6575 153.658 52 152 52C150.342 52 149 50.6575 149 49C149 47.3425 150.342 46 152 46C153.658 46 155 47.3425 155 49Z" fill="#815EFD"/>
<path fill-rule="evenodd" clip-rule="evenodd" d="M170 49C170 50.6575 168.658 52 167 52C165.342 52 164 50.6575 164 49C164 47.3425 165.342 46 167 46C168.658 46 170 47.3425 170 49Z" fill="#815EFD"/>
<path fill-rule="evenodd" clip-rule="evenodd" d="M186 49C186 50.6575 184.658 52 183 52C181.342 52 180 50.6575 180 49C180 47.3425 181.342 46 183 46C184.658 46 186 47.3425 186 49Z" fill="#815EFD"/>
<path fill-rule="evenodd" clip-rule="evenodd" d="M140 65C140 66.6575 138.658 68 137 68C135.342 68 134 66.6575 134 65C134 63.3425 135.342 62 137 62C138.658 62 140 63.3425 140 65Z" fill="#815EFD"/>
<path fill-rule="evenodd" clip-rule="evenodd" d="M155 65C155 66.6575 153.658 68 152 68C150.342 68 149 66.6575 149 65C149 63.3425 150.342 62 152 62C153.658 62 155 63.3425 155 65Z" fill="#815EFD"/>
<path fill-rule="evenodd" clip-rule="evenodd" d="M170 65C170 66.6575 168.658 68 167 68C165.342 68 164 66.6575 164 65C164 63.3425 165.342 62 167 62C168.658 62 170 63.3425 170 65Z" fill="#815EFD"/>
<path fill-rule="evenodd" clip-rule="evenodd" d="M186 65C186 66.6575 184.658 68 183 68C181.342 68 180 66.6575 180 65C180 63.3425 181.342 62 183 62C184.658 62 186 63.3425 186 65Z" fill="#815EFD"/>
<path fill-rule="evenodd" clip-rule="evenodd" d="M140 80C140 81.6575 138.658 83 137 83C135.342 83 134 81.6575 134 80C134 78.3425 135.342 77 137 77C138.658 77 140 78.3425 140 80Z" fill="#815EFD"/>
<path fill-rule="evenodd" clip-rule="evenodd" d="M155 80C155 81.6575 153.658 83 152 83C150.342 83 149 81.6575 149 80C149 78.3425 150.342 77 152 77C153.658 77 155 78.3425 155 80Z" fill="#815EFD"/>
<path fill-rule="evenodd" clip-rule="evenodd" d="M170 80C170 81.6575 168.658 83 167 83C165.342 83 164 81.6575 164 80C164 78.3425 165.342 77 167 77C168.658 77 170 78.3425 170 80Z" fill="#815EFD"/>
<path fill-rule="evenodd" clip-rule="evenodd" d="M186 80C186 81.6575 184.658 83 183 83C181.342 83 180 81.6575 180 80C180 78.3425 181.342 77 183 77C184.658 77 186 78.3425 186 80Z" fill="#815EFD"/>
<path fill-rule="evenodd" clip-rule="evenodd" d="M140 96C140 97.6575 138.658 99 137 99C135.342 99 134 97.6575 134 96C134 94.3425 135.342 93 137 93C138.658 93 140 94.3425 140 96Z" fill="#815EFD"/>
<path fill-rule="evenodd" clip-rule="evenodd" d="M155 96C155 97.6575 153.658 99 152 99C150.342 99 149 97.6575 149 96C149 94.3425 150.342 93 152 93C153.658 93 155 94.3425 155 96Z" fill="#815EFD"/>
<path fill-rule="evenodd" clip-rule="evenodd" d="M170 96C170 97.6575 168.658 99 167 99C165.342 99 164 97.6575 164 96C164 94.3425 165.342 93 167 93C168.658 93 170 94.3425 170 96Z" fill="#815EFD"/>
<path fill-rule="evenodd" clip-rule="evenodd" d="M186 96C186 97.6575 184.658 99 183 99C181.342 99 180 97.6575 180 96C180 94.3425 181.342 93 183 93C184.658 93 186 94.3425 186 96Z" fill="#815EFD"/>
<path fill-rule="evenodd" clip-rule="evenodd" d="M140 111C140 112.658 138.658 114 137 114C135.342 114 134 112.658 134 111C134 109.342 135.342 108 137 108C138.658 108 140 109.342 140 111Z" fill="#815EFD"/>
<path fill-rule="evenodd" clip-rule="evenodd" d="M155 111C155 112.658 153.658 114 152 114C150.342 114 149 112.658 149 111C149 109.342 150.342 108 152 108C153.658 108 155 109.342 155 111Z" fill="#815EFD"/>
<path fill-rule="evenodd" clip-rule="evenodd" d="M170 111C170 112.658 168.658 114 167 114C165.342 114 164 112.658 164 111C164 109.342 165.342 108 167 108C168.658 108 170 109.342 170 111Z" fill="#815EFD"/>
<path fill-rule="evenodd" clip-rule="evenodd" d="M186 111C186 112.658 184.658 114 183 114C181.342 114 180 112.658 180 111C180 109.342 181.342 108 183 108C184.658 108 186 109.342 186 111Z" fill="#815EFD"/>
<path fill-rule="evenodd" clip-rule="evenodd" d="M140 126C140 127.658 138.658 129 137 129C135.342 129 134 127.658 134 126C134 124.342 135.342 123 137 123C138.658 123 140 124.342 140 126Z" fill="#815EFD"/>
<path fill-rule="evenodd" clip-rule="evenodd" d="M155 126C155 127.658 153.658 129 152 129C150.342 129 149 127.658 149 126C149 124.342 150.342 123 152 123C153.658 123 155 124.342 155 126Z" fill="#815EFD"/>
<path fill-rule="evenodd" clip-rule="evenodd" d="M170 126C170 127.658 168.658 129 167 129C165.342 129 164 127.658 164 126C164 124.342 165.342 123 167 123C168.658 123 170 124.342 170 126Z" fill="#815EFD"/>
<path fill-rule="evenodd" clip-rule="evenodd" d="M186 126C186 127.658 184.658 129 183 129C181.342 129 180 127.658 180 126C180 124.342 181.342 123 183 123C184.658 123 186 124.342 186 126Z" fill="#815EFD"/>
<path fill-rule="evenodd" clip-rule="evenodd" d="M140 142C140 143.658 138.658 145 137 145C135.342 145 134 143.658 134 142C134 140.342 135.342 139 137 139C138.658 139 140 140.342 140 142Z" fill="#815EFD"/>
<path fill-rule="evenodd" clip-rule="evenodd" d="M155 142C155 143.658 153.658 145 152 145C150.342 145 149 143.658 149 142C149 140.342 150.342 139 152 139C153.658 139 155 140.342 155 142Z" fill="#815EFD"/>
<path fill-rule="evenodd" clip-rule="evenodd" d="M170 142C170 143.658 168.658 145 167 145C165.342 145 164 143.658 164 142C164 140.342 165.342 139 167 139C168.658 139 170 140.342 170 142Z" fill="#815EFD"/>
<path fill-rule="evenodd" clip-rule="evenodd" d="M186 142C186 143.658 184.658 145 183 145C181.342 145 180 143.658 180 142C180 140.342 181.342 139 183 139C184.658 139 186 140.342 186 142Z" fill="#815EFD"/>
<path fill-rule="evenodd" clip-rule="evenodd" d="M140 157C140 158.658 138.658 160 137 160C135.342 160 134 158.658 134 157C134 155.342 135.342 154 137 154C138.658 154 140 155.342 140 157Z" fill="#815EFD"/>
<path fill-rule="evenodd" clip-rule="evenodd" d="M155 157C155 158.658 153.658 160 152 160C150.342 160 149 158.658 149 157C149 155.342 150.342 154 152 154C153.658 154 155 155.342 155 157Z" fill="#815EFD"/>
<path fill-rule="evenodd" clip-rule="evenodd" d="M170 157C170 158.658 168.658 160 167 160C165.342 160 164 158.658 164 157C164 155.342 165.342 154 167 154C168.658 154 170 155.342 170 157Z" fill="#815EFD"/>
<path fill-rule="evenodd" clip-rule="evenodd" d="M186 157C186 158.658 184.658 160 183 160C181.342 160 180 158.658 180 157C180 155.342 181.342 154 183 154C184.658 154 186 155.342 186 157Z" fill="#815EFD"/>
<path fill-rule="evenodd" clip-rule="evenodd" d="M140 173C140 174.658 138.658 176 137 176C135.342 176 134 174.658 134 173C134 171.342 135.342 170 137 170C138.658 170 140 171.342 140 173Z" fill="#815EFD"/>
<path fill-rule="evenodd" clip-rule="evenodd" d="M155 173C155 174.658 153.658 176 152 176C150.342 176 149 174.658 149 173C149 171.342 150.342 170 152 170C153.658 170 155 171.342 155 173Z" fill="#815EFD"/>
<path fill-rule="evenodd" clip-rule="evenodd" d="M170 173C170 174.658 168.658 176 167 176C165.342 176 164 174.658 164 173C164 171.342 165.342 170 167 170C168.658 170 170 171.342 170 173Z" fill="#815EFD"/>
<path fill-rule="evenodd" clip-rule="evenodd" d="M186 173C186 174.658 184.658 176 183 176C181.342 176 180 174.658 180 173C180 171.342 181.342 170 183 170C184.658 170 186 171.342 186 173Z" fill="#815EFD"/>
<path fill-rule="evenodd" clip-rule="evenodd" d="M140 188C140 189.658 138.658 191 137 191C135.342 191 134 189.658 134 188C134 186.342 135.342 185 137 185C138.658 185 140 186.342 140 188Z" fill="#815EFD"/>
<path fill-rule="evenodd" clip-rule="evenodd" d="M155 188C155 189.658 153.658 191 152 191C150.342 191 149 189.658 149 188C149 186.342 150.342 185 152 185C153.658 185 155 186.342 155 188Z" fill="#815EFD"/>
<path fill-rule="evenodd" clip-rule="evenodd" d="M170 188C170 189.658 168.658 191 167 191C165.342 191 164 189.658 164 188C164 186.342 165.342 185 167 185C168.658 185 170 186.342 170 188Z" fill="#815EFD"/>
<path fill-rule="evenodd" clip-rule="evenodd" d="M186 188C186 189.658 184.658 191 183 191C181.342 191 180 189.658 180 188C180 186.342 181.342 185 183 185C184.658 185 186 186.342 186 188Z" fill="#815EFD"/>
<path fill-rule="evenodd" clip-rule="evenodd" d="M140 3C140 4.6575 138.658 6 137 6C135.342 6 134 4.6575 134 3C134 1.3425 135.342 0 137 0C138.658 0 140 1.3425 140 3Z" fill="#815EFD"/>
<path fill-rule="evenodd" clip-rule="evenodd" d="M155 3C155 4.6575 153.658 6 152 6C150.342 6 149 4.6575 149 3C149 1.3425 150.342 0 152 0C153.658 0 155 1.3425 155 3Z" fill="#815EFD"/>
<path fill-rule="evenodd" clip-rule="evenodd" d="M170 3C170 4.6575 168.658 6 167 6C165.342 6 164 4.6575 164 3C164 1.3425 165.342 0 167 0C168.658 0 170 1.3425 170 3Z" fill="#815EFD"/>
<path fill-rule="evenodd" clip-rule="evenodd" d="M186 3C186 4.6575 184.658 6 183 6C181.342 6 180 4.6575 180 3C180 1.3425 181.342 0 183 0C184.658 0 186 1.3425 186 3Z" fill="#815EFD"/>
</g>
</svg>
