<svg width="52" height="52" viewBox="0 0 52 52" fill="none" xmlns="http://www.w3.org/2000/svg">
<g opacity="0.2">
<path fill-rule="evenodd" clip-rule="evenodd" d="M6 18C6 19.6575 4.6575 21 3 21C1.3425 21 0 19.6575 0 18C0 16.3425 1.3425 15 3 15C4.6575 15 6 16.3425 6 18Z" fill="#815EFD"/>
<path fill-rule="evenodd" clip-rule="evenodd" d="M21 18C21 19.6575 19.6575 21 18 21C16.3425 21 15 19.6575 15 18C15 16.3425 16.3425 15 18 15C19.6575 15 21 16.3425 21 18Z" fill="#815EFD"/>
<path fill-rule="evenodd" clip-rule="evenodd" d="M36 18C36 19.6575 34.6575 21 33 21C31.3425 21 30 19.6575 30 18C30 16.3425 31.3425 15 33 15C34.6575 15 36 16.3425 36 18Z" fill="#815EFD"/>
<path fill-rule="evenodd" clip-rule="evenodd" d="M52 18C52 19.6575 50.6575 21 49 21C47.3425 21 46 19.6575 46 18C46 16.3425 47.3425 15 49 15C50.6575 15 52 16.3425 52 18Z" fill="#815EFD"/>
<path fill-rule="evenodd" clip-rule="evenodd" d="M6 34C6 35.6575 4.6575 37 3 37C1.3425 37 0 35.6575 0 34C0 32.3425 1.3425 31 3 31C4.6575 31 6 32.3425 6 34Z" fill="#815EFD"/>
<path fill-rule="evenodd" clip-rule="evenodd" d="M21 34C21 35.6575 19.6575 37 18 37C16.3425 37 15 35.6575 15 34C15 32.3425 16.3425 31 18 31C19.6575 31 21 32.3425 21 34Z" fill="#815EFD"/>
<path fill-rule="evenodd" clip-rule="evenodd" d="M36 34C36 35.6575 34.6575 37 33 37C31.3425 37 30 35.6575 30 34C30 32.3425 31.3425 31 33 31C34.6575 31 36 32.3425 36 34Z" fill="#815EFD"/>
<path fill-rule="evenodd" clip-rule="evenodd" d="M52 34C52 35.6575 50.6575 37 49 37C47.3425 37 46 35.6575 46 34C46 32.3425 47.3425 31 49 31C50.6575 31 52 32.3425 52 34Z" fill="#815EFD"/>
<path fill-rule="evenodd" clip-rule="evenodd" d="M6 49C6 50.6575 4.6575 52 3 52C1.3425 52 0 50.6575 0 49C0 47.3425 1.3425 46 3 46C4.6575 46 6 47.3425 6 49Z" fill="#815EFD"/>
<path fill-rule="evenodd" clip-rule="evenodd" d="M21 49C21 50.6575 19.6575 52 18 52C16.3425 52 15 50.6575 15 49C15 47.3425 16.3425 46 18 46C19.6575 46 21 47.3425 21 49Z" fill="#815EFD"/>
<path fill-rule="evenodd" clip-rule="evenodd" d="M36 49C36 50.6575 34.6575 52 33 52C31.3425 52 30 50.6575 30 49C30 47.3425 31.3425 46 33 46C34.6575 46 36 47.3425 36 49Z" fill="#815EFD"/>
<path fill-rule="evenodd" clip-rule="evenodd" d="M52 49C52 50.6575 50.6575 52 49 52C47.3425 52 46 50.6575 46 49C46 47.3425 47.3425 46 49 46C50.6575 46 52 47.3425 52 49Z" fill="#815EFD"/>
<path fill-rule="evenodd" clip-rule="evenodd" d="M6 3C6 4.6575 4.6575 6 3 6C1.3425 6 0 4.6575 0 3C0 1.3425 1.3425 0 3 0C4.6575 0 6 1.3425 6 3Z" fill="#815EFD"/>
<path fill-rule="evenodd" clip-rule="evenodd" d="M21 3C21 4.6575 19.6575 6 18 6C16.3425 6 15 4.6575 15 3C15 1.3425 16.3425 0 18 0C19.6575 0 21 1.3425 21 3Z" fill="#815EFD"/>
<path fill-rule="evenodd" clip-rule="evenodd" d="M36 3C36 4.6575 34.6575 6 33 6C31.3425 6 30 4.6575 30 3C30 1.3425 31.3425 0 33 0C34.6575 0 36 1.3425 36 3Z" fill="#815EFD"/>
<path fill-rule="evenodd" clip-rule="evenodd" d="M52 3C52 4.6575 50.6575 6 49 6C47.3425 6 46 4.6575 46 3C46 1.3425 47.3425 0 49 0C50.6575 0 52 1.3425 52 3Z" fill="#815EFD"/>
</g>
</svg>
