<svg width="78" height="50" viewBox="0 0 78 50" fill="none" xmlns="http://www.w3.org/2000/svg">
<g opacity="0.6">
<g clip-path="url(#clip0_5301_1566)">
<path d="M19.2139 4.92285C17.428 7.54706 16.002 11.1081 16.002 15.7861V17.2861H17.501C26.1372 17.2884 33.1279 24.252 33.1279 32.8291C33.1279 41.4088 26.1395 48.371 17.502 48.3711C13.1077 48.3711 9.11704 46.8873 6.23633 44.1533C3.37015 41.4331 1.5 37.3782 1.5 32.0225C1.50008 22.4161 5.7289 15.6192 10.791 10.8877C13.5431 8.31544 16.5369 6.36306 19.2139 4.92285Z" stroke="#C7DAFF" stroke-width="3"/>
<path d="M62.585 4.92383C60.7988 7.54827 59.3721 11.1102 59.3721 15.7891V17.2891H60.8721C69.5122 17.2891 76.5 24.2518 76.5 32.8291C76.5 41.4089 69.5119 48.371 60.875 48.3711C56.4811 48.3711 52.4902 46.8873 49.6094 44.1533C46.7432 41.433 44.873 37.3781 44.873 32.0225C44.8731 22.4162 49.1011 15.6192 54.1631 10.8877C56.9146 8.31585 59.9084 6.364 62.585 4.92383Z" stroke="#C7DAFF" stroke-width="3"/>
</g>
</g>
<defs>
<clipPath id="clip0_5301_1566">
<rect y="0.871094" width="78" height="49" fill="white"/>
</clipPath>
</defs>
</svg>
