<svg width="122" height="22" viewBox="0 0 122 22" fill="none" xmlns="http://www.w3.org/2000/svg">
<path d="M4.21145 21.7187H0V1.54731H14.7327V5.5844H4.21145V9.62148H10.5213V13.6586H4.21145V21.7187Z" fill="#272D4E"/>
<path d="M21.204 2.5601C21.204 2.91645 21.1306 3.24936 20.9839 3.55882C20.8469 3.86829 20.6562 4.14024 20.4116 4.37468C20.167 4.59974 19.8784 4.78261 19.5458 4.92327C19.223 5.05456 18.8757 5.1202 18.504 5.1202C18.1322 5.1202 17.78 5.05456 17.4474 4.92327C17.1246 4.78261 16.8409 4.59974 16.5963 4.37468C16.3616 4.14024 16.1708 3.86829 16.0241 3.55882C15.8871 3.24936 15.8186 2.91645 15.8186 2.5601C15.8186 2.21313 15.8871 1.88491 16.0241 1.57545C16.1708 1.25661 16.3616 0.984655 16.5963 0.759591C16.8409 0.525149 17.1246 0.342285 17.4474 0.210997C17.78 0.0703325 18.1322 0 18.504 0C18.8757 0 19.223 0.0703325 19.5458 0.210997C19.8784 0.342285 20.167 0.525149 20.4116 0.759591C20.6562 0.984655 20.8469 1.25661 20.9839 1.57545C21.1306 1.88491 21.204 2.21313 21.204 2.5601ZM20.5143 21.7187H16.479V6.65345H20.5143V21.7187Z" fill="#272D4E"/>
<path d="M27.5872 21.7187H23.5812V6.65345H24.5497L25.8703 8.11637C26.516 7.55371 27.2448 7.12234 28.0568 6.82225C28.8785 6.51279 29.7345 6.35806 30.6247 6.35806C31.5834 6.35806 32.4883 6.53623 33.3394 6.89258C34.1905 7.23956 34.934 7.72251 35.5699 8.34143C36.2058 8.95098 36.7047 9.66837 37.0666 10.4936C37.4384 11.3095 37.6242 12.1816 37.6242 13.11V21.7187H33.6182V13.11C33.6182 12.7161 33.54 12.3457 33.3834 11.9987C33.2269 11.6424 33.0117 11.3329 32.7378 11.0703C32.4639 10.8078 32.1459 10.6014 31.784 10.4514C31.422 10.3014 31.0356 10.2263 30.6247 10.2263C30.2041 10.2263 29.8079 10.3014 29.4361 10.4514C29.0644 10.6014 28.7416 10.8078 28.4676 11.0703C28.1937 11.3329 27.9785 11.6424 27.822 11.9987C27.6655 12.3457 27.5872 12.7161 27.5872 13.11V21.7187Z" fill="#272D4E"/>
<path d="M55.7027 21.7187H54.7342L53.1787 19.6509C52.7972 19.9791 52.3912 20.2886 51.9608 20.5793C51.5401 20.8606 51.095 21.1091 50.6255 21.3248C50.1559 21.5311 49.6716 21.6952 49.1727 21.8171C48.6836 21.939 48.1847 22 47.676 22C46.5705 22 45.5287 21.8218 44.5504 21.4655C43.5819 21.1091 42.7308 20.5933 41.9971 19.9182C41.2732 19.2336 40.7009 18.399 40.2802 17.4143C39.8596 16.4297 39.6493 15.309 39.6493 14.0524C39.6493 12.8802 39.8596 11.8065 40.2802 10.8312C40.7009 9.84655 41.2732 9.00256 41.9971 8.29923C42.7308 7.59591 43.5819 7.052 44.5504 6.66752C45.5287 6.27366 46.5705 6.07673 47.676 6.07673C48.1847 6.07673 48.6885 6.13768 49.1874 6.25959C49.6863 6.3815 50.1706 6.5503 50.6401 6.76598C51.1097 6.98167 51.5548 7.23487 51.9755 7.52558C52.4059 7.81628 52.807 8.13043 53.1787 8.46803L54.7342 6.68159H55.7027V21.7187ZM51.6673 14.0524C51.6673 13.5273 51.5597 13.0209 51.3445 12.5332C51.139 12.0362 50.8553 11.6002 50.4934 11.2251C50.1314 10.8406 49.7059 10.5358 49.2167 10.3107C48.7374 10.0763 48.2238 9.95908 47.676 9.95908C47.1281 9.95908 46.6097 10.0482 46.1205 10.2263C45.6412 10.4045 45.2205 10.6671 44.8586 11.0141C44.5064 11.361 44.2276 11.7924 44.0221 12.3082C43.8167 12.8146 43.714 13.396 43.714 14.0524C43.714 14.7089 43.8167 15.295 44.0221 15.8107C44.2276 16.3171 44.5064 16.7438 44.8586 17.0908C45.2205 17.4378 45.6412 17.7003 46.1205 17.8785C46.6097 18.0567 47.1281 18.1458 47.676 18.1458C48.2238 18.1458 48.7374 18.0332 49.2167 17.8082C49.7059 17.5737 50.1314 17.269 50.4934 16.8939C50.8553 16.5094 51.139 16.0733 51.3445 15.5857C51.5597 15.0887 51.6673 14.5776 51.6673 14.0524Z" fill="#272D4E"/>
<path d="M62.7756 21.7187H58.7695V6.65345H59.738L61.0587 8.11637C61.7043 7.55371 62.4332 7.12234 63.2451 6.82225C64.0669 6.51279 64.9229 6.35806 65.8131 6.35806C66.7718 6.35806 67.6767 6.53623 68.5278 6.89258C69.3789 7.23956 70.1224 7.72251 70.7582 8.34143C71.3941 8.95098 71.893 9.66837 72.255 10.4936C72.6267 11.3095 72.8126 12.1816 72.8126 13.11V21.7187H68.8066V13.11C68.8066 12.7161 68.7283 12.3457 68.5718 11.9987C68.4153 11.6424 68.2001 11.3329 67.9261 11.0703C67.6522 10.8078 67.3343 10.6014 66.9723 10.4514C66.6104 10.3014 66.224 10.2263 65.8131 10.2263C65.3924 10.2263 64.9962 10.3014 64.6245 10.4514C64.2527 10.6014 63.9299 10.8078 63.656 11.0703C63.3821 11.3329 63.1669 11.6424 63.0103 11.9987C62.8538 12.3457 62.7756 12.7161 62.7756 13.11V21.7187Z" fill="#272D4E"/>
<path d="M89.4089 9.64962L86.4741 12.477C86.3274 12.0831 86.1269 11.7315 85.8725 11.422C85.6181 11.1032 85.3296 10.8359 85.0067 10.6202C84.6937 10.4045 84.3513 10.2404 83.9796 10.1279C83.6078 10.0153 83.2263 9.95908 82.835 9.95908C82.2871 9.95908 81.7687 10.0669 81.2795 10.2826C80.8002 10.4983 80.3795 10.8031 80.0176 11.1969C79.6654 11.5814 79.3866 12.0409 79.1811 12.5754C78.9757 13.11 78.873 13.7008 78.873 14.3478C78.873 14.873 78.9757 15.3653 79.1811 15.8248C79.3866 16.2843 79.6654 16.6876 80.0176 17.0345C80.3795 17.3815 80.8002 17.6535 81.2795 17.8504C81.7687 18.0473 82.2871 18.1458 82.835 18.1458C83.2263 18.1458 83.6029 18.0942 83.9649 17.991C84.3268 17.8879 84.6643 17.7425 84.9774 17.555C85.3002 17.3581 85.5839 17.1236 85.8285 16.8517C86.0828 16.5703 86.2883 16.2609 86.4448 15.9233L89.3796 18.7506C89.0079 19.257 88.5774 19.7118 88.0883 20.1151C87.6089 20.5183 87.0856 20.8606 86.5182 21.1419C85.9605 21.4233 85.3687 21.6343 84.7426 21.7749C84.1263 21.925 83.4904 22 82.835 22C81.7295 22 80.6877 21.8031 79.7094 21.4092C78.7409 21.006 77.8898 20.4574 77.1561 19.7634C76.4322 19.0695 75.8599 18.2583 75.4393 17.3299C75.0186 16.4015 74.8083 15.4075 74.8083 14.3478C74.8083 13.1944 75.0186 12.1159 75.4393 11.1125C75.8599 10.1091 76.4322 9.237 77.1561 8.49616C77.8898 7.74595 78.7409 7.15516 79.7094 6.72378C80.6877 6.29241 81.7295 6.07673 82.835 6.07673C83.4904 6.07673 84.1312 6.15644 84.7573 6.31586C85.3932 6.47528 85.9948 6.70972 86.5622 7.01918C87.1394 7.31927 87.6676 7.68968 88.147 8.13043C88.6361 8.57119 89.0568 9.07758 89.4089 9.64962Z" fill="#272D4E"/>
<path d="M97.3916 18.0332C97.5481 18.0801 97.7047 18.113 97.8612 18.1317C98.0177 18.1411 98.1742 18.1458 98.3308 18.1458C98.7221 18.1458 99.0987 18.0942 99.4607 17.991C99.8226 17.8879 100.16 17.7425 100.473 17.555C100.796 17.3581 101.08 17.1236 101.324 16.8517C101.579 16.5703 101.784 16.2609 101.941 15.9233L104.875 18.7506C104.504 19.257 104.073 19.7118 103.584 20.1151C103.105 20.5183 102.581 20.8606 102.014 21.1419C101.456 21.4233 100.864 21.6343 100.238 21.7749C99.6221 21.925 98.9862 22 98.3308 22C97.2253 22 96.1835 21.8031 95.2052 21.4092C94.2367 21.0153 93.3856 20.4668 92.6519 19.7634C91.928 19.0601 91.3557 18.2255 90.9351 17.2596C90.5144 16.2843 90.3041 15.2153 90.3041 14.0524C90.3041 12.8615 90.5144 11.7737 90.9351 10.789C91.3557 9.80435 91.928 8.96505 92.6519 8.2711C93.3856 7.57715 94.2367 7.03794 95.2052 6.65345C96.1835 6.26897 97.2253 6.07673 98.3308 6.07673C98.9862 6.07673 99.627 6.15175 100.253 6.30179C100.879 6.45183 101.471 6.66752 102.029 6.94885C102.596 7.23018 103.124 7.57715 103.613 7.98977C104.103 8.39301 104.533 8.84783 104.905 9.35422L97.3916 18.0332ZM99.446 10.1138C99.2601 10.0482 99.0742 10.006 98.8884 9.98721C98.7123 9.96846 98.5264 9.95908 98.3308 9.95908C97.7829 9.95908 97.2645 10.0575 96.7753 10.2545C96.296 10.442 95.8753 10.714 95.5133 11.0703C95.1612 11.4267 94.8824 11.8581 94.6769 12.3645C94.4715 12.8615 94.3688 13.4241 94.3688 14.0524C94.3688 14.1931 94.3737 14.3525 94.3834 14.5307C94.403 14.7089 94.4275 14.8917 94.4568 15.0793C94.4959 15.2575 94.54 15.4309 94.5889 15.5997C94.6378 15.7685 94.7014 15.9186 94.7796 16.0499L99.446 10.1138Z" fill="#272D4E"/>
<path d="M122 21.7187H121.032L119.476 19.6509C119.095 19.9791 118.689 20.2886 118.258 20.5793C117.837 20.8606 117.392 21.1091 116.923 21.3248C116.453 21.5311 115.969 21.6952 115.47 21.8171C114.981 21.939 114.482 22 113.973 22C112.868 22 111.826 21.8031 110.848 21.4092C109.879 21.006 109.028 20.4527 108.294 19.7494C107.571 19.0367 106.998 18.1974 106.578 17.2315C106.157 16.2562 105.947 15.1965 105.947 14.0524C105.947 12.9177 106.157 11.8627 106.578 10.8875C106.998 9.91219 107.571 9.0682 108.294 8.3555C109.028 7.6428 109.879 7.08483 110.848 6.68159C111.826 6.27835 112.868 6.07673 113.973 6.07673C114.325 6.07673 114.687 6.10486 115.059 6.16113C115.441 6.21739 115.808 6.31117 116.16 6.44245C116.522 6.56436 116.859 6.72847 117.172 6.93478C117.485 7.14109 117.749 7.39429 117.965 7.69437V0.661125H122V21.7187ZM117.965 14.0524C117.965 13.5273 117.857 13.0209 117.642 12.5332C117.436 12.0362 117.153 11.6002 116.791 11.2251C116.429 10.8406 116.003 10.5358 115.514 10.3107C115.035 10.0763 114.521 9.95908 113.973 9.95908C113.425 9.95908 112.907 10.0529 112.418 10.2404C111.938 10.428 111.518 10.6999 111.156 11.0563C110.804 11.4032 110.525 11.8299 110.319 12.3363C110.114 12.8427 110.011 13.4147 110.011 14.0524C110.011 14.6057 110.114 15.1309 110.319 15.6279C110.525 16.1249 110.804 16.561 111.156 16.9361C111.518 17.3112 111.938 17.6066 112.418 17.8223C112.907 18.0379 113.425 18.1458 113.973 18.1458C114.521 18.1458 115.035 18.0332 115.514 17.8082C116.003 17.5737 116.429 17.269 116.791 16.8939C117.153 16.5094 117.436 16.0733 117.642 15.5857C117.857 15.0887 117.965 14.5776 117.965 14.0524Z" fill="#272D4E"/>
<path d="M21.2057 2.5601C21.2057 2.91645 21.1323 3.24936 20.9856 3.55882C20.8486 3.86829 20.6579 4.14024 20.4133 4.37468C20.1687 4.59974 19.8801 4.78261 19.5475 4.92327C19.2247 5.05456 18.8774 5.1202 18.5057 5.1202C18.1339 5.1202 17.7817 5.05456 17.4491 4.92327C17.1263 4.78261 16.8426 4.59974 16.598 4.37468C16.3633 4.14024 16.1725 3.86829 16.0257 3.55882C15.8888 3.24936 15.8203 2.91645 15.8203 2.5601C15.8203 2.21313 15.8888 1.88491 16.0257 1.57545C16.1725 1.25661 16.3633 0.984655 16.598 0.759591C16.8426 0.525149 17.1263 0.342285 17.4491 0.210997C17.7817 0.0703325 18.1339 0 18.5057 0C18.8774 0 19.2247 0.0703325 19.5475 0.210997C19.8801 0.342285 20.1687 0.525149 20.4133 0.759591C20.6579 0.984655 20.8486 1.25661 20.9856 1.57545C21.1323 1.88491 21.2057 2.21313 21.2057 2.5601Z" fill="#815EFD"/>
</svg>
