<svg width="118" height="57" viewBox="0 0 118 57" fill="none" xmlns="http://www.w3.org/2000/svg">
<path d="M30.8652 11.2383H42.7904V13.5246H38.2038V25.8705H35.4518V13.5246H30.8652V11.2383ZM42.1024 15.125H44.3957V17.1826C44.3957 16.954 44.625 16.7254 44.8543 16.2681C45.0836 15.8108 45.313 15.8108 45.5423 15.5822C45.7716 15.3536 46.2303 15.125 46.4596 15.125C46.6889 14.8963 47.1476 14.8963 47.6063 14.8963C47.8356 14.8963 48.0649 14.8963 48.0649 14.8963H48.2943V17.1826C48.0649 17.1826 48.0649 17.1826 47.8356 17.1826C47.6063 17.1826 47.6063 17.1826 47.3769 17.1826C46.9183 17.1826 46.6889 17.1826 46.2303 17.4112C45.7716 17.6399 45.5423 17.8685 45.313 18.0971C45.0836 18.3258 44.8543 18.783 44.625 19.2403C44.3957 19.6975 44.3957 20.1548 44.3957 20.8407V25.8705H42.1024V15.125ZM59.0727 25.8705H56.7794V24.4987C56.5501 24.956 56.0914 25.4132 55.4035 25.8705C54.9448 26.0991 54.2568 26.3277 53.5688 26.3277C52.1928 26.3277 51.2755 26.0991 50.5875 25.1846C49.8996 24.2701 49.6702 23.3556 49.6702 21.9838V15.3536H51.9635V21.7552C51.9635 22.6697 52.1928 23.3556 52.4222 23.8128C52.8808 24.2701 53.3395 24.4987 54.0275 24.4987C54.4861 24.4987 54.9448 24.4987 55.1741 24.2701C55.4035 24.0415 55.8621 23.8128 55.8621 23.5842C56.0914 23.3556 56.3208 23.1269 56.3208 22.6697C56.3208 22.2124 56.5501 21.9838 56.5501 21.5266V15.3536H58.8434V25.8705H59.0727ZM62.9713 22.4411C62.9713 23.1269 63.2006 23.5842 63.6593 23.8128C64.118 24.0415 64.5766 24.2701 65.2646 24.2701C65.4939 24.2701 65.7233 24.2701 65.9526 24.2701C66.1819 24.2701 66.4113 24.2701 66.6406 24.0415C66.8699 24.0415 67.0992 23.8128 67.3286 23.5842C67.5579 23.3556 67.5579 23.127 67.5579 22.8983C67.5579 22.6697 67.3286 22.4411 67.3286 22.2124C67.0992 21.9838 66.8699 21.9838 66.6406 21.7552C66.4113 21.7552 65.9526 21.5266 65.4939 21.5266C65.0353 21.5266 64.5766 21.2979 64.3473 21.2979C63.8886 21.2979 63.43 21.0693 63.2006 20.8407C62.9713 20.612 62.5127 20.612 62.054 20.3834C61.8247 20.1548 61.366 19.9262 61.366 19.4689C61.1367 19.0116 61.1367 18.5544 61.1367 18.0971C61.1367 17.4112 61.366 16.954 61.5953 16.7254C61.8247 16.4967 62.2833 16.0395 62.742 15.8108C63.2007 15.5822 63.6593 15.3536 64.118 15.3536C64.5766 15.3536 65.2646 15.125 65.7233 15.125C66.1819 15.125 66.8699 15.125 67.3286 15.3536C67.7872 15.3536 68.2459 15.5822 68.7045 15.8108C69.1632 16.0395 69.3925 16.4967 69.6219 16.7254C69.8512 17.1826 70.0805 17.6399 70.0805 18.3258H67.5579C67.5579 17.8685 67.0992 17.4112 66.8699 17.1826C66.1819 16.954 65.7233 16.7254 65.2646 16.7254C65.0353 16.7254 64.806 16.7254 64.5766 16.7254C64.3473 16.7254 64.118 16.7254 63.8886 16.954C63.6593 16.954 63.43 17.1826 63.43 17.1826C63.2006 17.4112 63.2006 17.4112 63.2006 17.6399C63.2006 17.8685 63.2006 18.0971 63.43 18.3258C63.6593 18.5544 63.8886 18.5544 64.118 18.783C64.3473 18.783 64.806 19.0116 65.2646 19.0116C65.7233 19.0116 66.1819 19.2403 66.6406 19.2403C67.0992 19.2403 67.5579 19.4689 67.7872 19.6975C68.2459 19.9262 68.4752 19.9262 68.9339 20.1548C69.3925 20.3834 69.6219 20.612 69.6219 21.0693C69.8512 21.5266 69.8512 21.7552 69.8512 22.4411C69.8512 23.1269 69.6219 23.5842 69.3925 24.0415C69.1632 24.4987 68.7045 24.7273 68.2459 25.1846C68.0166 25.6419 67.5579 25.8705 67.0992 25.8705C66.6406 25.8705 65.9526 26.0991 65.4939 26.0991C64.806 26.0991 64.118 26.0991 63.6593 25.8705C63.2006 25.6419 62.5127 25.4132 62.2833 25.1846C61.8247 24.956 61.5953 24.4987 61.366 24.0415C60.9074 23.5842 60.678 23.1269 60.678 22.4411H62.9713ZM70.7685 15.125H72.6031V12.1528H74.8964V15.3536H76.9604V17.1826H74.8964V22.8983C74.8964 23.127 74.8964 23.3556 74.8964 23.5842C74.8964 23.8128 74.8964 23.8128 75.1258 24.0415C75.3551 24.2701 75.3551 24.2701 75.3551 24.2701C75.5844 24.2701 75.8138 24.2701 76.0431 24.2701C76.2724 24.2701 76.2724 24.2701 76.5017 24.2701C76.7311 24.2701 76.7311 24.2701 76.9604 24.2701V25.8705C76.7311 25.8705 76.5017 25.8705 76.2724 25.8705C76.0431 25.8705 75.8138 25.8705 75.5844 25.8705C74.8964 25.8705 74.4378 25.8705 74.2085 25.6419C73.7498 25.6419 73.5205 25.4132 73.2911 25.1846C73.0618 24.956 72.8325 24.7273 72.8325 24.2701C72.8325 24.0415 72.6031 23.5842 72.6031 23.1269V16.954H70.7685V15.125ZM78.5657 15.125H80.859V16.7254C81.0883 16.0395 81.547 15.5822 82.235 15.3536C82.923 15.125 83.3816 14.8963 84.0696 14.8963C84.9869 14.8963 85.6749 15.125 86.3629 15.3536C87.0509 15.5822 87.5095 16.0395 87.9682 16.4967C88.4269 16.954 88.6562 17.6399 88.8855 18.3258C89.1148 19.0116 89.1148 19.6975 89.1148 20.612C89.1148 21.2979 89.1148 21.9838 88.8855 22.6697C88.6562 23.3556 88.4269 23.8128 87.9682 24.4987C87.5095 24.956 87.0509 25.4132 86.5922 25.6419C85.9042 25.8705 85.4456 26.0991 84.5283 26.0991C84.2989 26.0991 83.8403 26.0991 83.6109 26.0991C83.3816 26.0991 82.923 25.8705 82.6936 25.8705C82.4643 25.6419 82.0056 25.6419 81.7763 25.4132C81.547 25.1846 81.3177 24.956 81.0883 24.7273V29.9858H78.795V15.125H78.5657ZM86.8216 20.612C86.8216 20.1548 86.8216 19.6975 86.5922 19.2403C86.3629 18.783 86.3629 18.3258 86.1336 18.0971C85.9042 17.8685 85.6749 17.4112 85.2163 17.1826C84.7576 16.954 84.5283 16.954 83.8403 16.954C82.923 16.954 82.0056 17.1826 81.547 17.8685C81.0883 18.5544 80.859 19.4689 80.859 20.612C80.859 21.0693 80.859 21.7552 81.0883 21.9838C81.3177 22.4411 81.3177 22.8983 81.7763 23.1269C82.0056 23.3556 82.235 23.8128 82.6936 23.8128C83.1523 24.0415 83.3816 24.0415 83.8403 24.0415C84.2989 24.0415 84.7576 24.0415 85.2163 23.8128C85.6749 23.5842 85.9042 23.3556 86.1336 22.8983C86.3629 22.4411 86.5922 22.2124 86.5922 21.7552C86.5922 21.5266 86.8216 21.0693 86.8216 20.612ZM90.9495 11.2383H93.2428V13.5246H90.9495V11.2383ZM90.9495 15.125H93.2428V25.8705H90.9495V15.125ZM95.3067 11.2383H97.6V25.8705H95.3067V11.2383ZM104.709 26.0991C103.792 26.0991 103.104 25.8705 102.416 25.6419C101.728 25.4132 101.269 24.956 100.811 24.4987C100.352 24.0415 99.8933 23.3556 99.664 22.6697C99.4347 21.9838 99.2053 21.2979 99.2053 20.3834C99.2053 19.4689 99.4347 18.783 99.664 18.0971C99.8933 17.4112 100.352 16.7254 100.811 16.2681C101.269 15.8108 101.728 15.3536 102.416 15.125C103.104 14.8963 103.792 14.6677 104.709 14.6677C105.627 14.6677 106.315 14.8963 107.003 15.125C107.691 15.3536 108.149 15.8108 108.608 16.2681C109.066 16.7254 109.525 17.4112 109.754 18.0971C109.984 18.783 110.213 19.4689 110.213 20.3834C110.213 21.2979 109.984 21.9838 109.754 22.6697C109.525 23.3556 109.066 24.0415 108.608 24.4987C108.149 24.956 107.691 25.4132 107.003 25.6419C106.315 25.8705 105.627 26.0991 104.709 26.0991ZM104.709 24.2701C105.168 24.2701 105.627 24.2701 106.085 24.0415C106.544 23.8128 106.773 23.5842 107.003 23.1269C107.232 22.6697 107.461 22.4411 107.461 21.9838C107.461 21.5265 107.691 21.0693 107.691 20.612C107.691 20.1548 107.691 19.6975 107.461 19.2403C107.461 18.783 107.232 18.3258 107.003 18.0971C106.773 17.8685 106.544 17.4112 106.085 17.1826C105.627 16.954 105.168 16.954 104.709 16.954C104.251 16.954 103.792 16.954 103.333 17.1826C102.875 17.4112 102.645 17.6399 102.416 18.0971C102.187 18.5544 101.957 18.783 101.957 19.2403C101.957 19.6975 101.728 20.1548 101.728 20.612C101.728 21.0693 101.728 21.5265 101.957 21.9838C101.957 22.4411 102.187 22.8983 102.416 23.1269C102.645 23.5842 102.875 23.8128 103.333 24.0415C103.792 24.0415 104.251 24.2701 104.709 24.2701ZM110.901 15.125H112.736V12.1528H115.029V15.3536H117.093V17.1826H115.029V22.8983C115.029 23.127 115.029 23.3556 115.029 23.5842C115.029 23.8128 115.029 23.8128 115.258 24.0415C115.488 24.2701 115.488 24.2701 115.488 24.2701C115.717 24.2701 115.946 24.2701 116.176 24.2701C116.405 24.2701 116.405 24.2701 116.634 24.2701C116.864 24.2701 116.864 24.2701 117.093 24.2701V25.8705C116.864 25.8705 116.634 25.8705 116.405 25.8705C116.176 25.8705 115.946 25.8705 115.717 25.8705C115.029 25.8705 114.57 25.8705 114.341 25.6419C113.882 25.6419 113.653 25.4132 113.424 25.1846C113.194 24.956 112.965 24.7273 112.965 24.2701C112.965 24.0415 112.736 23.5842 112.736 23.1269V16.954H110.901V15.125Z" fill="#191919"/>
<path d="M28.1129 11.2385H17.3345L14.1238 0.950195L10.6839 11.2385H0.134766L8.61995 17.4114L5.40934 27.6997L14.1238 21.2981L22.609 27.6997L19.3984 17.4114L28.1129 11.2385Z" fill="#00B67A"/>
<path d="M20.0876 19.6974L19.3996 17.4111L14.125 21.2978L20.0876 19.6974Z" fill="#005128"/>
<path d="M22.1504 34.1016H0.134766V56.0499H22.1504V34.1016Z" fill="#00B67A"/>
<path d="M45.7715 34.1016H23.7559V56.0499H45.7715V34.1016Z" fill="#00B67A"/>
<path d="M69.6211 34.1016H47.6055V56.0499H69.6211V34.1016Z" fill="#00B67A"/>
<path d="M93.2422 34.1016H71.2266V56.0499H93.2422V34.1016Z" fill="#00B67A"/>
<path d="M117.094 34.1016H95.0781V56.0499H117.094V34.1016Z" fill="#DCDCE6"/>
<path d="M95.0781 34.1016H106.086V55.8212H95.0781V34.1016Z" fill="#00B67A"/>
<path d="M10.9116 48.7339L14.3516 47.8194L15.7275 52.1633L10.9116 48.7339ZM18.7088 43.2468H12.7462L10.9116 37.7598L9.07698 43.2468H3.34375L8.15966 46.6763L6.32503 52.1633L11.1409 48.7339L14.1222 46.6763L18.7088 43.2468Z" fill="white"/>
<path d="M34.7648 48.7339L38.2047 47.8194L39.5807 52.1633L34.7648 48.7339ZM42.3327 43.2468H36.3701L34.5355 37.7598L32.7008 43.2468H26.7383L31.5542 46.6763L29.7196 52.1633L34.5355 48.7339L37.5168 46.6763L42.3327 43.2468Z" fill="white"/>
<path d="M58.6125 48.7339L62.0524 47.8194L63.4284 52.1633L58.6125 48.7339ZM66.1803 43.2468H60.2178L58.3831 37.7598L56.5485 43.2468H50.5859L55.4019 46.6763L53.7965 52.1633L58.6125 48.7339L61.5937 46.6763L66.1803 43.2468Z" fill="white"/>
<path d="M82.2347 48.7339L85.6746 47.8194L87.0506 52.1633L82.2347 48.7339ZM90.0319 43.2468H84.0693L82.2347 37.7598L80.4001 43.2468H74.4375L79.2534 46.6763L77.4188 52.1633L82.2347 48.7339L85.216 46.6763L90.0319 43.2468Z" fill="white"/>
<path d="M106.086 48.7339L109.526 47.8194L110.902 52.1633L106.086 48.7339ZM113.654 43.2468H107.692L105.857 37.7598L104.252 43.2468H98.2891L103.105 46.6763L101.27 52.1633L106.086 48.7339L109.068 46.6763L113.654 43.2468Z" fill="white"/>
</svg>
